InriaSerif-Regular.ufo
<glyph name="exclam" format="1">
  <advance width="258"/>
  <unicode hex="0021"/>
  <outline>
    <contour>
      <point x="145" y="184" type="line"/>
      <point x="145" y="419"/>
      <point x="170" y="474"/>
      <point x="170" y="680" type="curve"/>
      <point x="88" y="680" type="line"/>
      <point x="88" y="474"/>
      <point x="114" y="419"/>
      <point x="114" y="184" type="curve"/>
    </contour>
    <contour>
      <point x="128" y="-10" type="curve" smooth="yes"/>
      <point x="162" y="-10"/>
      <point x="186" y="13"/>
      <point x="186" y="47" type="curve" smooth="yes"/>
      <point x="186" y="80"/>
      <point x="162" y="103"/>
      <point x="128" y="103" type="curve" smooth="yes"/>
      <point x="95" y="103"/>
      <point x="72" y="80"/>
      <point x="72" y="47" type="curve" smooth="yes"/>
      <point x="72" y="13"/>
      <point x="95" y="-10"/>
    </contour>
  </outline>
</glyph>
<glyph name="quotedbl" format="1">
  <advance width="426"/>
  <unicode hex="0022"/>
  <outline>
    <contour>
      <point x="142" y="438" type="line"/>
      <point x="142" y="573"/>
      <point x="177" y="586"/>
      <point x="177" y="634" type="curve" smooth="yes"/>
      <point x="177" y="669"/>
      <point x="156" y="690"/>
      <point x="129" y="690" type="curve" smooth="yes"/>
      <point x="101" y="690"/>
      <point x="81" y="669"/>
      <point x="81" y="634" type="curve" smooth="yes"/>
      <point x="81" y="586"/>
      <point x="116" y="573"/>
      <point x="116" y="438" type="curve"/>
    </contour>
    <contour>
      <point x="310" y="438" type="line"/>
      <point x="310" y="573"/>
      <point x="344" y="586"/>
      <point x="344" y="634" type="curve" smooth="yes"/>
      <point x="344" y="669"/>
      <point x="324" y="690"/>
      <point x="297" y="690" type="curve" smooth="yes"/>
      <point x="269" y="690"/>
      <point x="249" y="669"/>
      <point x="249" y="634" type="curve" smooth="yes"/>
      <point x="249" y="586"/>
      <point x="283" y="573"/>
      <point x="283" y="438" type="curve"/>
    </contour>
  </outline>
</glyph>
<glyph name="numbersign" format="1">
  <advance width="645"/>
  <unicode hex="0023"/>
  <outline>
    <contour>
      <point x="551" y="211" type="line"/>
      <point x="551" y="243" type="line"/>
      <point x="442" y="243" type="line"/>
      <point x="502" y="436" type="line"/>
      <point x="620" y="436" type="line"/>
      <point x="620" y="468" type="line"/>
      <point x="512" y="468" type="line"/>
      <point x="577" y="679" type="line"/>
      <point x="543" y="690" type="line"/>
      <point x="474" y="468" type="line"/>
      <point x="250" y="468" type="line"/>
      <point x="315" y="679" type="line"/>
      <point x="281" y="690" type="line"/>
      <point x="212" y="468" type="line"/>
      <point x="94" y="468" type="line"/>
      <point x="94" y="436" type="line"/>
      <point x="203" y="436" type="line"/>
      <point x="143" y="243" type="line"/>
      <point x="25" y="243" type="line"/>
      <point x="25" y="211" type="line"/>
      <point x="133" y="211" type="line"/>
      <point x="68" y="0" type="line"/>
      <point x="102" y="-10" type="line"/>
      <point x="170" y="211" type="line"/>
      <point x="395" y="211" type="line"/>
      <point x="330" y="0" type="line"/>
      <point x="364" y="-10" type="line"/>
      <point x="432" y="211" type="line"/>
    </contour>
    <contour>
      <point x="180" y="243" type="line"/>
      <point x="240" y="436" type="line"/>
      <point x="465" y="436" type="line"/>
      <point x="405" y="243" type="line"/>
    </contour>
  </outline>
</glyph>
<glyph name="dollar" format="1">
  <advance width="548"/>
  <unicode hex="0024"/>
  <outline>
    <contour>
      <point x="493" y="178" type="curve" smooth="yes"/>
      <point x="493" y="279"/>
      <point x="436" y="343"/>
      <point x="326" y="373" type="curve" smooth="yes"/>
      <point x="288" y="384" type="line"/>
      <point x="288" y="656" type="line"/>
      <point x="370" y="645"/>
      <point x="403" y="577"/>
      <point x="388" y="465" type="curve"/>
      <point x="472" y="483" type="line"/>
      <point x="490" y="585"/>
      <point x="432" y="681"/>
      <point x="288" y="689" type="curve"/>
      <point x="288" y="805" type="line"/>
      <point x="253" y="805" type="line"/>
      <point x="253" y="690" type="line"/>
      <point x="117" y="685"/>
      <point x="56" y="599"/>
      <point x="56" y="506" type="curve" smooth="yes"/>
      <point x="56" y="410"/>
      <point x="110" y="341"/>
      <point x="212" y="313" type="curve" smooth="yes"/>
      <point x="253" y="301" type="line"/>
      <point x="253" y="23" type="line"/>
      <point x="180" y="27"/>
      <point x="114" y="66"/>
      <point x="105" y="189" type="curve"/>
      <point x="45" y="169" type="line"/>
      <point x="65" y="38"/>
      <point x="155" y="-5"/>
      <point x="253" y="-10" type="curve"/>
      <point x="253" y="-125" type="line"/>
      <point x="288" y="-125" type="line"/>
      <point x="288" y="-10" type="line"/>
      <point x="426" y="-3"/>
      <point x="493" y="76"/>
    </contour>
    <contour>
      <point x="130" y="531" type="curve" smooth="yes"/>
      <point x="130" y="610"/>
      <point x="177" y="655"/>
      <point x="253" y="658" type="curve"/>
      <point x="253" y="394" type="line"/>
      <point x="162" y="419"/>
      <point x="130" y="466"/>
    </contour>
    <contour>
      <point x="420" y="152" type="curve" smooth="yes"/>
      <point x="420" y="72"/>
      <point x="367" y="28"/>
      <point x="288" y="23" type="curve"/>
      <point x="288" y="291" type="line"/>
      <point x="384" y="265"/>
      <point x="420" y="220"/>
    </contour>
  </outline>
</glyph>
<glyph name="percent" format="1">
  <advance width="719"/>
  <unicode hex="0025"/>
  <outline>
    <contour>
      <point x="314" y="546" type="line" smooth="yes"/>
      <point x="314" y="620"/>
      <point x="263" y="685"/>
      <point x="176" y="685" type="curve" smooth="yes"/>
      <point x="89" y="685"/>
      <point x="39" y="620"/>
      <point x="39" y="546" type="curve" smooth="yes"/>
      <point x="39" y="515" type="line" smooth="yes"/>
      <point x="39" y="440"/>
      <point x="89" y="375"/>
      <point x="176" y="375" type="curve" smooth="yes"/>
      <point x="263" y="375"/>
      <point x="314" y="440"/>
      <point x="314" y="515" type="curve" smooth="yes"/>
    </contour>
    <contour>
      <point x="532" y="680" type="line"/>
      <point x="157" y="16" type="line"/>
      <point x="184" y="0" type="line"/>
      <point x="558" y="663" type="line"/>
    </contour>
    <contour>
      <point x="251" y="567" type="curve" smooth="yes"/>
      <point x="251" y="494" type="line" smooth="yes"/>
      <point x="251" y="435"/>
      <point x="223" y="398"/>
      <point x="176" y="398" type="curve" smooth="yes"/>
      <point x="129" y="398"/>
      <point x="103" y="435"/>
      <point x="103" y="494" type="curve" smooth="yes"/>
      <point x="103" y="567" type="line" smooth="yes"/>
      <point x="103" y="624"/>
      <point x="129" y="662"/>
      <point x="176" y="662" type="curve" smooth="yes"/>
      <point x="223" y="662"/>
      <point x="251" y="624"/>
    </contour>
    <contour>
      <point x="679" y="166" type="line" smooth="yes"/>
      <point x="679" y="240"/>
      <point x="628" y="305"/>
      <point x="541" y="305" type="curve" smooth="yes"/>
      <point x="454" y="305"/>
      <point x="404" y="240"/>
      <point x="404" y="166" type="curve" smooth="yes"/>
      <point x="404" y="135" type="line" smooth="yes"/>
      <point x="404" y="60"/>
      <point x="454" y="-5"/>
      <point x="541" y="-5" type="curve" smooth="yes"/>
      <point x="628" y="-5"/>
      <point x="679" y="60"/>
      <point x="679" y="135" type="curve" smooth="yes"/>
    </contour>
    <contour>
      <point x="616" y="187" type="curve" smooth="yes"/>
      <point x="616" y="114" type="line" smooth="yes"/>
      <point x="616" y="55"/>
      <point x="588" y="18"/>
      <point x="541" y="18" type="curve" smooth="yes"/>
      <point x="494" y="18"/>
      <point x="468" y="55"/>
      <point x="468" y="114" type="curve" smooth="yes"/>
      <point x="468" y="187" type="line" smooth="yes"/>
      <point x="468" y="244"/>
      <point x="494" y="282"/>
      <point x="541" y="282" type="curve" smooth="yes"/>
      <point x="588" y="282"/>
      <point x="616" y="244"/>
    </contour>
  </outline>
</glyph>
<glyph name="ampersand" format="1">
  <advance width="619"/>
  <unicode hex="0026"/>
  <outline>
    <contour>
      <point x="253" y="22" type="curve" smooth="yes"/>
      <point x="191" y="22"/>
      <point x="138" y="59"/>
      <point x="138" y="151" type="curve" smooth="yes"/>
      <point x="138" y="233"/>
      <point x="178" y="288"/>
      <point x="244" y="329" type="curve" smooth="yes"/>
      <point x="300" y="365" type="line" smooth="yes"/>
      <point x="376" y="412"/>
      <point x="438" y="455"/>
      <point x="438" y="536" type="curve" smooth="yes"/>
      <point x="438" y="618"/>
      <point x="373" y="690"/>
      <point x="264" y="690" type="curve" smooth="yes"/>
      <point x="157" y="690"/>
      <point x="90" y="614"/>
      <point x="90" y="536" type="curve" smooth="yes"/>
      <point x="90" y="471"/>
      <point x="134" y="412"/>
      <point x="228" y="360" type="curve"/>
      <point x="217" y="353" type="line" smooth="yes"/>
      <point x="112" y="289"/>
      <point x="51" y="231"/>
      <point x="51" y="147" type="curve" smooth="yes"/>
      <point x="51" y="46"/>
      <point x="133" y="-10"/>
      <point x="246" y="-10" type="curve" smooth="yes"/>
      <point x="348" y="-10"/>
      <point x="405" y="57"/>
      <point x="407" y="139" type="curve"/>
      <point x="487" y="0" type="line"/>
      <point x="633" y="0" type="line"/>
      <point x="633" y="25" type="line"/>
      <point x="584" y="30" type="line" smooth="yes"/>
      <point x="563" y="32"/>
      <point x="559" y="32"/>
      <point x="538" y="69" type="curve" smooth="yes"/>
      <point x="415" y="277" type="line"/>
      <point x="350" y="236" type="line"/>
      <point x="408" y="125"/>
      <point x="355" y="22"/>
    </contour>
    <contour>
      <point x="177" y="541" type="curve" smooth="yes"/>
      <point x="177" y="624"/>
      <point x="214" y="658"/>
      <point x="265" y="658" type="curve" smooth="yes"/>
      <point x="316" y="658"/>
      <point x="351" y="619"/>
      <point x="351" y="538" type="curve" smooth="yes"/>
      <point x="351" y="468"/>
      <point x="324" y="422"/>
      <point x="275" y="391" type="curve" smooth="yes"/>
      <point x="256" y="378" type="line"/>
      <point x="191" y="433"/>
      <point x="177" y="491"/>
    </contour>
  </outline>
</glyph>
<glyph name="quotesingle" format="1">
  <advance width="258"/>
  <unicode hex="0027"/>
  <outline>
    <contour>
      <point x="142" y="438" type="line"/>
      <point x="142" y="573"/>
      <point x="177" y="586"/>
      <point x="177" y="634" type="curve" smooth="yes"/>
      <point x="177" y="669"/>
      <point x="156" y="690"/>
      <point x="129" y="690" type="curve" smooth="yes"/>
      <point x="101" y="690"/>
      <point x="81" y="669"/>
      <point x="81" y="634" type="curve" smooth="yes"/>
      <point x="81" y="586"/>
      <point x="116" y="573"/>
      <point x="116" y="438" type="curve"/>
    </contour>
  </outline>
</glyph>
<glyph name="parenleft" format="1">
  <advance width="336"/>
  <unicode hex="0028"/>
  <outline>
    <contour>
      <point x="71" y="280" type="line" smooth="yes"/>
      <point x="71" y="114"/>
      <point x="145" y="-28"/>
      <point x="293" y="-153" type="curve"/>
      <point x="316" y="-129" type="line"/>
      <point x="201" y="-21"/>
      <point x="159" y="126"/>
      <point x="159" y="280" type="curve" smooth="yes"/>
      <point x="159" y="317" type="line" smooth="yes"/>
      <point x="159" y="471"/>
      <point x="201" y="618"/>
      <point x="316" y="726" type="curve"/>
      <point x="293" y="750" type="line"/>
      <point x="145" y="625"/>
      <point x="71" y="483"/>
      <point x="71" y="317" type="curve" smooth="yes"/>
    </contour>
  </outline>
</glyph>
<glyph name="parenright" format="1">
  <advance width="336"/>
  <unicode hex="0029"/>
  <outline>
    <contour>
      <point x="265" y="317" type="line" smooth="yes"/>
      <point x="265" y="483"/>
      <point x="191" y="625"/>
      <point x="43" y="750" type="curve"/>
      <point x="20" y="726" type="line"/>
      <point x="134" y="618"/>
      <point x="176" y="471"/>
      <point x="176" y="317" type="curve" smooth="yes"/>
      <point x="176" y="280" type="line" smooth="yes"/>
      <point x="176" y="126"/>
      <point x="134" y="-21"/>
      <point x="20" y="-129" type="curve"/>
      <point x="43" y="-153" type="line"/>
      <point x="191" y="-28"/>
      <point x="265" y="114"/>
      <point x="265" y="280" type="curve" smooth="yes"/>
    </contour>
  </outline>
</glyph>
<glyph name="asterisk" format="1">
  <advance width="444"/>
  <unicode hex="002A"/>
  <outline>
    <contour>
      <point x="49" y="581" type="curve"/>
      <point x="26" y="512" type="line"/>
      <point x="97" y="489"/>
      <point x="118" y="507"/>
      <point x="201" y="480" type="curve"/>
      <point x="149" y="410"/>
      <point x="122" y="412"/>
      <point x="78" y="352" type="curve"/>
      <point x="137" y="309" type="line"/>
      <point x="181" y="369"/>
      <point x="170" y="394"/>
      <point x="221" y="464" type="curve"/>
      <point x="272" y="394"/>
      <point x="262" y="369"/>
      <point x="305" y="309" type="curve"/>
      <point x="364" y="351" type="line"/>
      <point x="321" y="412"/>
      <point x="293" y="409"/>
      <point x="242" y="480" type="curve"/>
      <point x="325" y="506"/>
      <point x="346" y="488"/>
      <point x="417" y="511" type="curve"/>
      <point x="394" y="581" type="line"/>
      <point x="323" y="557"/>
      <point x="317" y="531"/>
      <point x="235" y="504" type="curve"/>
      <point x="235" y="591"/>
      <point x="258" y="605"/>
      <point x="258" y="680" type="curve"/>
      <point x="185" y="680" type="line"/>
      <point x="185" y="605"/>
      <point x="209" y="591"/>
      <point x="209" y="504" type="curve"/>
      <point x="126" y="532"/>
      <point x="120" y="558"/>
    </contour>
  </outline>
</glyph>
<glyph name="plus" format="1">
  <advance width="588"/>
  <unicode hex="002B"/>
  <outline>
    <contour>
      <point x="501" y="317" type="line"/>
      <point x="501" y="350" type="line"/>
      <point x="311" y="350" type="line"/>
      <point x="311" y="545" type="line"/>
      <point x="276" y="545" type="line"/>
      <point x="276" y="350" type="line"/>
      <point x="87" y="350" type="line"/>
      <point x="87" y="317" type="line"/>
      <point x="276" y="317" type="line"/>
      <point x="276" y="123" type="line"/>
      <point x="311" y="123" type="line"/>
      <point x="311" y="317" type="line"/>
    </contour>
  </outline>
</glyph>
<glyph name="comma" format="1">
  <advance width="258"/>
  <unicode hex="002C"/>
  <outline>
    <contour>
      <point x="184" y="33" type="curve" smooth="yes"/>
      <point x="184" y="75"/>
      <point x="161" y="98"/>
      <point x="129" y="98" type="curve" smooth="yes"/>
      <point x="97" y="98"/>
      <point x="75" y="76"/>
      <point x="75" y="44" type="curve" smooth="yes"/>
      <point x="75" y="12"/>
      <point x="97" y="-10"/>
      <point x="129" y="-10" type="curve" smooth="yes"/>
      <point x="130" y="-10" type="line"/>
      <point x="127" y="-53"/>
      <point x="106" y="-108"/>
      <point x="51" y="-175" type="curve"/>
      <point x="73" y="-193" type="line"/>
      <point x="142" y="-112"/>
      <point x="184" y="-27"/>
    </contour>
  </outline>
</glyph>
<glyph name="hyphen" format="1">
  <advance width="404"/>
  <unicode hex="002D"/>
  <outline>
    <contour>
      <point x="70" y="317" type="line"/>
      <point x="334" y="317" type="line"/>
      <point x="334" y="352" type="line"/>
      <point x="70" y="352" type="line"/>
    </contour>
  </outline>
</glyph>
<glyph name="period" format="1">
  <advance width="258"/>
  <unicode hex="002E"/>
  <outline>
    <contour>
      <point x="128" y="-10" type="curve" smooth="yes"/>
      <point x="162" y="-10"/>
      <point x="186" y="13"/>
      <point x="186" y="47" type="curve" smooth="yes"/>
      <point x="186" y="80"/>
      <point x="162" y="103"/>
      <point x="128" y="103" type="curve" smooth="yes"/>
      <point x="95" y="103"/>
      <point x="72" y="80"/>
      <point x="72" y="47" type="curve" smooth="yes"/>
      <point x="72" y="13"/>
      <point x="95" y="-10"/>
    </contour>
  </outline>
</glyph>
<glyph name="zero" format="1">
  <advance width="614"/>
  <unicode hex="0030"/>
  <outline>
    <contour>
      <point x="539" y="372" type="line" smooth="yes"/>
      <point x="539" y="564"/>
      <point x="455" y="690"/>
      <point x="307" y="690" type="curve" smooth="yes"/>
      <point x="158" y="690"/>
      <point x="75" y="564"/>
      <point x="75" y="372" type="curve" smooth="yes"/>
      <point x="75" y="309" type="line" smooth="yes"/>
      <point x="75" y="116"/>
      <point x="158" y="-10"/>
      <point x="307" y="-10" type="curve" smooth="yes"/>
      <point x="455" y="-10"/>
      <point x="539" y="116"/>
      <point x="539" y="309" type="curve" smooth="yes"/>
    </contour>
    <contour>
      <point x="442" y="442" type="curve" smooth="yes"/>
      <point x="442" y="239" type="line" smooth="yes"/>
      <point x="442" y="83"/>
      <point x="394" y="22"/>
      <point x="307" y="22" type="curve" smooth="yes"/>
      <point x="220" y="22"/>
      <point x="172" y="83"/>
      <point x="172" y="239" type="curve" smooth="yes"/>
      <point x="172" y="442" type="line" smooth="yes"/>
      <point x="172" y="596"/>
      <point x="220" y="658"/>
      <point x="307" y="658" type="curve" smooth="yes"/>
      <point x="394" y="658"/>
      <point x="442" y="596"/>
    </contour>
  </outline>
</glyph>
<glyph name="one" format="1">
  <advance width="353"/>
  <unicode hex="0031"/>
  <outline>
    <contour>
      <point x="30" y="597" type="line"/>
      <point x="47" y="570" type="line"/>
      <point x="146" y="632" type="line"/>
      <point x="146" y="81" type="line"/>
      <point x="146" y="34"/>
      <point x="145" y="33"/>
      <point x="124" y="32" type="curve" smooth="yes"/>
      <point x="49" y="26" type="line"/>
      <point x="49" y="0" type="line"/>
      <point x="310" y="0" type="line"/>
      <point x="310" y="26" type="line"/>
      <point x="255" y="32" type="line" smooth="yes"/>
      <point x="234" y="34"/>
      <point x="233" y="34"/>
      <point x="233" y="81" type="curve"/>
      <point x="233" y="680" type="line"/>
      <point x="162" y="680" type="line"/>
    </contour>
  </outline>
</glyph>
<glyph name="two" format="1">
  <advance width="539"/>
  <unicode hex="0032"/>
  <outline>
    <contour>
      <point x="436" y="198" type="line"/>
      <point x="411" y="101" type="line" smooth="yes"/>
      <point x="405" y="78"/>
      <point x="404" y="75"/>
      <point x="357" y="75" type="curve"/>
      <point x="99" y="75" type="line"/>
      <point x="106" y="180"/>
      <point x="166" y="233"/>
      <point x="240" y="272" type="curve" smooth="yes"/>
      <point x="342" y="324"/>
      <point x="468" y="358"/>
      <point x="468" y="506" type="curve" smooth="yes"/>
      <point x="468" y="602"/>
      <point x="408" y="690"/>
      <point x="260" y="690" type="curve" smooth="yes"/>
      <point x="106" y="690"/>
      <point x="40" y="590"/>
      <point x="60" y="483" type="curve"/>
      <point x="147" y="467" type="line"/>
      <point x="133" y="589"/>
      <point x="167" y="658"/>
      <point x="259" y="658" type="curve" smooth="yes"/>
      <point x="330" y="658"/>
      <point x="371" y="609"/>
      <point x="371" y="508" type="curve" smooth="yes"/>
      <point x="371" y="397"/>
      <point x="293" y="353"/>
      <point x="222" y="306" type="curve" smooth="yes"/>
      <point x="138" y="251"/>
      <point x="61" y="191"/>
      <point x="61" y="53" type="curve" smooth="yes"/>
      <point x="61" y="0" type="line"/>
      <point x="462" y="0" type="line"/>
      <point x="462" y="198" type="line"/>
    </contour>
  </outline>
</glyph>
<glyph name="three" format="1">
  <advance width="527"/>
  <unicode hex="0033"/>
  <outline>
    <contour>
      <point x="210" y="334" type="line" smooth="yes"/>
      <point x="328" y="334"/>
      <point x="371" y="266"/>
      <point x="371" y="170" type="curve" smooth="yes"/>
      <point x="371" y="72"/>
      <point x="329" y="22"/>
      <point x="243" y="22" type="curve" smooth="yes"/>
      <point x="178" y="22"/>
      <point x="121" y="54"/>
      <point x="105" y="164" type="curve"/>
      <point x="42" y="146" type="line"/>
      <point x="73" y="29"/>
      <point x="150" y="-10"/>
      <point x="247" y="-10" type="curve" smooth="yes"/>
      <point x="400" y="-10"/>
      <point x="468" y="71"/>
      <point x="468" y="170" type="curve" smooth="yes"/>
      <point x="468" y="273"/>
      <point x="405" y="332"/>
      <point x="292" y="350" type="curve"/>
      <point x="398" y="368"/>
      <point x="457" y="423"/>
      <point x="457" y="516" type="curve" smooth="yes"/>
      <point x="457" y="607"/>
      <point x="398" y="690"/>
      <point x="250" y="690" type="curve" smooth="yes"/>
      <point x="96" y="690"/>
      <point x="31" y="590"/>
      <point x="50" y="483" type="curve"/>
      <point x="137" y="467" type="line"/>
      <point x="124" y="589"/>
      <point x="157" y="658"/>
      <point x="249" y="658" type="curve" smooth="yes"/>
      <point x="320" y="658"/>
      <point x="360" y="609"/>
      <point x="360" y="516" type="curve" smooth="yes"/>
      <point x="360" y="428"/>
      <point x="320" y="366"/>
      <point x="210" y="366" type="curve" smooth="yes"/>
      <point x="183" y="366" type="line"/>
      <point x="183" y="334" type="line"/>
    </contour>
  </outline>
</glyph>
<glyph name="four" format="1">
  <advance width="498"/>
  <unicode hex="0034"/>
  <outline>
    <contour>
      <point x="305" y="81" type="line"/>
      <point x="305" y="34"/>
      <point x="304" y="33"/>
      <point x="283" y="32" type="curve" smooth="yes"/>
      <point x="208" y="26" type="line"/>
      <point x="208" y="0" type="line"/>
      <point x="469" y="0" type="line"/>
      <point x="469" y="26" type="line"/>
      <point x="414" y="32" type="line" smooth="yes"/>
      <point x="393" y="34"/>
      <point x="392" y="34"/>
      <point x="392" y="81" type="curve"/>
      <point x="392" y="176" type="line"/>
      <point x="469" y="176" type="line"/>
      <point x="469" y="208" type="line"/>
      <point x="392" y="208" type="line"/>
      <point x="392" y="379" type="line"/>
      <point x="305" y="365" type="line"/>
      <point x="305" y="208" type="line"/>
      <point x="58" y="208" type="line"/>
      <point x="201" y="350"/>
      <point x="305" y="492"/>
      <point x="359" y="680" type="curve"/>
      <point x="253" y="680" type="line"/>
      <point x="208" y="471"/>
      <point x="151" y="353"/>
      <point x="16" y="208" type="curve"/>
      <point x="16" y="176" type="line"/>
      <point x="305" y="176" type="line"/>
    </contour>
  </outline>
</glyph>
<glyph name="five" format="1">
  <advance width="511"/>
  <unicode hex="0035"/>
  <outline>
    <contour>
      <point x="405" y="762" type="line"/>
      <point x="395" y="706" type="line" smooth="yes"/>
      <point x="391" y="681"/>
      <point x="389" y="680"/>
      <point x="341" y="680" type="curve"/>
      <point x="93" y="680" type="line"/>
      <point x="74" y="348" type="line"/>
      <point x="94" y="339" type="line"/>
      <point x="141" y="380"/>
      <point x="189" y="395"/>
      <point x="235" y="395" type="curve" smooth="yes"/>
      <point x="331" y="395"/>
      <point x="364" y="318"/>
      <point x="364" y="207" type="curve" smooth="yes"/>
      <point x="364" y="81"/>
      <point x="320" y="22"/>
      <point x="237" y="22" type="curve" smooth="yes"/>
      <point x="178" y="22"/>
      <point x="127" y="54"/>
      <point x="111" y="164" type="curve"/>
      <point x="48" y="146" type="line"/>
      <point x="79" y="30"/>
      <point x="150" y="-10"/>
      <point x="242" y="-10" type="curve" smooth="yes"/>
      <point x="398" y="-10"/>
      <point x="461" y="92"/>
      <point x="461" y="207" type="curve" smooth="yes"/>
      <point x="461" y="342"/>
      <point x="378" y="429"/>
      <point x="246" y="429" type="curve" smooth="yes"/>
      <point x="197" y="429"/>
      <point x="150" y="416"/>
      <point x="111" y="389" type="curve"/>
      <point x="123" y="603" type="line"/>
      <point x="431" y="603" type="line"/>
      <point x="431" y="762" type="line"/>
    </contour>
  </outline>
</glyph>
<glyph name="six" format="1">
  <advance width="575"/>
  <unicode hex="0036"/>
  <outline>
    <contour>
      <point x="517" y="191" type="curve" smooth="yes"/>
      <point x="517" y="201" type="line" smooth="yes"/>
      <point x="517" y="322"/>
      <point x="438" y="400"/>
      <point x="320" y="400" type="curve" smooth="yes"/>
      <point x="261" y="400"/>
      <point x="208" y="379"/>
      <point x="170" y="330" type="curve"/>
      <point x="170" y="427" type="line" smooth="yes"/>
      <point x="170" y="615"/>
      <point x="226" y="658"/>
      <point x="299" y="658" type="curve" smooth="yes"/>
      <point x="387" y="658"/>
      <point x="428" y="595"/>
      <point x="417" y="481" type="curve"/>
      <point x="503" y="496" type="line"/>
      <point x="515" y="599"/>
      <point x="433" y="690"/>
      <point x="300" y="690" type="curve" smooth="yes"/>
      <point x="163" y="690"/>
      <point x="75" y="588"/>
      <point x="75" y="368" type="curve" smooth="yes"/>
      <point x="75" y="305" type="line" smooth="yes"/>
      <point x="75" y="98"/>
      <point x="157" y="-10"/>
      <point x="303" y="-10" type="curve" smooth="yes"/>
      <point x="431" y="-10"/>
      <point x="517" y="68"/>
    </contour>
    <contour>
      <point x="170" y="246" type="curve" smooth="yes"/>
      <point x="170" y="280" type="line"/>
      <point x="204" y="340"/>
      <point x="257" y="363"/>
      <point x="305" y="363" type="curve" smooth="yes"/>
      <point x="386" y="363"/>
      <point x="424" y="301"/>
      <point x="424" y="199" type="curve" smooth="yes"/>
      <point x="424" y="189" type="line" smooth="yes"/>
      <point x="424" y="66"/>
      <point x="377" y="22"/>
      <point x="305" y="22" type="curve" smooth="yes"/>
      <point x="218" y="22"/>
      <point x="170" y="75"/>
    </contour>
  </outline>
</glyph>
<glyph name="seven" format="1">
  <advance width="456"/>
  <unicode hex="0037"/>
  <outline>
    <contour>
      <point x="52" y="480" type="line"/>
      <point x="77" y="577" type="line" smooth="yes"/>
      <point x="83" y="600"/>
      <point x="84" y="603"/>
      <point x="131" y="603" type="curve"/>
      <point x="401" y="603" type="line"/>
      <point x="240" y="406"/>
      <point x="176" y="246"/>
      <point x="147" y="0" type="curve"/>
      <point x="253" y="0" type="line"/>
      <point x="266" y="317"/>
      <point x="319" y="455"/>
      <point x="439" y="611" type="curve"/>
      <point x="439" y="680" type="line"/>
      <point x="26" y="680" type="line"/>
      <point x="26" y="480" type="line"/>
    </contour>
  </outline>
</glyph>
<glyph name="eight" format="1">
  <advance width="544"/>
  <unicode hex="0038"/>
  <outline>
    <contour>
      <point x="488" y="172" type="curve" smooth="yes"/>
      <point x="488" y="272"/>
      <point x="435" y="329"/>
      <point x="337" y="371" type="curve"/>
      <point x="430" y="409"/>
      <point x="473" y="459"/>
      <point x="473" y="526" type="curve" smooth="yes"/>
      <point x="473" y="616"/>
      <point x="396" y="690"/>
      <point x="269" y="690" type="curve" smooth="yes"/>
      <point x="140" y="690"/>
      <point x="70" y="608"/>
      <point x="70" y="511" type="curve" smooth="yes"/>
      <point x="70" y="425"/>
      <point x="120" y="373"/>
      <point x="200" y="335" type="curve"/>
      <point x="107" y="294"/>
      <point x="56" y="229"/>
      <point x="56" y="156" type="curve" smooth="yes"/>
      <point x="56" y="69"/>
      <point x="128" y="-10"/>
      <point x="276" y="-10" type="curve" smooth="yes"/>
      <point x="417" y="-10"/>
      <point x="488" y="66"/>
    </contour>
    <contour>
      <point x="264" y="402" type="line" smooth="yes"/>
      <point x="186" y="435"/>
      <point x="144" y="471"/>
      <point x="144" y="538" type="curve" smooth="yes"/>
      <point x="144" y="617"/>
      <point x="197" y="658"/>
      <point x="268" y="658" type="curve" smooth="yes"/>
      <point x="343" y="658"/>
      <point x="390" y="614"/>
      <point x="390" y="526" type="curve" smooth="yes"/>
      <point x="390" y="464"/>
      <point x="371" y="418"/>
      <point x="306" y="384" type="curve"/>
    </contour>
    <contour>
      <point x="139" y="158" type="curve" smooth="yes"/>
      <point x="139" y="229"/>
      <point x="171" y="290"/>
      <point x="232" y="321" type="curve"/>
      <point x="291" y="296" type="line" smooth="yes"/>
      <point x="379" y="259"/>
      <point x="414" y="218"/>
      <point x="414" y="148" type="curve" smooth="yes"/>
      <point x="414" y="66"/>
      <point x="364" y="22"/>
      <point x="276" y="22" type="curve" smooth="yes"/>
      <point x="186" y="22"/>
      <point x="139" y="73"/>
    </contour>
  </outline>
</glyph>
<glyph name="nine" format="1">
  <advance width="575"/>
  <unicode hex="0039"/>
  <outline>
    <contour>
      <point x="500" y="312" type="curve" smooth="yes"/>
      <point x="500" y="375" type="line" smooth="yes"/>
      <point x="500" y="581"/>
      <point x="418" y="690"/>
      <point x="272" y="690" type="curve" smooth="yes"/>
      <point x="144" y="690"/>
      <point x="58" y="610"/>
      <point x="58" y="487" type="curve" smooth="yes"/>
      <point x="58" y="461" type="line" smooth="yes"/>
      <point x="58" y="341"/>
      <point x="137" y="262"/>
      <point x="255" y="262" type="curve" smooth="yes"/>
      <point x="313" y="262"/>
      <point x="366" y="284"/>
      <point x="405" y="332" type="curve"/>
      <point x="405" y="253" type="line" smooth="yes"/>
      <point x="405" y="64"/>
      <point x="335" y="22"/>
      <point x="259" y="22" type="curve" smooth="yes"/>
      <point x="198" y="22"/>
      <point x="143" y="54"/>
      <point x="127" y="164" type="curve"/>
      <point x="65" y="146" type="line"/>
      <point x="95" y="29"/>
      <point x="170" y="-10"/>
      <point x="261" y="-10" type="curve" smooth="yes"/>
      <point x="405" y="-10"/>
      <point x="500" y="92"/>
    </contour>
    <contour>
      <point x="151" y="464" type="curve" smooth="yes"/>
      <point x="151" y="491" type="line" smooth="yes"/>
      <point x="151" y="613"/>
      <point x="198" y="658"/>
      <point x="270" y="658" type="curve" smooth="yes"/>
      <point x="357" y="658"/>
      <point x="405" y="604"/>
      <point x="405" y="434" type="curve" smooth="yes"/>
      <point x="405" y="383" type="line"/>
      <point x="371" y="322"/>
      <point x="319" y="299"/>
      <point x="270" y="299" type="curve" smooth="yes"/>
      <point x="189" y="299"/>
      <point x="151" y="362"/>
    </contour>
  </outline>
</glyph>
<glyph name="colon" format="1">
  <advance width="258"/>
  <unicode hex="003A"/>
  <outline>
    <contour>
      <point x="128" y="391" type="curve" smooth="yes"/>
      <point x="162" y="391"/>
      <point x="186" y="414"/>
      <point x="186" y="448" type="curve" smooth="yes"/>
      <point x="186" y="481"/>
      <point x="162" y="505"/>
      <point x="128" y="505" type="curve" smooth="yes"/>
      <point x="95" y="505"/>
      <point x="72" y="481"/>
      <point x="72" y="448" type="curve" smooth="yes"/>
      <point x="72" y="414"/>
      <point x="95" y="391"/>
    </contour>
    <contour>
      <point x="128" y="-10" type="curve" smooth="yes"/>
      <point x="162" y="-10"/>
      <point x="186" y="13"/>
      <point x="186" y="47" type="curve" smooth="yes"/>
      <point x="186" y="80"/>
      <point x="162" y="103"/>
      <point x="128" y="103" type="curve" smooth="yes"/>
      <point x="95" y="103"/>
      <point x="72" y="80"/>
      <point x="72" y="47" type="curve" smooth="yes"/>
      <point x="72" y="13"/>
      <point x="95" y="-10"/>
    </contour>
  </outline>
</glyph>
<glyph name="semicolon" format="1">
  <advance width="258"/>
  <unicode hex="003B"/>
  <outline>
    <contour>
      <point x="128" y="391" type="curve" smooth="yes"/>
      <point x="162" y="391"/>
      <point x="186" y="414"/>
      <point x="186" y="448" type="curve" smooth="yes"/>
      <point x="186" y="481"/>
      <point x="162" y="505"/>
      <point x="128" y="505" type="curve" smooth="yes"/>
      <point x="95" y="505"/>
      <point x="72" y="481"/>
      <point x="72" y="448" type="curve" smooth="yes"/>
      <point x="72" y="414"/>
      <point x="95" y="391"/>
    </contour>
    <contour>
      <point x="184" y="33" type="curve" smooth="yes"/>
      <point x="184" y="75"/>
      <point x="161" y="98"/>
      <point x="129" y="98" type="curve" smooth="yes"/>
      <point x="97" y="98"/>
      <point x="75" y="76"/>
      <point x="75" y="44" type="curve" smooth="yes"/>
      <point x="75" y="12"/>
      <point x="97" y="-10"/>
      <point x="129" y="-10" type="curve" smooth="yes"/>
      <point x="130" y="-10" type="line"/>
      <point x="127" y="-53"/>
      <point x="106" y="-108"/>
      <point x="51" y="-175" type="curve"/>
      <point x="73" y="-193" type="line"/>
      <point x="142" y="-112"/>
      <point x="184" y="-27"/>
    </contour>
  </outline>
</glyph>
<glyph name="greater" format="1">
  <advance width="588"/>
  <unicode hex="003E"/>
  <outline>
    <contour>
      <point x="501" y="318" type="line"/>
      <point x="501" y="346" type="line"/>
      <point x="99" y="507" type="line"/>
      <point x="87" y="476" type="line"/>
      <point x="449" y="332" type="line"/>
      <point x="87" y="188" type="line"/>
      <point x="99" y="157" type="line"/>
    </contour>
  </outline>
</glyph>
<glyph name="question" format="1">
  <advance width="479"/>
  <unicode hex="003F"/>
  <outline>
    <contour>
      <point x="256" y="184" type="line"/>
      <point x="253" y="207" type="line" smooth="yes"/>
      <point x="236" y="358"/>
      <point x="435" y="332"/>
      <point x="435" y="516" type="curve" smooth="yes"/>
      <point x="435" y="605"/>
      <point x="378" y="690"/>
      <point x="236" y="690" type="curve" smooth="yes"/>
      <point x="89" y="690"/>
      <point x="26" y="590"/>
      <point x="45" y="483" type="curve"/>
      <point x="127" y="467" type="line"/>
      <point x="114" y="589"/>
      <point x="147" y="658"/>
      <point x="235" y="658" type="curve" smooth="yes"/>
      <point x="304" y="658"/>
      <point x="343" y="607"/>
      <point x="343" y="505" type="curve" smooth="yes"/>
      <point x="343" y="333"/>
      <point x="209" y="356"/>
      <point x="209" y="206" type="curve" smooth="yes"/>
      <point x="209" y="184" type="line"/>
    </contour>
    <contour>
      <point x="231" y="-10" type="curve" smooth="yes"/>
      <point x="264" y="-10"/>
      <point x="288" y="13"/>
      <point x="288" y="47" type="curve" smooth="yes"/>
      <point x="288" y="80"/>
      <point x="264" y="103"/>
      <point x="231" y="103" type="curve" smooth="yes"/>
      <point x="198" y="103"/>
      <point x="175" y="80"/>
      <point x="175" y="47" type="curve" smooth="yes"/>
      <point x="175" y="13"/>
      <point x="198" y="-10"/>
    </contour>
  </outline>
</glyph>
<glyph name="A" format="1">
  <advance width="628"/>
  <unicode hex="0041"/>
  <outline>
    <contour>
      <point x="188" y="26" type="line"/>
      <point x="133" y="32" type="line" smooth="yes"/>
      <point x="111" y="34"/>
      <point x="110" y="35"/>
      <point x="125" y="81" type="curve" smooth="yes"/>
      <point x="166" y="209" type="line"/>
      <point x="410" y="209" type="line"/>
      <point x="451" y="81" type="line" smooth="yes"/>
      <point x="465" y="36"/>
      <point x="464" y="34"/>
      <point x="443" y="32" type="curve" smooth="yes"/>
      <point x="388" y="26" type="line"/>
      <point x="388" y="0" type="line"/>
      <point x="631" y="0" type="line"/>
      <point x="631" y="26" type="line"/>
      <point x="576" y="32" type="line" smooth="yes"/>
      <point x="556" y="34"/>
      <point x="554" y="34"/>
      <point x="540" y="81" type="curve" smooth="yes"/>
      <point x="345" y="680" type="line"/>
      <point x="282" y="680" type="line"/>
      <point x="89" y="81" type="line" smooth="yes"/>
      <point x="74" y="34"/>
      <point x="74" y="34"/>
      <point x="52" y="32" type="curve" smooth="yes"/>
      <point x="-2" y="26" type="line"/>
      <point x="-2" y="0" type="line"/>
      <point x="188" y="0" type="line"/>
    </contour>
    <contour>
      <point x="176" y="241" type="line"/>
      <point x="288" y="589" type="line"/>
      <point x="400" y="241" type="line"/>
    </contour>
  </outline>
</glyph>
<glyph name="B" format="1">
  <advance width="605"/>
  <unicode hex="0042"/>
  <outline>
    <contour>
      <point x="48" y="653" type="line"/>
      <point x="103" y="648" type="line" smooth="yes"/>
      <point x="124" y="645"/>
      <point x="125" y="645"/>
      <point x="125" y="599" type="curve"/>
      <point x="125" y="81" type="line"/>
      <point x="125" y="34"/>
      <point x="124" y="34"/>
      <point x="103" y="32" type="curve" smooth="yes"/>
      <point x="48" y="26" type="line"/>
      <point x="48" y="0" type="line"/>
      <point x="345" y="0" type="line" smooth="yes"/>
      <point x="478" y="0"/>
      <point x="546" y="70"/>
      <point x="546" y="167" type="curve" smooth="yes"/>
      <point x="546" y="194" type="line" smooth="yes"/>
      <point x="546" y="276"/>
      <point x="491" y="334"/>
      <point x="398" y="350" type="curve"/>
      <point x="473" y="370"/>
      <point x="516" y="422"/>
      <point x="516" y="491" type="curve" smooth="yes"/>
      <point x="516" y="518" type="line" smooth="yes"/>
      <point x="516" y="612"/>
      <point x="450" y="680"/>
      <point x="320" y="680" type="curve" smooth="yes"/>
      <point x="48" y="680" type="line"/>
    </contour>
    <contour>
      <point x="320" y="648" type="line" smooth="yes"/>
      <point x="389" y="648"/>
      <point x="424" y="605"/>
      <point x="424" y="524" type="curve" smooth="yes"/>
      <point x="424" y="483" type="line" smooth="yes"/>
      <point x="424" y="403"/>
      <point x="389" y="362"/>
      <point x="320" y="362" type="curve" smooth="yes"/>
      <point x="212" y="362" type="line"/>
      <point x="212" y="648" type="line"/>
    </contour>
    <contour>
      <point x="345" y="330" type="line" smooth="yes"/>
      <point x="417" y="330"/>
      <point x="454" y="284"/>
      <point x="454" y="202" type="curve" smooth="yes"/>
      <point x="454" y="161" type="line" smooth="yes"/>
      <point x="454" y="76"/>
      <point x="417" y="32"/>
      <point x="345" y="32" type="curve" smooth="yes"/>
      <point x="212" y="32" type="line"/>
      <point x="212" y="330" type="line"/>
    </contour>
  </outline>
</glyph>
<glyph name="C" format="1">
  <advance width="586"/>
  <unicode hex="0043"/>
  <outline>
    <contour>
      <point x="334" y="-10" type="curve" smooth="yes"/>
      <point x="428" y="-10"/>
      <point x="509" y="28"/>
      <point x="538" y="135" type="curve"/>
      <point x="476" y="151" type="line"/>
      <point x="465" y="51"/>
      <point x="402" y="22"/>
      <point x="336" y="22" type="curve" smooth="yes"/>
      <point x="225" y="22"/>
      <point x="169" y="89"/>
      <point x="169" y="253" type="curve" smooth="yes"/>
      <point x="169" y="428" type="line" smooth="yes"/>
      <point x="169" y="591"/>
      <point x="223" y="658"/>
      <point x="324" y="658" type="curve" smooth="yes"/>
      <point x="414" y="658"/>
      <point x="461" y="587"/>
      <point x="447" y="459" type="curve"/>
      <point x="533" y="480" type="line"/>
      <point x="548" y="591"/>
      <point x="474" y="690"/>
      <point x="324" y="690" type="curve" smooth="yes"/>
      <point x="161" y="690"/>
      <point x="74" y="566"/>
      <point x="74" y="378" type="curve" smooth="yes"/>
      <point x="74" y="303" type="line" smooth="yes"/>
      <point x="74" y="112"/>
      <point x="164" y="-10"/>
    </contour>
  </outline>
</glyph>
<glyph name="D" format="1">
  <advance width="658"/>
  <unicode hex="0044"/>
  <outline>
    <contour>
      <point x="48" y="653" type="line"/>
      <point x="103" y="648" type="line" smooth="yes"/>
      <point x="124" y="645"/>
      <point x="125" y="645"/>
      <point x="125" y="599" type="curve"/>
      <point x="125" y="81" type="line"/>
      <point x="125" y="34"/>
      <point x="124" y="34"/>
      <point x="103" y="32" type="curve" smooth="yes"/>
      <point x="48" y="26" type="line"/>
      <point x="48" y="0" type="line"/>
      <point x="332" y="0" type="line" smooth="yes"/>
      <point x="494" y="0"/>
      <point x="584" y="110"/>
      <point x="584" y="303" type="curve" smooth="yes"/>
      <point x="584" y="378" type="line" smooth="yes"/>
      <point x="584" y="570"/>
      <point x="494" y="680"/>
      <point x="332" y="680" type="curve" smooth="yes"/>
      <point x="48" y="680" type="line"/>
    </contour>
    <contour>
      <point x="330" y="648" type="line" smooth="yes"/>
      <point x="437" y="648"/>
      <point x="489" y="594"/>
      <point x="489" y="428" type="curve" smooth="yes"/>
      <point x="489" y="253" type="line" smooth="yes"/>
      <point x="489" y="85"/>
      <point x="437" y="32"/>
      <point x="330" y="32" type="curve" smooth="yes"/>
      <point x="212" y="32" type="line"/>
      <point x="212" y="648" type="line"/>
    </contour>
  </outline>
</glyph>
<glyph name="E" format="1">
  <advance width="580"/>
  <unicode hex="0045"/>
  <outline>
    <contour>
      <point x="501" y="163" type="line"/>
      <point x="472" y="58" type="line" smooth="yes"/>
      <point x="466" y="34"/>
      <point x="465" y="32"/>
      <point x="418" y="32" type="curve"/>
      <point x="212" y="32" type="line"/>
      <point x="212" y="327" type="line"/>
      <point x="346" y="327" type="line"/>
      <point x="393" y="327"/>
      <point x="394" y="325"/>
      <point x="400" y="301" type="curve" smooth="yes"/>
      <point x="419" y="226" type="line"/>
      <point x="445" y="226" type="line"/>
      <point x="445" y="460" type="line"/>
      <point x="419" y="460" type="line"/>
      <point x="400" y="385" type="line" smooth="yes"/>
      <point x="394" y="361"/>
      <point x="393" y="359"/>
      <point x="346" y="359" type="curve"/>
      <point x="212" y="359" type="line"/>
      <point x="212" y="648" type="line"/>
      <point x="406" y="648" type="line"/>
      <point x="453" y="648"/>
      <point x="453" y="645"/>
      <point x="460" y="622" type="curve" smooth="yes"/>
      <point x="489" y="517" type="line"/>
      <point x="514" y="517" type="line"/>
      <point x="514" y="680" type="line"/>
      <point x="48" y="680" type="line"/>
      <point x="48" y="653" type="line"/>
      <point x="103" y="648" type="line" smooth="yes"/>
      <point x="124" y="645"/>
      <point x="125" y="645"/>
      <point x="125" y="599" type="curve"/>
      <point x="125" y="81" type="line"/>
      <point x="125" y="34"/>
      <point x="124" y="34"/>
      <point x="103" y="32" type="curve" smooth="yes"/>
      <point x="48" y="26" type="line"/>
      <point x="48" y="0" type="line"/>
      <point x="527" y="0" type="line"/>
      <point x="527" y="163" type="line"/>
    </contour>
  </outline>
</glyph>
<glyph name="F" format="1">
  <advance width="543"/>
  <unicode hex="0046"/>
  <outline>
    <contour>
      <point x="409" y="451" type="line"/>
      <point x="390" y="376" type="line" smooth="yes"/>
      <point x="384" y="352"/>
      <point x="383" y="350"/>
      <point x="336" y="350" type="curve"/>
      <point x="212" y="350" type="line"/>
      <point x="212" y="648" type="line"/>
      <point x="396" y="648" type="line"/>
      <point x="443" y="648"/>
      <point x="444" y="645"/>
      <point x="450" y="622" type="curve" smooth="yes"/>
      <point x="479" y="517" type="line"/>
      <point x="505" y="517" type="line"/>
      <point x="505" y="680" type="line"/>
      <point x="48" y="680" type="line"/>
      <point x="48" y="653" type="line"/>
      <point x="103" y="648" type="line" smooth="yes"/>
      <point x="124" y="645"/>
      <point x="125" y="645"/>
      <point x="125" y="599" type="curve"/>
      <point x="125" y="81" type="line"/>
      <point x="125" y="34"/>
      <point x="124" y="34"/>
      <point x="103" y="32" type="curve" smooth="yes"/>
      <point x="48" y="26" type="line"/>
      <point x="48" y="0" type="line"/>
      <point x="309" y="0" type="line"/>
      <point x="309" y="26" type="line"/>
      <point x="234" y="32" type="line" smooth="yes"/>
      <point x="213" y="33"/>
      <point x="212" y="34"/>
      <point x="212" y="81" type="curve"/>
      <point x="212" y="318" type="line"/>
      <point x="336" y="318" type="line"/>
      <point x="383" y="318"/>
      <point x="384" y="316"/>
      <point x="390" y="292" type="curve" smooth="yes"/>
      <point x="409" y="217" type="line"/>
      <point x="435" y="217" type="line"/>
      <point x="435" y="451" type="line"/>
    </contour>
  </outline>
</glyph>
<glyph name="G" format="1">
  <advance width="649"/>
  <unicode hex="0047"/>
  <outline>
    <contour>
      <point x="372" y="281" type="line"/>
      <point x="447" y="276" type="line" smooth="yes"/>
      <point x="468" y="274"/>
      <point x="469" y="273"/>
      <point x="469" y="227" type="curve"/>
      <point x="469" y="85" type="line"/>
      <point x="437" y="41"/>
      <point x="388" y="22"/>
      <point x="333" y="22" type="curve" smooth="yes"/>
      <point x="225" y="22"/>
      <point x="169" y="94"/>
      <point x="169" y="257" type="curve" smooth="yes"/>
      <point x="169" y="424" type="line" smooth="yes"/>
      <point x="169" y="587"/>
      <point x="223" y="658"/>
      <point x="330" y="658" type="curve" smooth="yes"/>
      <point x="429" y="658"/>
      <point x="478" y="587"/>
      <point x="463" y="459" type="curve"/>
      <point x="549" y="480" type="line"/>
      <point x="565" y="590"/>
      <point x="488" y="690"/>
      <point x="330" y="690" type="curve" smooth="yes"/>
      <point x="165" y="690"/>
      <point x="74" y="564"/>
      <point x="74" y="380" type="curve" smooth="yes"/>
      <point x="74" y="305" type="line" smooth="yes"/>
      <point x="74" y="117"/>
      <point x="165" y="-10"/>
      <point x="325" y="-10" type="curve" smooth="yes"/>
      <point x="391" y="-10"/>
      <point x="442" y="11"/>
      <point x="481" y="46" type="curve"/>
      <point x="499" y="34"/>
      <point x="514" y="18"/>
      <point x="526" y="0" type="curve"/>
      <point x="550" y="0" type="line"/>
      <point x="550" y="227" type="line"/>
      <point x="550" y="273"/>
      <point x="551" y="273"/>
      <point x="572" y="276" type="curve" smooth="yes"/>
      <point x="627" y="281" type="line"/>
      <point x="627" y="308" type="line"/>
      <point x="372" y="308" type="line"/>
    </contour>
  </outline>
</glyph>
<glyph name="H" format="1">
  <advance width="726"/>
  <unicode hex="0048"/>
  <outline>
    <contour>
      <point x="678" y="26" type="line"/>
      <point x="623" y="32" type="line" smooth="yes"/>
      <point x="602" y="34"/>
      <point x="601" y="34"/>
      <point x="601" y="81" type="curve"/>
      <point x="601" y="599" type="line"/>
      <point x="601" y="645"/>
      <point x="602" y="645"/>
      <point x="623" y="648" type="curve" smooth="yes"/>
      <point x="678" y="653" type="line"/>
      <point x="678" y="680" type="line"/>
      <point x="437" y="680" type="line"/>
      <point x="437" y="653" type="line"/>
      <point x="492" y="648" type="line" smooth="yes"/>
      <point x="513" y="645"/>
      <point x="514" y="645"/>
      <point x="514" y="599" type="curve"/>
      <point x="514" y="359" type="line"/>
      <point x="212" y="359" type="line"/>
      <point x="212" y="599" type="line"/>
      <point x="212" y="645"/>
      <point x="213" y="645"/>
      <point x="234" y="648" type="curve" smooth="yes"/>
      <point x="289" y="653" type="line"/>
      <point x="289" y="680" type="line"/>
      <point x="48" y="680" type="line"/>
      <point x="48" y="653" type="line"/>
      <point x="103" y="648" type="line" smooth="yes"/>
      <point x="124" y="645"/>
      <point x="125" y="645"/>
      <point x="125" y="599" type="curve"/>
      <point x="125" y="81" type="line"/>
      <point x="125" y="34"/>
      <point x="124" y="34"/>
      <point x="103" y="32" type="curve" smooth="yes"/>
      <point x="48" y="26" type="line"/>
      <point x="48" y="0" type="line"/>
      <point x="289" y="0" type="line"/>
      <point x="289" y="26" type="line"/>
      <point x="234" y="32" type="line" smooth="yes"/>
      <point x="213" y="34"/>
      <point x="212" y="34"/>
      <point x="212" y="81" type="curve"/>
      <point x="212" y="327" type="line"/>
      <point x="514" y="327" type="line"/>
      <point x="514" y="81" type="line"/>
      <point x="514" y="34"/>
      <point x="513" y="34"/>
      <point x="492" y="32" type="curve" smooth="yes"/>
      <point x="437" y="26" type="line"/>
      <point x="437" y="0" type="line"/>
      <point x="678" y="0" type="line"/>
    </contour>
  </outline>
</glyph>
<glyph name="I" format="1">
  <advance width="337"/>
  <unicode hex="0049"/>
  <outline>
    <contour>
      <point x="48" y="653" type="line"/>
      <point x="103" y="648" type="line" smooth="yes"/>
      <point x="124" y="645"/>
      <point x="125" y="645"/>
      <point x="125" y="599" type="curve"/>
      <point x="125" y="81" type="line"/>
      <point x="125" y="34"/>
      <point x="124" y="34"/>
      <point x="103" y="32" type="curve" smooth="yes"/>
      <point x="48" y="26" type="line"/>
      <point x="48" y="0" type="line"/>
      <point x="289" y="0" type="line"/>
      <point x="289" y="26" type="line"/>
      <point x="234" y="32" type="line" smooth="yes"/>
      <point x="213" y="34"/>
      <point x="212" y="34"/>
      <point x="212" y="81" type="curve"/>
      <point x="212" y="599" type="line"/>
      <point x="212" y="645"/>
      <point x="213" y="645"/>
      <point x="234" y="648" type="curve" smooth="yes"/>
      <point x="289" y="653" type="line"/>
      <point x="289" y="680" type="line"/>
      <point x="48" y="680" type="line"/>
    </contour>
  </outline>
</glyph>
<glyph name="J" format="1">
  <advance width="461"/>
  <unicode hex="004A"/>
  <outline>
    <contour>
      <point x="184" y="653" type="line"/>
      <point x="239" y="648" type="line" smooth="yes"/>
      <point x="260" y="645"/>
      <point x="261" y="645"/>
      <point x="261" y="599" type="curve"/>
      <point x="261" y="190" type="line" smooth="yes"/>
      <point x="261" y="57"/>
      <point x="221" y="22"/>
      <point x="165" y="22" type="curve" smooth="yes"/>
      <point x="121" y="22"/>
      <point x="74" y="44"/>
      <point x="70" y="151" type="curve"/>
      <point x="12" y="134" type="line"/>
      <point x="25" y="19"/>
      <point x="99" y="-10"/>
      <point x="169" y="-10" type="curve" smooth="yes"/>
      <point x="304" y="-10"/>
      <point x="348" y="88"/>
      <point x="348" y="198" type="curve" smooth="yes"/>
      <point x="348" y="599" type="line"/>
      <point x="348" y="645"/>
      <point x="349" y="645"/>
      <point x="370" y="648" type="curve" smooth="yes"/>
      <point x="425" y="653" type="line"/>
      <point x="425" y="680" type="line"/>
      <point x="184" y="680" type="line"/>
    </contour>
  </outline>
</glyph>
<glyph name="K" format="1">
  <advance width="644"/>
  <unicode hex="004B"/>
  <outline>
    <contour>
      <point x="48" y="654" type="line"/>
      <point x="103" y="648" type="line" smooth="yes"/>
      <point x="124" y="646"/>
      <point x="125" y="645"/>
      <point x="125" y="599" type="curve"/>
      <point x="125" y="81" type="line"/>
      <point x="125" y="34"/>
      <point x="124" y="34"/>
      <point x="103" y="32" type="curve" smooth="yes"/>
      <point x="48" y="26" type="line"/>
      <point x="48" y="0" type="line"/>
      <point x="289" y="0" type="line"/>
      <point x="289" y="26" type="line"/>
      <point x="234" y="32" type="line" smooth="yes"/>
      <point x="213" y="34"/>
      <point x="212" y="34"/>
      <point x="212" y="81" type="curve"/>
      <point x="212" y="253" type="line"/>
      <point x="291" y="347" type="line"/>
      <point x="483" y="0" type="line"/>
      <point x="639" y="0" type="line"/>
      <point x="639" y="26" type="line"/>
      <point x="591" y="32" type="line" smooth="yes"/>
      <point x="566" y="34"/>
      <point x="565" y="35"/>
      <point x="539" y="81" type="curve" smooth="yes"/>
      <point x="349" y="417" type="line"/>
      <point x="505" y="605" type="line" smooth="yes"/>
      <point x="538" y="644"/>
      <point x="539" y="646"/>
      <point x="559" y="648" type="curve" smooth="yes"/>
      <point x="610" y="654" type="line"/>
      <point x="610" y="680" type="line"/>
      <point x="420" y="680" type="line"/>
      <point x="420" y="654" type="line"/>
      <point x="471" y="648" type="line" smooth="yes"/>
      <point x="493" y="646"/>
      <point x="495" y="644"/>
      <point x="462" y="605" type="curve" smooth="yes"/>
      <point x="212" y="305" type="line"/>
      <point x="212" y="599" type="line"/>
      <point x="212" y="645"/>
      <point x="213" y="646"/>
      <point x="234" y="648" type="curve" smooth="yes"/>
      <point x="289" y="654" type="line"/>
      <point x="289" y="680" type="line"/>
      <point x="48" y="680" type="line"/>
    </contour>
  </outline>
</glyph>
<glyph name="L" format="1">
  <advance width="515"/>
  <unicode hex="004C"/>
  <outline>
    <contour>
      <point x="476" y="165" type="line"/>
      <point x="447" y="58" type="line" smooth="yes"/>
      <point x="441" y="34"/>
      <point x="440" y="32"/>
      <point x="393" y="32" type="curve"/>
      <point x="212" y="32" type="line"/>
      <point x="212" y="599" type="line"/>
      <point x="212" y="645"/>
      <point x="213" y="645"/>
      <point x="234" y="648" type="curve" smooth="yes"/>
      <point x="289" y="653" type="line"/>
      <point x="289" y="680" type="line"/>
      <point x="48" y="680" type="line"/>
      <point x="48" y="653" type="line"/>
      <point x="103" y="648" type="line" smooth="yes"/>
      <point x="124" y="645"/>
      <point x="125" y="645"/>
      <point x="125" y="599" type="curve"/>
      <point x="125" y="81" type="line"/>
      <point x="125" y="34"/>
      <point x="124" y="34"/>
      <point x="103" y="32" type="curve" smooth="yes"/>
      <point x="48" y="26" type="line"/>
      <point x="48" y="0" type="line"/>
      <point x="503" y="0" type="line"/>
      <point x="503" y="165" type="line"/>
    </contour>
  </outline>
</glyph>
<glyph name="M" format="1">
  <advance width="860"/>
  <unicode hex="004D"/>
  <outline>
    <contour>
      <point x="811" y="26" type="line"/>
      <point x="756" y="32" type="line" smooth="yes"/>
      <point x="735" y="34"/>
      <point x="734" y="35"/>
      <point x="734" y="81" type="curve"/>
      <point x="734" y="599" type="line"/>
      <point x="734" y="644"/>
      <point x="735" y="645"/>
      <point x="756" y="648" type="curve" smooth="yes"/>
      <point x="811" y="653" type="line"/>
      <point x="811" y="680" type="line"/>
      <point x="633" y="680" type="line"/>
      <point x="432" y="155" type="line"/>
      <point x="231" y="680" type="line"/>
      <point x="48" y="680" type="line"/>
      <point x="48" y="653" type="line"/>
      <point x="103" y="648" type="line" smooth="yes"/>
      <point x="124" y="645"/>
      <point x="125" y="644"/>
      <point x="125" y="599" type="curve"/>
      <point x="125" y="81" type="line"/>
      <point x="125" y="35"/>
      <point x="124" y="34"/>
      <point x="103" y="32" type="curve" smooth="yes"/>
      <point x="48" y="26" type="line"/>
      <point x="48" y="0" type="line"/>
      <point x="239" y="0" type="line"/>
      <point x="239" y="26" type="line"/>
      <point x="184" y="32" type="line" smooth="yes"/>
      <point x="163" y="34"/>
      <point x="162" y="35"/>
      <point x="162" y="81" type="curve"/>
      <point x="162" y="623" type="line"/>
      <point x="371" y="80" type="line"/>
      <point x="439" y="80" type="line"/>
      <point x="647" y="623" type="line"/>
      <point x="647" y="81" type="line"/>
      <point x="647" y="35"/>
      <point x="646" y="34"/>
      <point x="625" y="32" type="curve" smooth="yes"/>
      <point x="570" y="26" type="line"/>
      <point x="570" y="0" type="line"/>
      <point x="811" y="0" type="line"/>
    </contour>
  </outline>
</glyph>
<glyph name="N" format="1">
  <advance width="691"/>
  <unicode hex="004E"/>
  <outline>
    <contour>
      <point x="461" y="653" type="line"/>
      <point x="516" y="648" type="line" smooth="yes"/>
      <point x="537" y="645"/>
      <point x="538" y="644"/>
      <point x="538" y="599" type="curve"/>
      <point x="538" y="144" type="line"/>
      <point x="221" y="680" type="line"/>
      <point x="48" y="680" type="line"/>
      <point x="48" y="653" type="line"/>
      <point x="103" y="648" type="line" smooth="yes"/>
      <point x="124" y="645"/>
      <point x="125" y="644"/>
      <point x="125" y="599" type="curve"/>
      <point x="125" y="81" type="line"/>
      <point x="125" y="35"/>
      <point x="124" y="34"/>
      <point x="103" y="32" type="curve" smooth="yes"/>
      <point x="48" y="26" type="line"/>
      <point x="48" y="0" type="line"/>
      <point x="239" y="0" type="line"/>
      <point x="239" y="26" type="line"/>
      <point x="184" y="32" type="line" smooth="yes"/>
      <point x="163" y="34"/>
      <point x="162" y="35"/>
      <point x="162" y="81" type="curve"/>
      <point x="162" y="614" type="line"/>
      <point x="526" y="0" type="line"/>
      <point x="575" y="0" type="line"/>
      <point x="575" y="599" type="line"/>
      <point x="575" y="644"/>
      <point x="576" y="645"/>
      <point x="597" y="648" type="curve" smooth="yes"/>
      <point x="652" y="653" type="line"/>
      <point x="652" y="680" type="line"/>
      <point x="461" y="680" type="line"/>
    </contour>
  </outline>
</glyph>
<glyph name="O" format="1">
  <advance width="666"/>
  <unicode hex="004F"/>
  <outline>
    <contour>
      <point x="592" y="378" type="line" smooth="yes"/>
      <point x="592" y="571"/>
      <point x="500" y="690"/>
      <point x="333" y="690" type="curve" smooth="yes"/>
      <point x="165" y="690"/>
      <point x="74" y="571"/>
      <point x="74" y="378" type="curve" smooth="yes"/>
      <point x="74" y="303" type="line" smooth="yes"/>
      <point x="74" y="108"/>
      <point x="165" y="-10"/>
      <point x="333" y="-10" type="curve" smooth="yes"/>
      <point x="500" y="-10"/>
      <point x="592" y="108"/>
      <point x="592" y="303" type="curve" smooth="yes"/>
    </contour>
    <contour>
      <point x="497" y="428" type="curve" smooth="yes"/>
      <point x="497" y="253" type="line" smooth="yes"/>
      <point x="497" y="86"/>
      <point x="441" y="22"/>
      <point x="333" y="22" type="curve" smooth="yes"/>
      <point x="225" y="22"/>
      <point x="169" y="86"/>
      <point x="169" y="253" type="curve" smooth="yes"/>
      <point x="169" y="428" type="line" smooth="yes"/>
      <point x="169" y="595"/>
      <point x="225" y="658"/>
      <point x="333" y="658" type="curve" smooth="yes"/>
      <point x="441" y="658"/>
      <point x="497" y="595"/>
    </contour>
  </outline>
</glyph>
<glyph name="P" format="1">
  <advance width="574"/>
  <unicode hex="0050"/>
  <outline>
    <contour>
      <point x="48" y="653" type="line"/>
      <point x="103" y="648" type="line" smooth="yes"/>
      <point x="124" y="645"/>
      <point x="125" y="645"/>
      <point x="125" y="599" type="curve"/>
      <point x="125" y="81" type="line"/>
      <point x="125" y="34"/>
      <point x="124" y="34"/>
      <point x="103" y="32" type="curve" smooth="yes"/>
      <point x="48" y="26" type="line"/>
      <point x="48" y="0" type="line"/>
      <point x="309" y="0" type="line"/>
      <point x="309" y="26" type="line"/>
      <point x="234" y="32" type="line" smooth="yes"/>
      <point x="213" y="33"/>
      <point x="212" y="34"/>
      <point x="212" y="81" type="curve"/>
      <point x="212" y="288" type="line"/>
      <point x="332" y="288" type="line" smooth="yes"/>
      <point x="464" y="288"/>
      <point x="535" y="360"/>
      <point x="535" y="470" type="curve" smooth="yes"/>
      <point x="535" y="499" type="line" smooth="yes"/>
      <point x="535" y="608"/>
      <point x="464" y="680"/>
      <point x="332" y="680" type="curve" smooth="yes"/>
      <point x="48" y="680" type="line"/>
    </contour>
    <contour>
      <point x="332" y="648" type="line" smooth="yes"/>
      <point x="404" y="648"/>
      <point x="443" y="603"/>
      <point x="443" y="513" type="curve" smooth="yes"/>
      <point x="443" y="456" type="line" smooth="yes"/>
      <point x="443" y="365"/>
      <point x="404" y="320"/>
      <point x="332" y="320" type="curve" smooth="yes"/>
      <point x="212" y="320" type="line"/>
      <point x="212" y="648" type="line"/>
    </contour>
  </outline>
</glyph>
<glyph name="Q" format="1">
  <advance width="668"/>
  <unicode hex="0051"/>
  <outline>
    <contour>
      <point x="563" y="-98" type="line"/>
      <point x="461" y="-98"/>
      <point x="407" y="-78"/>
      <point x="376" y="-7" type="curve"/>
      <point x="516" y="11"/>
      <point x="594" y="125"/>
      <point x="594" y="303" type="curve" smooth="yes"/>
      <point x="594" y="378" type="line" smooth="yes"/>
      <point x="594" y="571"/>
      <point x="501" y="690"/>
      <point x="334" y="690" type="curve" smooth="yes"/>
      <point x="165" y="690"/>
      <point x="74" y="571"/>
      <point x="74" y="378" type="curve" smooth="yes"/>
      <point x="74" y="303" type="line" smooth="yes"/>
      <point x="74" y="108"/>
      <point x="165" y="-10"/>
      <point x="334" y="-10" type="curve" smooth="yes"/>
      <point x="340" y="-10" type="line"/>
      <point x="389" y="-144"/>
      <point x="473" y="-187"/>
      <point x="577" y="-187" type="curve"/>
    </contour>
    <contour>
      <point x="499" y="428" type="curve" smooth="yes"/>
      <point x="499" y="253" type="line" smooth="yes"/>
      <point x="499" y="86"/>
      <point x="442" y="22"/>
      <point x="334" y="22" type="curve" smooth="yes"/>
      <point x="225" y="22"/>
      <point x="169" y="86"/>
      <point x="169" y="253" type="curve" smooth="yes"/>
      <point x="169" y="428" type="line" smooth="yes"/>
      <point x="169" y="595"/>
      <point x="225" y="658"/>
      <point x="334" y="658" type="curve" smooth="yes"/>
      <point x="442" y="658"/>
      <point x="499" y="595"/>
    </contour>
  </outline>
</glyph>
<glyph name="R" format="1">
  <advance width="625"/>
  <unicode hex="0052"/>
  <outline>
    <contour>
      <point x="48" y="653" type="line"/>
      <point x="103" y="648" type="line" smooth="yes"/>
      <point x="124" y="645"/>
      <point x="125" y="645"/>
      <point x="125" y="599" type="curve"/>
      <point x="125" y="81" type="line"/>
      <point x="125" y="34"/>
      <point x="124" y="34"/>
      <point x="103" y="32" type="curve" smooth="yes"/>
      <point x="48" y="26" type="line"/>
      <point x="48" y="0" type="line"/>
      <point x="289" y="0" type="line"/>
      <point x="289" y="26" type="line"/>
      <point x="234" y="32" type="line" smooth="yes"/>
      <point x="213" y="34"/>
      <point x="212" y="34"/>
      <point x="212" y="81" type="curve"/>
      <point x="212" y="308" type="line"/>
      <point x="310" y="308" type="line"/>
      <point x="468" y="0" type="line"/>
      <point x="619" y="0" type="line"/>
      <point x="619" y="26" type="line"/>
      <point x="574" y="32" type="line" smooth="yes"/>
      <point x="553" y="34"/>
      <point x="553" y="34"/>
      <point x="528" y="81" type="curve" smooth="yes"/>
      <point x="400" y="317" type="line"/>
      <point x="483" y="338"/>
      <point x="529" y="397"/>
      <point x="529" y="479" type="curve" smooth="yes"/>
      <point x="529" y="510" type="line" smooth="yes"/>
      <point x="529" y="613"/>
      <point x="456" y="680"/>
      <point x="326" y="680" type="curve" smooth="yes"/>
      <point x="48" y="680" type="line"/>
    </contour>
    <contour>
      <point x="326" y="648" type="line" smooth="yes"/>
      <point x="395" y="648"/>
      <point x="437" y="605"/>
      <point x="437" y="514" type="curve" smooth="yes"/>
      <point x="437" y="475" type="line" smooth="yes"/>
      <point x="437" y="384"/>
      <point x="395" y="340"/>
      <point x="326" y="340" type="curve" smooth="yes"/>
      <point x="212" y="340" type="line"/>
      <point x="212" y="648" type="line"/>
    </contour>
  </outline>
</glyph>
<glyph name="S" format="1">
  <advance width="548"/>
  <unicode hex="0053"/>
  <outline>
    <contour>
      <point x="270" y="22" type="curve" smooth="yes"/>
      <point x="190" y="22"/>
      <point x="115" y="57"/>
      <point x="105" y="189" type="curve"/>
      <point x="45" y="169" type="line"/>
      <point x="66" y="30"/>
      <point x="165" y="-10"/>
      <point x="270" y="-10" type="curve" smooth="yes"/>
      <point x="420" y="-10"/>
      <point x="493" y="72"/>
      <point x="493" y="178" type="curve" smooth="yes"/>
      <point x="493" y="279"/>
      <point x="436" y="343"/>
      <point x="326" y="373" type="curve" smooth="yes"/>
      <point x="257" y="393" type="line" smooth="yes"/>
      <point x="162" y="419"/>
      <point x="130" y="466"/>
      <point x="130" y="531" type="curve" smooth="yes"/>
      <point x="130" y="613"/>
      <point x="180" y="658"/>
      <point x="261" y="658" type="curve" smooth="yes"/>
      <point x="363" y="658"/>
      <point x="405" y="589"/>
      <point x="388" y="465" type="curve"/>
      <point x="472" y="483" type="line"/>
      <point x="491" y="590"/>
      <point x="426" y="690"/>
      <point x="266" y="690" type="curve" smooth="yes"/>
      <point x="121" y="690"/>
      <point x="56" y="602"/>
      <point x="56" y="506" type="curve" smooth="yes"/>
      <point x="56" y="410"/>
      <point x="110" y="341"/>
      <point x="212" y="313" type="curve" smooth="yes"/>
      <point x="281" y="293" type="line" smooth="yes"/>
      <point x="384" y="265"/>
      <point x="420" y="220"/>
      <point x="420" y="152" type="curve" smooth="yes"/>
      <point x="420" y="66"/>
      <point x="359" y="22"/>
    </contour>
  </outline>
</glyph>
<glyph name="T" format="1">
  <advance width="559"/>
  <unicode hex="0054"/>
  <outline>
    <contour>
      <point x="13" y="680" type="line"/>
      <point x="13" y="517" type="line"/>
      <point x="39" y="517" type="line"/>
      <point x="68" y="622" type="line" smooth="yes"/>
      <point x="74" y="646"/>
      <point x="75" y="648"/>
      <point x="122" y="648" type="curve"/>
      <point x="236" y="648" type="line"/>
      <point x="236" y="81" type="line"/>
      <point x="236" y="34"/>
      <point x="235" y="34"/>
      <point x="214" y="32" type="curve" smooth="yes"/>
      <point x="159" y="26" type="line"/>
      <point x="159" y="0" type="line"/>
      <point x="400" y="0" type="line"/>
      <point x="400" y="26" type="line"/>
      <point x="345" y="32" type="line" smooth="yes"/>
      <point x="324" y="34"/>
      <point x="323" y="34"/>
      <point x="323" y="81" type="curve"/>
      <point x="323" y="648" type="line"/>
      <point x="436" y="648" type="line"/>
      <point x="483" y="648"/>
      <point x="484" y="646"/>
      <point x="490" y="622" type="curve" smooth="yes"/>
      <point x="519" y="517" type="line"/>
      <point x="545" y="517" type="line"/>
      <point x="545" y="680" type="line"/>
    </contour>
  </outline>
</glyph>
<glyph name="U" format="1">
  <advance width="677"/>
  <unicode hex="0055"/>
  <outline>
    <contour>
      <point x="452" y="653" type="line"/>
      <point x="507" y="648" type="line" smooth="yes"/>
      <point x="528" y="645"/>
      <point x="529" y="645"/>
      <point x="529" y="599" type="curve"/>
      <point x="529" y="230" type="line" smooth="yes"/>
      <point x="529" y="95"/>
      <point x="473" y="23"/>
      <point x="361" y="23" type="curve" smooth="yes"/>
      <point x="250" y="23"/>
      <point x="197" y="91"/>
      <point x="197" y="234" type="curve" smooth="yes"/>
      <point x="197" y="599" type="line"/>
      <point x="197" y="645"/>
      <point x="198" y="645"/>
      <point x="219" y="648" type="curve" smooth="yes"/>
      <point x="274" y="653" type="line"/>
      <point x="274" y="680" type="line"/>
      <point x="33" y="680" type="line"/>
      <point x="33" y="653" type="line"/>
      <point x="88" y="648" type="line" smooth="yes"/>
      <point x="109" y="645"/>
      <point x="110" y="645"/>
      <point x="110" y="599" type="curve"/>
      <point x="110" y="249" type="line" smooth="yes"/>
      <point x="110" y="87"/>
      <point x="196" y="-10"/>
      <point x="353" y="-10" type="curve" smooth="yes"/>
      <point x="497" y="-10"/>
      <point x="566" y="79"/>
      <point x="566" y="231" type="curve" smooth="yes"/>
      <point x="566" y="599" type="line"/>
      <point x="566" y="645"/>
      <point x="567" y="645"/>
      <point x="588" y="648" type="curve" smooth="yes"/>
      <point x="643" y="653" type="line"/>
      <point x="643" y="680" type="line"/>
      <point x="452" y="680" type="line"/>
    </contour>
  </outline>
</glyph>
<glyph name="V" format="1">
  <advance width="620"/>
  <unicode hex="0056"/>
  <outline>
    <contour>
      <point x="538" y="605" type="line" smooth="yes"/>
      <point x="551" y="645"/>
      <point x="551" y="645"/>
      <point x="571" y="648" type="curve" smooth="yes"/>
      <point x="622" y="653" type="line"/>
      <point x="622" y="680" type="line"/>
      <point x="441" y="680" type="line"/>
      <point x="441" y="653" type="line"/>
      <point x="492" y="648" type="line" smooth="yes"/>
      <point x="514" y="645"/>
      <point x="515" y="644"/>
      <point x="502" y="605" type="curve" smooth="yes"/>
      <point x="337" y="87" type="line"/>
      <point x="172" y="605" type="line" smooth="yes"/>
      <point x="160" y="644"/>
      <point x="161" y="645"/>
      <point x="182" y="648" type="curve" smooth="yes"/>
      <point x="233" y="653" type="line"/>
      <point x="233" y="680" type="line"/>
      <point x="-2" y="680" type="line"/>
      <point x="-2" y="653" type="line"/>
      <point x="48" y="648" type="line" smooth="yes"/>
      <point x="69" y="645"/>
      <point x="70" y="645"/>
      <point x="82" y="605" type="curve" smooth="yes"/>
      <point x="277" y="0" type="line"/>
      <point x="344" y="0" type="line"/>
    </contour>
  </outline>
</glyph>
<glyph name="W" format="1">
  <advance width="921"/>
  <unicode hex="0057"/>
  <outline>
    <contour>
      <point x="630" y="0" type="line"/>
      <point x="695" y="0" type="line"/>
      <point x="841" y="605" type="line" smooth="yes"/>
      <point x="851" y="645"/>
      <point x="852" y="645"/>
      <point x="872" y="648" type="curve" smooth="yes"/>
      <point x="923" y="653" type="line"/>
      <point x="923" y="680" type="line"/>
      <point x="741" y="680" type="line"/>
      <point x="741" y="653" type="line"/>
      <point x="793" y="648" type="line" smooth="yes"/>
      <point x="813" y="645"/>
      <point x="815" y="645"/>
      <point x="805" y="605" type="curve" smooth="yes"/>
      <point x="685" y="109" type="line"/>
      <point x="516" y="680" type="line"/>
      <point x="454" y="680" type="line"/>
      <point x="287" y="105" type="line"/>
      <point x="168" y="605" type="line" smooth="yes"/>
      <point x="158" y="645"/>
      <point x="159" y="645"/>
      <point x="180" y="648" type="curve" smooth="yes"/>
      <point x="231" y="653" type="line"/>
      <point x="231" y="680" type="line"/>
      <point x="-2" y="680" type="line"/>
      <point x="-2" y="653" type="line"/>
      <point x="49" y="648" type="line" smooth="yes"/>
      <point x="70" y="645"/>
      <point x="71" y="644"/>
      <point x="80" y="605" type="curve" smooth="yes"/>
      <point x="226" y="0" type="line"/>
      <point x="292" y="0" type="line"/>
      <point x="460" y="574" type="line"/>
    </contour>
  </outline>
</glyph>
<glyph name="X" format="1">
  <advance width="598"/>
  <unicode hex="0058"/>
  <outline>
    <contour>
      <point x="188" y="26" type="line"/>
      <point x="137" y="32" type="line" smooth="yes"/>
      <point x="116" y="34"/>
      <point x="115" y="36"/>
      <point x="139" y="75" type="curve" smooth="yes"/>
      <point x="277" y="300" type="line"/>
      <point x="405" y="75" type="line" smooth="yes"/>
      <point x="427" y="35"/>
      <point x="426" y="34"/>
      <point x="405" y="32" type="curve" smooth="yes"/>
      <point x="353" y="26" type="line"/>
      <point x="353" y="0" type="line"/>
      <point x="596" y="0" type="line"/>
      <point x="596" y="26" type="line"/>
      <point x="544" y="32" type="line" smooth="yes"/>
      <point x="524" y="34"/>
      <point x="523" y="35"/>
      <point x="501" y="75" type="curve" smooth="yes"/>
      <point x="337" y="364" type="line"/>
      <point x="486" y="605" type="line" smooth="yes"/>
      <point x="511" y="645"/>
      <point x="512" y="645"/>
      <point x="532" y="648" type="curve" smooth="yes"/>
      <point x="583" y="653" type="line"/>
      <point x="583" y="680" type="line"/>
      <point x="397" y="680" type="line"/>
      <point x="397" y="653" type="line"/>
      <point x="448" y="648" type="line" smooth="yes"/>
      <point x="469" y="645"/>
      <point x="470" y="644"/>
      <point x="446" y="605" type="curve" smooth="yes"/>
      <point x="318" y="398" type="line"/>
      <point x="201" y="605" type="line" smooth="yes"/>
      <point x="179" y="644"/>
      <point x="181" y="645"/>
      <point x="201" y="648" type="curve" smooth="yes"/>
      <point x="253" y="653" type="line"/>
      <point x="253" y="680" type="line"/>
      <point x="10" y="680" type="line"/>
      <point x="10" y="653" type="line"/>
      <point x="61" y="648" type="line" smooth="yes"/>
      <point x="81" y="645"/>
      <point x="82" y="645"/>
      <point x="104" y="605" type="curve"/>
      <point x="258" y="333" type="line"/>
      <point x="99" y="75" type="line" smooth="yes"/>
      <point x="74" y="34"/>
      <point x="73" y="34"/>
      <point x="53" y="32" type="curve" smooth="yes"/>
      <point x="2" y="26" type="line"/>
      <point x="2" y="0" type="line"/>
      <point x="188" y="0" type="line"/>
    </contour>
  </outline>
</glyph>
<glyph name="Y" format="1">
  <advance width="588"/>
  <unicode hex="0059"/>
  <outline>
    <contour>
      <point x="415" y="26" type="line"/>
      <point x="360" y="32" type="line" smooth="yes"/>
      <point x="339" y="34"/>
      <point x="338" y="34"/>
      <point x="338" y="81" type="curve"/>
      <point x="338" y="292" type="line"/>
      <point x="498" y="605" type="line" smooth="yes"/>
      <point x="518" y="644"/>
      <point x="519" y="645"/>
      <point x="540" y="648" type="curve" smooth="yes"/>
      <point x="592" y="653" type="line"/>
      <point x="592" y="680" type="line"/>
      <point x="407" y="680" type="line"/>
      <point x="407" y="653" type="line"/>
      <point x="458" y="648" type="line" smooth="yes"/>
      <point x="478" y="645"/>
      <point x="480" y="644"/>
      <point x="460" y="605" type="curve" smooth="yes"/>
      <point x="321" y="332" type="line"/>
      <point x="185" y="605" type="line" smooth="yes"/>
      <point x="166" y="644"/>
      <point x="167" y="645"/>
      <point x="187" y="648" type="curve" smooth="yes"/>
      <point x="238" y="653" type="line"/>
      <point x="238" y="680" type="line"/>
      <point x="-4" y="680" type="line"/>
      <point x="-4" y="653" type="line"/>
      <point x="47" y="648" type="line" smooth="yes"/>
      <point x="68" y="645"/>
      <point x="69" y="645"/>
      <point x="90" y="605" type="curve" smooth="yes"/>
      <point x="251" y="290" type="line"/>
      <point x="251" y="81" type="line"/>
      <point x="251" y="34"/>
      <point x="250" y="34"/>
      <point x="229" y="32" type="curve" smooth="yes"/>
      <point x="174" y="26" type="line"/>
      <point x="174" y="0" type="line"/>
      <point x="415" y="0" type="line"/>
    </contour>
  </outline>
</glyph>
<glyph name="Z" format="1">
  <advance width="531"/>
  <unicode hex="005A"/>
  <outline>
    <contour>
      <point x="465" y="163" type="line"/>
      <point x="436" y="58" type="line" smooth="yes"/>
      <point x="430" y="34"/>
      <point x="429" y="32"/>
      <point x="382" y="32" type="curve"/>
      <point x="139" y="32" type="line"/>
      <point x="481" y="658" type="line"/>
      <point x="481" y="680" type="line"/>
      <point x="52" y="680" type="line"/>
      <point x="52" y="517" type="line"/>
      <point x="78" y="517" type="line"/>
      <point x="107" y="622" type="line" smooth="yes"/>
      <point x="113" y="645"/>
      <point x="114" y="648"/>
      <point x="161" y="648" type="curve"/>
      <point x="382" y="648" type="line"/>
      <point x="39" y="22" type="line"/>
      <point x="39" y="0" type="line"/>
      <point x="491" y="0" type="line"/>
      <point x="491" y="163" type="line"/>
    </contour>
  </outline>
</glyph>
<glyph name="bracketleft" format="1">
  <advance width="356"/>
  <unicode hex="005B"/>
  <outline>
    <contour>
      <point x="335" y="708" type="line"/>
      <point x="335" y="740" type="line"/>
      <point x="102" y="740" type="line"/>
      <point x="102" y="-143" type="line"/>
      <point x="335" y="-143" type="line"/>
      <point x="335" y="-111" type="line"/>
      <point x="184" y="-111" type="line"/>
      <point x="184" y="708" type="line"/>
    </contour>
  </outline>
</glyph>
<glyph name="backslash" format="1">
  <advance width="379"/>
  <unicode hex="005C"/>
  <outline>
    <contour>
      <point x="50" y="740" type="line"/>
      <point x="14" y="725" type="line"/>
      <point x="360" y="-143" type="line"/>
      <point x="396" y="-128" type="line"/>
    </contour>
  </outline>
</glyph>
<glyph name="bracketright" format="1">
  <advance width="356"/>
  <unicode hex="005D"/>
  <outline>
    <contour>
      <point x="20" y="740" type="line"/>
      <point x="20" y="708" type="line"/>
      <point x="171" y="708" type="line"/>
      <point x="171" y="-111" type="line"/>
      <point x="20" y="-111" type="line"/>
      <point x="20" y="-143" type="line"/>
      <point x="253" y="-143" type="line"/>
      <point x="253" y="740" type="line"/>
    </contour>
  </outline>
</glyph>
<glyph name="asciicircum" format="1">
  <advance width="588"/>
  <unicode hex="005E"/>
  <outline>
    <contour>
      <point x="469" y="278" type="line"/>
      <point x="308" y="680" type="line"/>
      <point x="280" y="680" type="line"/>
      <point x="119" y="278" type="line"/>
      <point x="149" y="266" type="line"/>
      <point x="293" y="628" type="line"/>
      <point x="436" y="266" type="line"/>
    </contour>
  </outline>
</glyph>
<glyph name="underscore" format="1">
  <advance width="409"/>
  <unicode hex="005F"/>
  <outline>
    <contour>
      <point x="18" y="-143" type="line"/>
      <point x="390" y="-143" type="line"/>
      <point x="390" y="-109" type="line"/>
      <point x="18" y="-109" type="line"/>
    </contour>
  </outline>
</glyph>
<glyph name="grave" format="1">
  <advance width="500"/>
  <unicode hex="0060"/>
  <outline>
    <contour>
      <point x="251" y="579" type="curve"/>
      <point x="272" y="598" type="line"/>
      <point x="239" y="643"/>
      <point x="220" y="678"/>
      <point x="204" y="740" type="curve"/>
      <point x="108" y="740" type="line"/>
      <point x="148" y="679"/>
      <point x="190" y="631"/>
    </contour>
  </outline>
</glyph>
<glyph name="a" format="1">
  <advance width="540"/>
  <unicode hex="0061"/>
  <outline>
    <contour>
      <point x="447" y="-7" type="curve" smooth="yes"/>
      <point x="484" y="-7"/>
      <point x="511" y="6"/>
      <point x="531" y="24" type="curve"/>
      <point x="513" y="49" type="line"/>
      <point x="497" y="35"/>
      <point x="484" y="30"/>
      <point x="472" y="30" type="curve" smooth="yes"/>
      <point x="453" y="30"/>
      <point x="435" y="39"/>
      <point x="435" y="107" type="curve" smooth="yes"/>
      <point x="435" y="332" type="line" smooth="yes"/>
      <point x="435" y="423"/>
      <point x="398" y="505"/>
      <point x="253" y="505" type="curve" smooth="yes"/>
      <point x="130" y="505"/>
      <point x="70" y="431"/>
      <point x="81" y="338" type="curve"/>
      <point x="160" y="326" type="line"/>
      <point x="143" y="445"/>
      <point x="190" y="473"/>
      <point x="251" y="473" type="curve" smooth="yes"/>
      <point x="314" y="473"/>
      <point x="353" y="439"/>
      <point x="353" y="332" type="curve" smooth="yes"/>
      <point x="353" y="251" type="line"/>
      <point x="240" y="251" type="line" smooth="yes"/>
      <point x="107" y="251"/>
      <point x="59" y="202"/>
      <point x="59" y="123" type="curve" smooth="yes"/>
      <point x="59" y="49"/>
      <point x="102" y="-10"/>
      <point x="195" y="-10" type="curve" smooth="yes"/>
      <point x="250" y="-10"/>
      <point x="308" y="12"/>
      <point x="355" y="65" type="curve"/>
      <point x="364" y="18"/>
      <point x="397" y="-7"/>
    </contour>
    <contour>
      <point x="223" y="32" type="curve" smooth="yes"/>
      <point x="170" y="32"/>
      <point x="144" y="67"/>
      <point x="144" y="127" type="curve" smooth="yes"/>
      <point x="144" y="190"/>
      <point x="176" y="219"/>
      <point x="251" y="219" type="curve" smooth="yes"/>
      <point x="353" y="219" type="line"/>
      <point x="353" y="110" type="line"/>
      <point x="304" y="47"/>
      <point x="260" y="32"/>
    </contour>
  </outline>
</glyph>
<glyph name="b" format="1">
  <advance width="573"/>
  <unicode hex="0062"/>
  <outline>
    <contour>
      <point x="21" y="713" type="line"/>
      <point x="76" y="708" type="line" smooth="yes"/>
      <point x="97" y="705"/>
      <point x="98" y="705"/>
      <point x="98" y="659" type="curve"/>
      <point x="98" y="-5" type="line"/>
      <point x="122" y="-5" type="line"/>
      <point x="138" y="14"/>
      <point x="153" y="30"/>
      <point x="172" y="41" type="curve"/>
      <point x="205" y="7"/>
      <point x="249" y="-10"/>
      <point x="300" y="-10" type="curve" smooth="yes"/>
      <point x="430" y="-10"/>
      <point x="507" y="86"/>
      <point x="507" y="238" type="curve" smooth="yes"/>
      <point x="507" y="258" type="line" smooth="yes"/>
      <point x="507" y="414"/>
      <point x="441" y="505"/>
      <point x="326" y="505" type="curve" smooth="yes"/>
      <point x="268" y="505"/>
      <point x="219" y="480"/>
      <point x="180" y="423" type="curve"/>
      <point x="180" y="740" type="line"/>
      <point x="21" y="740" type="line"/>
    </contour>
    <contour>
      <point x="313" y="469" type="curve" smooth="yes"/>
      <point x="379" y="469"/>
      <point x="417" y="413"/>
      <point x="417" y="288" type="curve" smooth="yes"/>
      <point x="417" y="208" type="line" smooth="yes"/>
      <point x="417" y="93"/>
      <point x="380" y="23"/>
      <point x="294" y="23" type="curve" smooth="yes"/>
      <point x="248" y="23"/>
      <point x="209" y="42"/>
      <point x="180" y="82" type="curve"/>
      <point x="180" y="368" type="line"/>
      <point x="226" y="449"/>
      <point x="272" y="469"/>
    </contour>
  </outline>
</glyph>
<glyph name="c" format="1">
  <advance width="502.0"/>
  <unicode hex="0063"/>
  <outline>
    <contour>
      <point x="269" y="473" type="curve" smooth="yes"/>
      <point x="346" y="473"/>
      <point x="381" y="413"/>
      <point x="367" y="307" type="curve"/>
      <point x="446" y="319" type="line"/>
      <point x="462" y="421"/>
      <point x="397" y="505"/>
      <point x="269" y="505" type="curve" smooth="yes"/>
      <point x="136" y="505"/>
      <point x="63" y="407"/>
      <point x="63" y="258" type="curve" smooth="yes"/>
      <point x="63" y="238" type="line" smooth="yes"/>
      <point x="63" y="87"/>
      <point x="134" y="-10"/>
      <point x="278" y="-10" type="curve" smooth="yes"/>
      <point x="356" y="-10"/>
      <point x="427" y="23"/>
      <point x="451" y="114" type="curve"/>
      <point x="398" y="129" type="line"/>
      <point x="385" y="50"/>
      <point x="346" y="22"/>
      <point x="283" y="22" type="curve" smooth="yes"/>
      <point x="191" y="22"/>
      <point x="153" y="78"/>
      <point x="153" y="218" type="curve" smooth="yes"/>
      <point x="153" y="278" type="line" smooth="yes"/>
      <point x="153" y="417"/>
      <point x="195" y="473"/>
    </contour>
  </outline>
</glyph>
<glyph name="d" format="1">
  <advance width="580"/>
  <unicode hex="0064"/>
  <outline>
    <contour>
      <point x="552" y="25" type="line"/>
      <point x="497" y="32" type="line" smooth="yes"/>
      <point x="476" y="34"/>
      <point x="475" y="34"/>
      <point x="475" y="81" type="curve"/>
      <point x="475" y="740" type="line"/>
      <point x="316" y="740" type="line"/>
      <point x="316" y="713" type="line"/>
      <point x="371" y="708" type="line" smooth="yes"/>
      <point x="392" y="705"/>
      <point x="393" y="705"/>
      <point x="393" y="659" type="curve"/>
      <point x="393" y="461" type="line"/>
      <point x="361" y="490"/>
      <point x="319" y="505"/>
      <point x="273" y="505" type="curve" smooth="yes"/>
      <point x="143" y="505"/>
      <point x="65" y="408"/>
      <point x="65" y="257" type="curve" smooth="yes"/>
      <point x="65" y="237" type="line" smooth="yes"/>
      <point x="65" y="80"/>
      <point x="131" y="-10"/>
      <point x="246" y="-10" type="curve" smooth="yes"/>
      <point x="307" y="-10"/>
      <point x="357" y="17"/>
      <point x="398" y="79" type="curve"/>
      <point x="398" y="0" type="line"/>
      <point x="552" y="0" type="line"/>
    </contour>
    <contour>
      <point x="155" y="207" type="curve" smooth="yes"/>
      <point x="155" y="287" type="line" smooth="yes"/>
      <point x="155" y="402"/>
      <point x="192" y="471"/>
      <point x="278" y="471" type="curve" smooth="yes"/>
      <point x="325" y="471"/>
      <point x="363" y="452"/>
      <point x="393" y="412" type="curve"/>
      <point x="393" y="126" type="line"/>
      <point x="347" y="45"/>
      <point x="301" y="25"/>
      <point x="259" y="25" type="curve" smooth="yes"/>
      <point x="194" y="25"/>
      <point x="155" y="81"/>
    </contour>
  </outline>
</glyph>
<glyph name="f" format="1">
  <advance width="358"/>
  <unicode hex="0066"/>
  <outline>
    <contour>
      <point x="291" y="26" type="line"/>
      <point x="216" y="32" type="line" smooth="yes"/>
      <point x="195" y="33"/>
      <point x="194" y="34"/>
      <point x="194" y="81" type="curve"/>
      <point x="194" y="463" type="line"/>
      <point x="353" y="463" type="line"/>
      <point x="353" y="495" type="line"/>
      <point x="194" y="495" type="line"/>
      <point x="194" y="581" type="line" smooth="yes"/>
      <point x="194" y="691"/>
      <point x="224" y="718"/>
      <point x="276" y="718" type="curve" smooth="yes"/>
      <point x="337" y="718"/>
      <point x="362" y="676"/>
      <point x="350" y="584" type="curve"/>
      <point x="428" y="595" type="line"/>
      <point x="442" y="682"/>
      <point x="386" y="750"/>
      <point x="276" y="750" type="curve" smooth="yes"/>
      <point x="149" y="750"/>
      <point x="112" y="661"/>
      <point x="112" y="567" type="curve" smooth="yes"/>
      <point x="112" y="495" type="line"/>
      <point x="35" y="495" type="line"/>
      <point x="35" y="468" type="line"/>
      <point x="90" y="463" type="line" smooth="yes"/>
      <point x="112" y="460"/>
      <point x="112" y="460"/>
      <point x="112" y="414" type="curve"/>
      <point x="112" y="81" type="line"/>
      <point x="112" y="34"/>
      <point x="111" y="34"/>
      <point x="90" y="32" type="curve" smooth="yes"/>
      <point x="35" y="26" type="line"/>
      <point x="35" y="0" type="line"/>
      <point x="291" y="0" type="line"/>
    </contour>
  </outline>
</glyph>
<glyph name="g" format="1">
  <advance width="540"/>
  <unicode hex="0067"/>
  <outline>
    <contour>
      <point x="501" y="-58" type="curve" smooth="yes"/>
      <point x="501" y="30"/>
      <point x="443" y="76"/>
      <point x="338" y="76" type="curve" smooth="yes"/>
      <point x="208" y="76" type="line" smooth="yes"/>
      <point x="165" y="76"/>
      <point x="147" y="93"/>
      <point x="147" y="120" type="curve" smooth="yes"/>
      <point x="147" y="142"/>
      <point x="158" y="164"/>
      <point x="188" y="184" type="curve"/>
      <point x="208" y="179"/>
      <point x="229" y="176"/>
      <point x="252" y="176" type="curve" smooth="yes"/>
      <point x="269" y="176" type="line" smooth="yes"/>
      <point x="372" y="176"/>
      <point x="456" y="233"/>
      <point x="456" y="340" type="curve" smooth="yes"/>
      <point x="456" y="393"/>
      <point x="437" y="433"/>
      <point x="406" y="460" type="curve"/>
      <point x="523" y="460" type="line"/>
      <point x="512" y="535" type="line"/>
      <point x="367" y="485" type="line"/>
      <point x="339" y="498"/>
      <point x="305" y="505"/>
      <point x="269" y="505" type="curve" smooth="yes"/>
      <point x="252" y="505" type="line" smooth="yes"/>
      <point x="148" y="505"/>
      <point x="64" y="450"/>
      <point x="64" y="340" type="curve" smooth="yes"/>
      <point x="64" y="270"/>
      <point x="100" y="221"/>
      <point x="154" y="196" type="curve"/>
      <point x="111" y="163"/>
      <point x="93" y="129"/>
      <point x="93" y="91" type="curve" smooth="yes"/>
      <point x="93" y="44"/>
      <point x="125" y="-1"/>
      <point x="214" y="-1" type="curve" smooth="yes"/>
      <point x="333" y="-1" type="line" smooth="yes"/>
      <point x="415" y="-1"/>
      <point x="449" y="-28"/>
      <point x="449" y="-81" type="curve" smooth="yes"/>
      <point x="449" y="-153"/>
      <point x="381" y="-191"/>
      <point x="280" y="-191" type="curve" smooth="yes"/>
      <point x="167" y="-191"/>
      <point x="127" y="-143"/>
      <point x="132" y="-69" type="curve"/>
      <point x="58" y="-84" type="line"/>
      <point x="61" y="-164"/>
      <point x="128" y="-223"/>
      <point x="280" y="-223" type="curve" smooth="yes"/>
      <point x="418" y="-223"/>
      <point x="501" y="-165"/>
    </contour>
    <contour>
      <point x="269" y="208" type="curve" smooth="yes"/>
      <point x="252" y="208" type="line" smooth="yes"/>
      <point x="198" y="208"/>
      <point x="151" y="238"/>
      <point x="151" y="340" type="curve" smooth="yes"/>
      <point x="151" y="443"/>
      <point x="198" y="473"/>
      <point x="252" y="473" type="curve" smooth="yes"/>
      <point x="269" y="473" type="line" smooth="yes"/>
      <point x="322" y="473"/>
      <point x="369" y="443"/>
      <point x="369" y="340" type="curve" smooth="yes"/>
      <point x="369" y="238"/>
      <point x="322" y="208"/>
    </contour>
  </outline>
</glyph>
<glyph name="i" format="1">
  <advance width="299"/>
  <unicode hex="0069"/>
  <outline>
    <contour>
      <point x="152" y="607" type="curve" smooth="yes"/>
      <point x="184" y="607"/>
      <point x="207" y="630"/>
      <point x="207" y="663" type="curve" smooth="yes"/>
      <point x="207" y="695"/>
      <point x="184" y="717"/>
      <point x="152" y="717" type="curve" smooth="yes"/>
      <point x="120" y="717"/>
      <point x="97" y="695"/>
      <point x="97" y="663" type="curve" smooth="yes"/>
      <point x="97" y="630"/>
      <point x="120" y="607"/>
    </contour>
    <contour>
      <point x="35" y="468" type="line"/>
      <point x="90" y="463" type="line" smooth="yes"/>
      <point x="111" y="460"/>
      <point x="112" y="460"/>
      <point x="112" y="414" type="curve"/>
      <point x="112" y="81" type="line"/>
      <point x="112" y="34"/>
      <point x="111" y="34"/>
      <point x="90" y="32" type="curve" smooth="yes"/>
      <point x="35" y="26" type="line"/>
      <point x="35" y="0" type="line"/>
      <point x="271" y="0" type="line"/>
      <point x="271" y="26" type="line"/>
      <point x="216" y="32" type="line" smooth="yes"/>
      <point x="195" y="34"/>
      <point x="194" y="34"/>
      <point x="194" y="81" type="curve"/>
      <point x="194" y="495" type="line"/>
      <point x="35" y="495" type="line"/>
    </contour>
  </outline>
</glyph>
<glyph name="j" format="1">
  <advance width="285"/>
  <unicode hex="006A"/>
  <outline>
    <contour>
      <point x="145" y="607" type="curve" smooth="yes"/>
      <point x="177" y="607"/>
      <point x="200" y="630"/>
      <point x="200" y="663" type="curve" smooth="yes"/>
      <point x="200" y="695"/>
      <point x="177" y="717"/>
      <point x="145" y="717" type="curve" smooth="yes"/>
      <point x="113" y="717"/>
      <point x="90" y="695"/>
      <point x="90" y="663" type="curve" smooth="yes"/>
      <point x="90" y="630"/>
      <point x="113" y="607"/>
    </contour>
    <contour>
      <point x="28" y="468" type="line"/>
      <point x="83" y="463" type="line" smooth="yes"/>
      <point x="104" y="460"/>
      <point x="105" y="460"/>
      <point x="105" y="414" type="curve"/>
      <point x="105" y="-60" type="line" smooth="yes"/>
      <point x="105" y="-162"/>
      <point x="79" y="-191"/>
      <point x="32" y="-191" type="curve" smooth="yes"/>
      <point x="-5" y="-191"/>
      <point x="-31" y="-168"/>
      <point x="-36" y="-91" type="curve"/>
      <point x="-90" y="-106" type="line"/>
      <point x="-78" y="-191"/>
      <point x="-27" y="-223"/>
      <point x="38" y="-223" type="curve" smooth="yes"/>
      <point x="146" y="-223"/>
      <point x="187" y="-142"/>
      <point x="187" y="-52" type="curve" smooth="yes"/>
      <point x="187" y="495" type="line"/>
      <point x="28" y="495" type="line"/>
    </contour>
  </outline>
</glyph>
<glyph name="k" format="1">
  <advance width="562"/>
  <unicode hex="006B"/>
  <outline>
    <contour>
      <point x="28" y="713" type="line"/>
      <point x="83" y="708" type="line" smooth="yes"/>
      <point x="104" y="705"/>
      <point x="105" y="705"/>
      <point x="105" y="659" type="curve"/>
      <point x="105" y="81" type="line"/>
      <point x="105" y="34"/>
      <point x="104" y="34"/>
      <point x="83" y="32" type="curve" smooth="yes"/>
      <point x="28" y="26" type="line"/>
      <point x="28" y="0" type="line"/>
      <point x="264" y="0" type="line"/>
      <point x="264" y="26" type="line"/>
      <point x="209" y="32" type="line" smooth="yes"/>
      <point x="188" y="34"/>
      <point x="187" y="34"/>
      <point x="187" y="81" type="curve"/>
      <point x="187" y="181" type="line"/>
      <point x="257" y="252" type="line"/>
      <point x="409" y="0" type="line"/>
      <point x="560" y="0" type="line"/>
      <point x="560" y="26" type="line"/>
      <point x="508" y="32" type="line" smooth="yes"/>
      <point x="487" y="34"/>
      <point x="485" y="35"/>
      <point x="460" y="75" type="curve" smooth="yes"/>
      <point x="313" y="309" type="line"/>
      <point x="423" y="420" type="line" smooth="yes"/>
      <point x="463" y="459"/>
      <point x="464" y="460"/>
      <point x="483" y="463" type="curve" smooth="yes"/>
      <point x="534" y="468" type="line"/>
      <point x="534" y="495" type="line"/>
      <point x="341" y="495" type="line"/>
      <point x="341" y="468" type="line"/>
      <point x="392" y="463" type="line" smooth="yes"/>
      <point x="415" y="460"/>
      <point x="415" y="459"/>
      <point x="376" y="420" type="curve" smooth="yes"/>
      <point x="187" y="228" type="line"/>
      <point x="187" y="740" type="line"/>
      <point x="28" y="740" type="line"/>
    </contour>
  </outline>
</glyph>
<glyph name="l" format="1">
  <advance width="293"/>
  <unicode hex="006C"/>
  <outline>
    <contour>
      <point x="28" y="713" type="line"/>
      <point x="83" y="708" type="line" smooth="yes"/>
      <point x="104" y="705"/>
      <point x="105" y="705"/>
      <point x="105" y="659" type="curve"/>
      <point x="105" y="81" type="line"/>
      <point x="105" y="34"/>
      <point x="104" y="34"/>
      <point x="83" y="32" type="curve" smooth="yes"/>
      <point x="28" y="26" type="line"/>
      <point x="28" y="0" type="line"/>
      <point x="264" y="0" type="line"/>
      <point x="264" y="26" type="line"/>
      <point x="209" y="32" type="line" smooth="yes"/>
      <point x="188" y="34"/>
      <point x="187" y="34"/>
      <point x="187" y="81" type="curve"/>
      <point x="187" y="740" type="line"/>
      <point x="28" y="740" type="line"/>
    </contour>
  </outline>
</glyph>
<glyph name="m" format="1">
  <advance width="920"/>
  <unicode hex="006D"/>
  <outline>
    <contour>
      <point x="584" y="26" type="line"/>
      <point x="529" y="32" type="line" smooth="yes"/>
      <point x="508" y="34"/>
      <point x="507" y="34"/>
      <point x="507" y="81" type="curve"/>
      <point x="507" y="331" type="line" smooth="yes"/>
      <point x="507" y="343"/>
      <point x="506" y="354"/>
      <point x="505" y="365" type="curve"/>
      <point x="552" y="444"/>
      <point x="608" y="465"/>
      <point x="650" y="465" type="curve" smooth="yes"/>
      <point x="707" y="465"/>
      <point x="738" y="428"/>
      <point x="738" y="330" type="curve" smooth="yes"/>
      <point x="738" y="81" type="line"/>
      <point x="738" y="34"/>
      <point x="737" y="34"/>
      <point x="716" y="32" type="curve" smooth="yes"/>
      <point x="661" y="26" type="line"/>
      <point x="661" y="0" type="line"/>
      <point x="897" y="0" type="line"/>
      <point x="897" y="26" type="line"/>
      <point x="842" y="32" type="line" smooth="yes"/>
      <point x="821" y="34"/>
      <point x="820" y="34"/>
      <point x="820" y="81" type="curve"/>
      <point x="820" y="331" type="line" smooth="yes"/>
      <point x="820" y="441"/>
      <point x="765" y="505"/>
      <point x="670" y="505" type="curve" smooth="yes"/>
      <point x="609" y="505"/>
      <point x="545" y="475"/>
      <point x="496" y="406" type="curve"/>
      <point x="476" y="470"/>
      <point x="428" y="505"/>
      <point x="357" y="505" type="curve" smooth="yes"/>
      <point x="298" y="505"/>
      <point x="236" y="477"/>
      <point x="189" y="414" type="curve"/>
      <point x="189" y="495" type="line"/>
      <point x="35" y="495" type="line"/>
      <point x="35" y="468" type="line"/>
      <point x="90" y="463" type="line" smooth="yes"/>
      <point x="111" y="460"/>
      <point x="112" y="460"/>
      <point x="112" y="414" type="curve"/>
      <point x="112" y="81" type="line"/>
      <point x="112" y="34"/>
      <point x="111" y="34"/>
      <point x="90" y="32" type="curve" smooth="yes"/>
      <point x="35" y="26" type="line"/>
      <point x="35" y="0" type="line"/>
      <point x="271" y="0" type="line"/>
      <point x="271" y="26" type="line"/>
      <point x="216" y="32" type="line" smooth="yes"/>
      <point x="195" y="34"/>
      <point x="194" y="34"/>
      <point x="194" y="81" type="curve"/>
      <point x="194" y="368" type="line"/>
      <point x="240" y="444"/>
      <point x="295" y="465"/>
      <point x="337" y="465" type="curve" smooth="yes"/>
      <point x="394" y="465"/>
      <point x="425" y="428"/>
      <point x="425" y="330" type="curve" smooth="yes"/>
      <point x="425" y="81" type="line"/>
      <point x="425" y="34"/>
      <point x="424" y="34"/>
      <point x="403" y="32" type="curve" smooth="yes"/>
      <point x="348" y="26" type="line"/>
      <point x="348" y="0" type="line"/>
      <point x="584" y="0" type="line"/>
    </contour>
  </outline>
</glyph>
<glyph name="n" format="1">
  <advance width="617"/>
  <unicode hex="006E"/>
  <outline>
    <contour>
      <point x="594" y="26" type="line"/>
      <point x="539" y="32" type="line" smooth="yes"/>
      <point x="518" y="34"/>
      <point x="517" y="34"/>
      <point x="517" y="81" type="curve"/>
      <point x="517" y="331" type="line" smooth="yes"/>
      <point x="517" y="441"/>
      <point x="460" y="505"/>
      <point x="362" y="505" type="curve" smooth="yes"/>
      <point x="301" y="505"/>
      <point x="237" y="478"/>
      <point x="189" y="414" type="curve"/>
      <point x="189" y="495" type="line"/>
      <point x="35" y="495" type="line"/>
      <point x="35" y="468" type="line"/>
      <point x="90" y="463" type="line" smooth="yes"/>
      <point x="111" y="460"/>
      <point x="112" y="460"/>
      <point x="112" y="414" type="curve"/>
      <point x="112" y="81" type="line"/>
      <point x="112" y="34"/>
      <point x="111" y="34"/>
      <point x="90" y="32" type="curve" smooth="yes"/>
      <point x="35" y="26" type="line"/>
      <point x="35" y="0" type="line"/>
      <point x="271" y="0" type="line"/>
      <point x="271" y="26" type="line"/>
      <point x="216" y="32" type="line" smooth="yes"/>
      <point x="195" y="34"/>
      <point x="194" y="34"/>
      <point x="194" y="81" type="curve"/>
      <point x="194" y="367" type="line"/>
      <point x="241" y="444"/>
      <point x="298" y="465"/>
      <point x="342" y="465" type="curve" smooth="yes"/>
      <point x="402" y="465"/>
      <point x="435" y="428"/>
      <point x="435" y="330" type="curve" smooth="yes"/>
      <point x="435" y="81" type="line"/>
      <point x="435" y="34"/>
      <point x="434" y="34"/>
      <point x="413" y="32" type="curve" smooth="yes"/>
      <point x="358" y="26" type="line"/>
      <point x="358" y="0" type="line"/>
      <point x="594" y="0" type="line"/>
    </contour>
  </outline>
</glyph>
<glyph name="o" format="1">
  <advance width="557"/>
  <unicode hex="006F"/>
  <outline>
    <contour>
      <point x="495" y="258" type="line" smooth="yes"/>
      <point x="495" y="407"/>
      <point x="416" y="505"/>
      <point x="278" y="505" type="curve" smooth="yes"/>
      <point x="139" y="505"/>
      <point x="62" y="407"/>
      <point x="62" y="258" type="curve" smooth="yes"/>
      <point x="62" y="238" type="line" smooth="yes"/>
      <point x="62" y="87"/>
      <point x="140" y="-10"/>
      <point x="278" y="-10" type="curve" smooth="yes"/>
      <point x="416" y="-10"/>
      <point x="495" y="87"/>
      <point x="495" y="238" type="curve" smooth="yes"/>
    </contour>
    <contour>
      <point x="405" y="278" type="curve" smooth="yes"/>
      <point x="405" y="218" type="line" smooth="yes"/>
      <point x="405" y="78"/>
      <point x="360" y="22"/>
      <point x="278" y="22" type="curve" smooth="yes"/>
      <point x="197" y="22"/>
      <point x="152" y="78"/>
      <point x="152" y="218" type="curve" smooth="yes"/>
      <point x="152" y="278" type="line" smooth="yes"/>
      <point x="152" y="417"/>
      <point x="197" y="473"/>
      <point x="278" y="473" type="curve" smooth="yes"/>
      <point x="360" y="473"/>
      <point x="405" y="417"/>
    </contour>
  </outline>
</glyph>
<glyph name="p" format="1">
  <advance width="580"/>
  <unicode hex="0070"/>
  <outline>
    <contour>
      <point x="28" y="469" type="line"/>
      <point x="83" y="463" type="line" smooth="yes"/>
      <point x="104" y="460"/>
      <point x="105" y="460"/>
      <point x="105" y="414" type="curve"/>
      <point x="105" y="-132" type="line"/>
      <point x="105" y="-178"/>
      <point x="104" y="-178"/>
      <point x="83" y="-181" type="curve" smooth="yes"/>
      <point x="28" y="-186" type="line"/>
      <point x="28" y="-213" type="line"/>
      <point x="284" y="-213" type="line"/>
      <point x="284" y="-186" type="line"/>
      <point x="209" y="-181" type="line" smooth="yes"/>
      <point x="188" y="-179"/>
      <point x="187" y="-178"/>
      <point x="187" y="-132" type="curve"/>
      <point x="187" y="33" type="line"/>
      <point x="219" y="5"/>
      <point x="260" y="-10"/>
      <point x="306" y="-10" type="curve" smooth="yes"/>
      <point x="437" y="-10"/>
      <point x="514" y="86"/>
      <point x="514" y="238" type="curve" smooth="yes"/>
      <point x="514" y="258" type="line" smooth="yes"/>
      <point x="514" y="414"/>
      <point x="448" y="505"/>
      <point x="333" y="505" type="curve" smooth="yes"/>
      <point x="272" y="505"/>
      <point x="222" y="478"/>
      <point x="182" y="415" type="curve"/>
      <point x="182" y="495" type="line"/>
      <point x="28" y="495" type="line"/>
    </contour>
    <contour>
      <point x="320" y="469" type="curve" smooth="yes"/>
      <point x="386" y="469"/>
      <point x="424" y="413"/>
      <point x="424" y="288" type="curve" smooth="yes"/>
      <point x="424" y="208" type="line" smooth="yes"/>
      <point x="424" y="93"/>
      <point x="387" y="23"/>
      <point x="301" y="23" type="curve" smooth="yes"/>
      <point x="255" y="23"/>
      <point x="216" y="42"/>
      <point x="187" y="82" type="curve"/>
      <point x="187" y="368" type="line"/>
      <point x="233" y="449"/>
      <point x="279" y="469"/>
    </contour>
  </outline>
</glyph>
<glyph name="q" format="1">
  <advance width="573"/>
  <unicode hex="0071"/>
  <outline>
    <contour>
      <point x="552" y="-186" type="line"/>
      <point x="497" y="-181" type="line" smooth="yes"/>
      <point x="476" y="-178"/>
      <point x="475" y="-178"/>
      <point x="475" y="-132" type="curve"/>
      <point x="475" y="500" type="line"/>
      <point x="451" y="500" type="line"/>
      <point x="435" y="480"/>
      <point x="419" y="465"/>
      <point x="400" y="454" type="curve"/>
      <point x="367" y="487"/>
      <point x="323" y="505"/>
      <point x="273" y="505" type="curve" smooth="yes"/>
      <point x="143" y="505"/>
      <point x="65" y="408"/>
      <point x="65" y="257" type="curve" smooth="yes"/>
      <point x="65" y="237" type="line" smooth="yes"/>
      <point x="65" y="80"/>
      <point x="131" y="-10"/>
      <point x="246" y="-10" type="curve" smooth="yes"/>
      <point x="305" y="-10"/>
      <point x="353" y="15"/>
      <point x="393" y="72" type="curve"/>
      <point x="393" y="-132" type="line"/>
      <point x="393" y="-178"/>
      <point x="392" y="-179"/>
      <point x="371" y="-181" type="curve" smooth="yes"/>
      <point x="296" y="-186" type="line"/>
      <point x="296" y="-213" type="line"/>
      <point x="552" y="-213" type="line"/>
    </contour>
    <contour>
      <point x="155" y="207" type="curve" smooth="yes"/>
      <point x="155" y="287" type="line" smooth="yes"/>
      <point x="155" y="402"/>
      <point x="192" y="471"/>
      <point x="278" y="471" type="curve" smooth="yes"/>
      <point x="325" y="471"/>
      <point x="363" y="452"/>
      <point x="393" y="412" type="curve"/>
      <point x="393" y="126" type="line"/>
      <point x="347" y="45"/>
      <point x="301" y="25"/>
      <point x="259" y="25" type="curve" smooth="yes"/>
      <point x="194" y="25"/>
      <point x="155" y="81"/>
    </contour>
  </outline>
</glyph>
<glyph name="r" format="1">
  <advance width="439"/>
  <unicode hex="0072"/>
  <outline>
    <contour>
      <point x="35" y="468" type="line"/>
      <point x="90" y="463" type="line" smooth="yes"/>
      <point x="111" y="460"/>
      <point x="112" y="460"/>
      <point x="112" y="414" type="curve"/>
      <point x="112" y="81" type="line"/>
      <point x="112" y="34"/>
      <point x="111" y="34"/>
      <point x="90" y="32" type="curve" smooth="yes"/>
      <point x="35" y="26" type="line"/>
      <point x="35" y="0" type="line"/>
      <point x="291" y="0" type="line"/>
      <point x="291" y="26" type="line"/>
      <point x="216" y="32" type="line" smooth="yes"/>
      <point x="195" y="33"/>
      <point x="194" y="34"/>
      <point x="194" y="81" type="curve"/>
      <point x="194" y="374" type="line"/>
      <point x="234" y="432"/>
      <point x="264" y="450"/>
      <point x="298" y="450" type="curve" smooth="yes"/>
      <point x="329" y="450"/>
      <point x="354" y="434"/>
      <point x="374" y="386" type="curve"/>
      <point x="439" y="425" type="line"/>
      <point x="414" y="481"/>
      <point x="375" y="505"/>
      <point x="332" y="505" type="curve" smooth="yes"/>
      <point x="282" y="505"/>
      <point x="236" y="477"/>
      <point x="189" y="415" type="curve"/>
      <point x="189" y="495" type="line"/>
      <point x="35" y="495" type="line"/>
    </contour>
  </outline>
</glyph>
<glyph name="s" format="1">
  <advance width="474"/>
  <unicode hex="0073"/>
  <outline>
    <contour>
      <point x="246" y="202" type="line" smooth="yes"/>
      <point x="323" y="182"/>
      <point x="348" y="151"/>
      <point x="348" y="109" type="curve" smooth="yes"/>
      <point x="348" y="47"/>
      <point x="293" y="21"/>
      <point x="237" y="21" type="curve" smooth="yes"/>
      <point x="173" y="21"/>
      <point x="119" y="50"/>
      <point x="104" y="134" type="curve"/>
      <point x="48" y="114" type="line"/>
      <point x="73" y="26"/>
      <point x="153" y="-10"/>
      <point x="236" y="-10" type="curve" smooth="yes"/>
      <point x="351" y="-10"/>
      <point x="415" y="49"/>
      <point x="415" y="134" type="curve" smooth="yes"/>
      <point x="415" y="210"/>
      <point x="364" y="255"/>
      <point x="276" y="277" type="curve" smooth="yes"/>
      <point x="213" y="292" type="line" smooth="yes"/>
      <point x="150" y="308"/>
      <point x="126" y="342"/>
      <point x="126" y="385" type="curve" smooth="yes"/>
      <point x="126" y="442"/>
      <point x="165" y="473"/>
      <point x="225" y="473" type="curve" smooth="yes"/>
      <point x="302" y="473"/>
      <point x="338" y="423"/>
      <point x="322" y="336" type="curve"/>
      <point x="400" y="350" type="line"/>
      <point x="412" y="431"/>
      <point x="359" y="505"/>
      <point x="228" y="505" type="curve" smooth="yes"/>
      <point x="109" y="505"/>
      <point x="60" y="435"/>
      <point x="60" y="361" type="curve" smooth="yes"/>
      <point x="60" y="288"/>
      <point x="103" y="238"/>
      <point x="185" y="217" type="curve" smooth="yes"/>
    </contour>
  </outline>
</glyph>
<glyph name="t" format="1">
  <advance width="387"/>
  <unicode hex="0074"/>
  <outline>
    <contour>
      <point x="365" y="102" type="curve"/>
      <point x="313" y="116" type="line"/>
      <point x="304" y="49"/>
      <point x="285" y="22"/>
      <point x="246" y="22" type="curve" smooth="yes"/>
      <point x="207" y="22"/>
      <point x="182" y="49"/>
      <point x="182" y="133" type="curve" smooth="yes"/>
      <point x="182" y="463" type="line"/>
      <point x="345" y="463" type="line"/>
      <point x="345" y="495" type="line"/>
      <point x="182" y="495" type="line"/>
      <point x="182" y="643" type="line"/>
      <point x="100" y="626" type="line"/>
      <point x="100" y="495" type="line"/>
      <point x="23" y="495" type="line"/>
      <point x="23" y="468" type="line"/>
      <point x="78" y="463" type="line" smooth="yes"/>
      <point x="100" y="460"/>
      <point x="100" y="460"/>
      <point x="100" y="414" type="curve"/>
      <point x="100" y="141" type="line" smooth="yes"/>
      <point x="100" y="64"/>
      <point x="140" y="-10"/>
      <point x="236" y="-10" type="curve" smooth="yes"/>
      <point x="303" y="-10"/>
      <point x="345" y="24"/>
    </contour>
  </outline>
</glyph>
<glyph name="u" format="1">
  <advance width="599"/>
  <unicode hex="0075"/>
  <outline>
    <contour>
      <point x="570" y="26" type="line"/>
      <point x="515" y="32" type="line" smooth="yes"/>
      <point x="494" y="34"/>
      <point x="493" y="34"/>
      <point x="493" y="81" type="curve"/>
      <point x="493" y="495" type="line"/>
      <point x="314" y="495" type="line"/>
      <point x="314" y="468" type="line"/>
      <point x="389" y="463" type="line" smooth="yes"/>
      <point x="410" y="461"/>
      <point x="411" y="460"/>
      <point x="411" y="414" type="curve"/>
      <point x="411" y="127" type="line"/>
      <point x="365" y="51"/>
      <point x="310" y="30"/>
      <point x="268" y="30" type="curve" smooth="yes"/>
      <point x="211" y="30"/>
      <point x="180" y="66"/>
      <point x="180" y="165" type="curve" smooth="yes"/>
      <point x="180" y="495" type="line"/>
      <point x="21" y="495" type="line"/>
      <point x="21" y="468" type="line"/>
      <point x="76" y="463" type="line" smooth="yes"/>
      <point x="97" y="460"/>
      <point x="98" y="460"/>
      <point x="98" y="414" type="curve"/>
      <point x="98" y="164" type="line" smooth="yes"/>
      <point x="98" y="53"/>
      <point x="153" y="-10"/>
      <point x="248" y="-10" type="curve" smooth="yes"/>
      <point x="307" y="-10"/>
      <point x="369" y="17"/>
      <point x="416" y="80" type="curve"/>
      <point x="416" y="0" type="line"/>
      <point x="570" y="0" type="line"/>
    </contour>
  </outline>
</glyph>
<glyph name="v" format="1">
  <advance width="527"/>
  <unicode hex="0076"/>
  <outline>
    <contour>
      <point x="443" y="420" type="line"/>
      <point x="456" y="460"/>
      <point x="457" y="460"/>
      <point x="478" y="463" type="curve" smooth="yes"/>
      <point x="529" y="468" type="line"/>
      <point x="529" y="495" type="line"/>
      <point x="347" y="495" type="line"/>
      <point x="347" y="468" type="line"/>
      <point x="399" y="463" type="line" smooth="yes"/>
      <point x="420" y="460"/>
      <point x="420" y="460"/>
      <point x="407" y="420" type="curve"/>
      <point x="288" y="72" type="line"/>
      <point x="167" y="420" type="line" smooth="yes"/>
      <point x="153" y="460"/>
      <point x="154" y="460"/>
      <point x="175" y="463" type="curve" smooth="yes"/>
      <point x="226" y="468" type="line"/>
      <point x="226" y="495" type="line"/>
      <point x="-2" y="495" type="line"/>
      <point x="-2" y="468" type="line"/>
      <point x="49" y="463" type="line" smooth="yes"/>
      <point x="70" y="460"/>
      <point x="71" y="459"/>
      <point x="85" y="420" type="curve" smooth="yes"/>
      <point x="232" y="0" type="line"/>
      <point x="297" y="0" type="line"/>
    </contour>
  </outline>
</glyph>
<glyph name="w" format="1">
  <advance width="774"/>
  <unicode hex="0077"/>
  <outline>
    <contour>
      <point x="693" y="420" type="line" smooth="yes"/>
      <point x="704" y="459"/>
      <point x="705" y="460"/>
      <point x="725" y="463" type="curve" smooth="yes"/>
      <point x="776" y="468" type="line"/>
      <point x="776" y="495" type="line"/>
      <point x="593" y="495" type="line"/>
      <point x="593" y="468" type="line"/>
      <point x="645" y="463" type="line" smooth="yes"/>
      <point x="666" y="460"/>
      <point x="667" y="459"/>
      <point x="656" y="420" type="curve" smooth="yes"/>
      <point x="569" y="84" type="line"/>
      <point x="440" y="495" type="line"/>
      <point x="375" y="495" type="line"/>
      <point x="248" y="90" type="line"/>
      <point x="162" y="420" type="line" smooth="yes"/>
      <point x="151" y="459"/>
      <point x="152" y="460"/>
      <point x="173" y="463" type="curve" smooth="yes"/>
      <point x="225" y="468" type="line"/>
      <point x="225" y="495" type="line"/>
      <point x="-2" y="495" type="line"/>
      <point x="-2" y="468" type="line"/>
      <point x="49" y="463" type="line" smooth="yes"/>
      <point x="70" y="460"/>
      <point x="71" y="459"/>
      <point x="81" y="420" type="curve" smooth="yes"/>
      <point x="192" y="0" type="line"/>
      <point x="254" y="0" type="line"/>
      <point x="385" y="413" type="line"/>
      <point x="516" y="0" type="line"/>
      <point x="581" y="0" type="line"/>
    </contour>
  </outline>
</glyph>
<glyph name="x" format="1">
  <advance width="523"/>
  <unicode hex="0078"/>
  <outline>
    <contour>
      <point x="199" y="26" type="line"/>
      <point x="148" y="32" type="line" smooth="yes"/>
      <point x="128" y="34"/>
      <point x="125" y="35"/>
      <point x="152" y="75" type="curve" smooth="yes"/>
      <point x="244" y="209" type="line"/>
      <point x="327" y="75" type="line" smooth="yes"/>
      <point x="352" y="34"/>
      <point x="351" y="34"/>
      <point x="330" y="32" type="curve" smooth="yes"/>
      <point x="279" y="26" type="line"/>
      <point x="279" y="0" type="line"/>
      <point x="514" y="0" type="line"/>
      <point x="514" y="26" type="line"/>
      <point x="462" y="32" type="line" smooth="yes"/>
      <point x="442" y="34"/>
      <point x="440" y="35"/>
      <point x="416" y="75" type="curve" smooth="yes"/>
      <point x="299" y="264" type="line"/>
      <point x="407" y="420" type="line" smooth="yes"/>
      <point x="434" y="459"/>
      <point x="435" y="460"/>
      <point x="456" y="463" type="curve" smooth="yes"/>
      <point x="507" y="468" type="line"/>
      <point x="507" y="495" type="line"/>
      <point x="317" y="495" type="line"/>
      <point x="317" y="468" type="line"/>
      <point x="368" y="463" type="line" smooth="yes"/>
      <point x="388" y="460"/>
      <point x="391" y="459"/>
      <point x="364" y="420" type="curve" smooth="yes"/>
      <point x="279" y="296" type="line"/>
      <point x="202" y="420" type="line" smooth="yes"/>
      <point x="177" y="460"/>
      <point x="178" y="460"/>
      <point x="199" y="463" type="curve" smooth="yes"/>
      <point x="250" y="468" type="line"/>
      <point x="250" y="495" type="line"/>
      <point x="15" y="495" type="line"/>
      <point x="15" y="468" type="line"/>
      <point x="67" y="463" type="line" smooth="yes"/>
      <point x="87" y="460"/>
      <point x="89" y="460"/>
      <point x="113" y="420" type="curve" smooth="yes"/>
      <point x="224" y="241" type="line"/>
      <point x="109" y="75" type="line" smooth="yes"/>
      <point x="82" y="35"/>
      <point x="81" y="34"/>
      <point x="60" y="32" type="curve" smooth="yes"/>
      <point x="9" y="26" type="line"/>
      <point x="9" y="0" type="line"/>
      <point x="199" y="0" type="line"/>
    </contour>
  </outline>
</glyph>
<glyph name="y" format="1">
  <advance width="528"/>
  <unicode hex="0079"/>
  <outline>
    <contour>
      <point x="280" y="-50" type="curve" smooth="yes"/>
      <point x="444" y="421" type="line" smooth="yes"/>
      <point x="457" y="459"/>
      <point x="459" y="459"/>
      <point x="479" y="462" type="curve" smooth="yes"/>
      <point x="530" y="468" type="line"/>
      <point x="530" y="495" type="line"/>
      <point x="347" y="495" type="line"/>
      <point x="347" y="468" type="line"/>
      <point x="399" y="462" type="line" smooth="yes"/>
      <point x="419" y="459"/>
      <point x="420" y="459"/>
      <point x="408" y="421" type="curve" smooth="yes"/>
      <point x="287" y="74" type="line"/>
      <point x="167" y="420" type="line" smooth="yes"/>
      <point x="154" y="458"/>
      <point x="156" y="460"/>
      <point x="175" y="462" type="curve" smooth="yes"/>
      <point x="226" y="468" type="line"/>
      <point x="226" y="495" type="line"/>
      <point x="-2" y="495" type="line"/>
      <point x="-2" y="468" type="line"/>
      <point x="49" y="462" type="line" smooth="yes"/>
      <point x="70" y="459"/>
      <point x="72" y="458"/>
      <point x="85" y="420" type="curve" smooth="yes"/>
      <point x="232" y="0" type="line"/>
      <point x="261" y="0" type="line"/>
      <point x="248" y="-37" type="line" smooth="yes"/>
      <point x="219" y="-119"/>
      <point x="176" y="-143"/>
      <point x="80" y="-143" type="curve"/>
      <point x="80" y="-223" type="line"/>
      <point x="187" y="-223"/>
      <point x="236" y="-173"/>
    </contour>
  </outline>
</glyph>
<glyph name="z" format="1">
  <advance width="461"/>
  <unicode hex="007A"/>
  <outline>
    <contour>
      <point x="388" y="143" type="line"/>
      <point x="361" y="58" type="line" smooth="yes"/>
      <point x="354" y="34"/>
      <point x="352" y="32"/>
      <point x="307" y="32" type="curve"/>
      <point x="138" y="32" type="line"/>
      <point x="404" y="470" type="line"/>
      <point x="404" y="495" type="line"/>
      <point x="56" y="495" type="line"/>
      <point x="56" y="352" type="line"/>
      <point x="82" y="352" type="line"/>
      <point x="109" y="437" type="line" smooth="yes"/>
      <point x="117" y="460"/>
      <point x="119" y="463"/>
      <point x="163" y="463" type="curve"/>
      <point x="313" y="463" type="line"/>
      <point x="45" y="25" type="line"/>
      <point x="45" y="0" type="line"/>
      <point x="414" y="0" type="line"/>
      <point x="414" y="143" type="line"/>
    </contour>
  </outline>
</glyph>
<glyph name="braceleft" format="1">
  <advance width="401"/>
  <unicode hex="007B"/>
  <outline>
    <contour>
      <point x="380" y="-112" type="line"/>
      <point x="295" y="-112" type="line" smooth="yes"/>
      <point x="224" y="-112"/>
      <point x="203" y="-62"/>
      <point x="222" y="22" type="curve" smooth="yes"/>
      <point x="246" y="128" type="line" smooth="yes"/>
      <point x="267" y="220"/>
      <point x="231" y="278"/>
      <point x="165" y="298" type="curve"/>
      <point x="231" y="318"/>
      <point x="267" y="376"/>
      <point x="246" y="468" type="curve" smooth="yes"/>
      <point x="222" y="574" type="line" smooth="yes"/>
      <point x="203" y="658"/>
      <point x="224" y="708"/>
      <point x="295" y="708" type="curve" smooth="yes"/>
      <point x="380" y="708" type="line"/>
      <point x="380" y="740" type="line"/>
      <point x="295" y="740" type="line" smooth="yes"/>
      <point x="183" y="740"/>
      <point x="113" y="677"/>
      <point x="140" y="555" type="curve" smooth="yes"/>
      <point x="164" y="449" type="line" smooth="yes"/>
      <point x="182" y="371"/>
      <point x="160" y="314"/>
      <point x="107" y="314" type="curve" smooth="yes"/>
      <point x="30" y="314" type="line"/>
      <point x="30" y="282" type="line"/>
      <point x="107" y="282" type="line" smooth="yes"/>
      <point x="160" y="282"/>
      <point x="182" y="225"/>
      <point x="164" y="147" type="curve" smooth="yes"/>
      <point x="140" y="41" type="line" smooth="yes"/>
      <point x="113" y="-81"/>
      <point x="183" y="-144"/>
      <point x="295" y="-144" type="curve" smooth="yes"/>
      <point x="380" y="-144" type="line"/>
    </contour>
  </outline>
</glyph>
<glyph name="bar" format="1">
  <advance width="237"/>
  <unicode hex="007C"/>
  <outline>
    <contour>
      <point x="100" y="740" type="line"/>
      <point x="100" y="-213" type="line"/>
      <point x="137" y="-213" type="line"/>
      <point x="137" y="740" type="line"/>
    </contour>
  </outline>
</glyph>
<glyph name="braceright" format="1">
  <advance width="401"/>
  <unicode hex="007D"/>
  <outline>
    <contour>
      <point x="260" y="41" type="curve" smooth="yes"/>
      <point x="236" y="147" type="line" smooth="yes"/>
      <point x="218" y="225"/>
      <point x="240" y="281"/>
      <point x="293" y="281" type="curve" smooth="yes"/>
      <point x="370" y="281" type="line"/>
      <point x="370" y="313" type="line"/>
      <point x="293" y="313" type="line" smooth="yes"/>
      <point x="240" y="313"/>
      <point x="218" y="371"/>
      <point x="236" y="449" type="curve" smooth="yes"/>
      <point x="260" y="555" type="line" smooth="yes"/>
      <point x="287" y="677"/>
      <point x="217" y="740"/>
      <point x="105" y="740" type="curve" smooth="yes"/>
      <point x="20" y="740" type="line"/>
      <point x="20" y="708" type="line"/>
      <point x="105" y="708" type="line" smooth="yes"/>
      <point x="176" y="708"/>
      <point x="197" y="658"/>
      <point x="178" y="574" type="curve" smooth="yes"/>
      <point x="154" y="468" type="line" smooth="yes"/>
      <point x="133" y="375"/>
      <point x="169" y="318"/>
      <point x="235" y="298" type="curve"/>
      <point x="169" y="278"/>
      <point x="133" y="220"/>
      <point x="154" y="128" type="curve" smooth="yes"/>
      <point x="178" y="22" type="line" smooth="yes"/>
      <point x="197" y="-62"/>
      <point x="176" y="-112"/>
      <point x="105" y="-112" type="curve" smooth="yes"/>
      <point x="20" y="-112" type="line"/>
      <point x="20" y="-144" type="line"/>
      <point x="105" y="-144" type="line" smooth="yes"/>
      <point x="217" y="-144"/>
      <point x="287" y="-81"/>
    </contour>
  </outline>
</glyph>
<glyph name="asciitilde" format="1">
  <advance width="588"/>
  <unicode hex="007E"/>
  <outline>
    <contour>
      <point x="388" y="257" type="curve" smooth="yes"/>
      <point x="433" y="257"/>
      <point x="468" y="282"/>
      <point x="501" y="371" type="curve"/>
      <point x="470" y="386" type="line"/>
      <point x="446" y="312"/>
      <point x="423" y="292"/>
      <point x="388" y="292" type="curve" smooth="yes"/>
      <point x="313" y="292"/>
      <point x="294" y="408"/>
      <point x="199" y="408" type="curve" smooth="yes"/>
      <point x="155" y="408"/>
      <point x="119" y="384"/>
      <point x="87" y="294" type="curve"/>
      <point x="117" y="280" type="line"/>
      <point x="142" y="353"/>
      <point x="165" y="373"/>
      <point x="199" y="373" type="curve" smooth="yes"/>
      <point x="274" y="373"/>
      <point x="293" y="257"/>
    </contour>
  </outline>
</glyph>
<glyph name="exclamdown" format="1">
  <advance width="258"/>
  <unicode hex="00A1"/>
  <outline>
    <contour>
      <point x="129" y="505" type="curve" smooth="yes"/>
      <point x="96" y="505"/>
      <point x="72" y="481"/>
      <point x="72" y="447" type="curve" smooth="yes"/>
      <point x="72" y="414"/>
      <point x="96" y="391"/>
      <point x="129" y="391" type="curve" smooth="yes"/>
      <point x="162" y="391"/>
      <point x="186" y="414"/>
      <point x="186" y="447" type="curve" smooth="yes"/>
      <point x="186" y="481"/>
      <point x="162" y="505"/>
    </contour>
    <contour>
      <point x="113" y="311" type="line"/>
      <point x="113" y="75"/>
      <point x="88" y="20"/>
      <point x="88" y="-185" type="curve"/>
      <point x="170" y="-185" type="line"/>
      <point x="170" y="20"/>
      <point x="144" y="75"/>
      <point x="144" y="311" type="curve"/>
    </contour>
  </outline>
</glyph>
<glyph name="cent" format="1">
  <advance width="502"/>
  <unicode hex="00A2"/>
  <outline>
    <contour>
      <point x="451" y="114" type="curve"/>
      <point x="398" y="129" type="line"/>
      <point x="385" y="52"/>
      <point x="348" y="23"/>
      <point x="287" y="22" type="curve"/>
      <point x="287" y="472" type="line"/>
      <point x="351" y="463"/>
      <point x="380" y="404"/>
      <point x="367" y="307" type="curve"/>
      <point x="446" y="319" type="line"/>
      <point x="461" y="416"/>
      <point x="403" y="497"/>
      <point x="287" y="504" type="curve"/>
      <point x="287" y="620" type="line"/>
      <point x="252" y="620" type="line"/>
      <point x="252" y="504" type="line"/>
      <point x="130" y="496"/>
      <point x="63" y="401"/>
      <point x="63" y="258" type="curve" smooth="yes"/>
      <point x="63" y="238" type="line" smooth="yes"/>
      <point x="63" y="96"/>
      <point x="125" y="2"/>
      <point x="252" y="-9" type="curve"/>
      <point x="252" y="-125" type="line"/>
      <point x="287" y="-125" type="line"/>
      <point x="287" y="-10" type="line"/>
      <point x="361" y="-7"/>
      <point x="428" y="27"/>
    </contour>
    <contour>
      <point x="153" y="218" type="curve" smooth="yes"/>
      <point x="153" y="278" type="line" smooth="yes"/>
      <point x="153" y="406"/>
      <point x="189" y="464"/>
      <point x="252" y="472" type="curve"/>
      <point x="252" y="25" type="line"/>
      <point x="182" y="37"/>
      <point x="153" y="95"/>
    </contour>
  </outline>
</glyph>
<glyph name="sterling" format="1">
  <advance width="525"/>
  <unicode hex="00A3"/>
  <outline>
    <contour>
      <point x="435" y="184" type="line"/>
      <point x="418" y="99" type="line" smooth="yes"/>
      <point x="413" y="75"/>
      <point x="411" y="73"/>
      <point x="364" y="73" type="curve"/>
      <point x="126" y="73" type="line"/>
      <point x="194" y="139"/>
      <point x="218" y="196"/>
      <point x="218" y="253" type="curve" smooth="yes"/>
      <point x="218" y="264"/>
      <point x="217" y="274"/>
      <point x="216" y="284" type="curve"/>
      <point x="384" y="284" type="line"/>
      <point x="384" y="316" type="line"/>
      <point x="210" y="316" type="line"/>
      <point x="195" y="376"/>
      <point x="164" y="430"/>
      <point x="164" y="510" type="curve" smooth="yes"/>
      <point x="164" y="605"/>
      <point x="201" y="658"/>
      <point x="270" y="658" type="curve" smooth="yes"/>
      <point x="357" y="658"/>
      <point x="389" y="589"/>
      <point x="376" y="467" type="curve"/>
      <point x="463" y="483" type="line"/>
      <point x="482" y="590"/>
      <point x="418" y="690"/>
      <point x="268" y="690" type="curve" smooth="yes"/>
      <point x="124" y="690"/>
      <point x="67" y="596"/>
      <point x="67" y="503" type="curve" smooth="yes"/>
      <point x="67" y="420"/>
      <point x="111" y="371"/>
      <point x="140" y="316" type="curve"/>
      <point x="54" y="316" type="line"/>
      <point x="54" y="284" type="line"/>
      <point x="154" y="284" type="line"/>
      <point x="161" y="266"/>
      <point x="165" y="247"/>
      <point x="165" y="226" type="curve" smooth="yes"/>
      <point x="165" y="177"/>
      <point x="147" y="132"/>
      <point x="62" y="56" type="curve"/>
      <point x="62" y="0" type="line"/>
      <point x="461" y="0" type="line"/>
      <point x="461" y="184" type="line"/>
    </contour>
  </outline>
</glyph>
<glyph name="currency" format="1">
  <advance width="580"/>
  <unicode hex="00A4"/>
  <outline>
    <contour>
      <point x="536" y="67" type="line"/>
      <point x="436" y="171" type="line"/>
      <point x="465" y="205"/>
      <point x="482" y="250"/>
      <point x="482" y="300" type="curve" smooth="yes"/>
      <point x="482" y="350"/>
      <point x="465" y="395"/>
      <point x="436" y="429" type="curve"/>
      <point x="536" y="532" type="line"/>
      <point x="513" y="557" type="line"/>
      <point x="412" y="453" type="line"/>
      <point x="379" y="481"/>
      <point x="337" y="497"/>
      <point x="290" y="497" type="curve" smooth="yes"/>
      <point x="243" y="497"/>
      <point x="201" y="481"/>
      <point x="168" y="453" type="curve"/>
      <point x="67" y="557" type="line"/>
      <point x="44" y="532" type="line"/>
      <point x="143" y="429" type="line"/>
      <point x="115" y="395"/>
      <point x="98" y="350"/>
      <point x="98" y="300" type="curve" smooth="yes"/>
      <point x="98" y="250"/>
      <point x="115" y="205"/>
      <point x="144" y="171" type="curve"/>
      <point x="44" y="67" type="line"/>
      <point x="67" y="43" type="line"/>
      <point x="168" y="147" type="line"/>
      <point x="201" y="119"/>
      <point x="243" y="103"/>
      <point x="290" y="103" type="curve" smooth="yes"/>
      <point x="336" y="103"/>
      <point x="379" y="119"/>
      <point x="412" y="147" type="curve"/>
      <point x="513" y="43" type="line"/>
    </contour>
    <contour>
      <point x="290" y="135" type="curve" smooth="yes"/>
      <point x="201" y="135"/>
      <point x="132" y="207"/>
      <point x="132" y="300" type="curve" smooth="yes"/>
      <point x="132" y="392"/>
      <point x="201" y="465"/>
      <point x="290" y="465" type="curve" smooth="yes"/>
      <point x="379" y="465"/>
      <point x="448" y="392"/>
      <point x="448" y="300" type="curve" smooth="yes"/>
      <point x="448" y="207"/>
      <point x="379" y="135"/>
    </contour>
  </outline>
</glyph>
<glyph name="yen" format="1">
  <advance width="608"/>
  <unicode hex="00A5"/>
  <outline>
    <contour>
      <point x="425" y="26" type="line"/>
      <point x="370" y="32" type="line" smooth="yes"/>
      <point x="349" y="34"/>
      <point x="348" y="34"/>
      <point x="348" y="81" type="curve"/>
      <point x="348" y="214" type="line"/>
      <point x="530" y="214" type="line"/>
      <point x="530" y="246" type="line"/>
      <point x="348" y="246" type="line"/>
      <point x="348" y="292" type="line"/>
      <point x="380" y="354" type="line"/>
      <point x="530" y="354" type="line"/>
      <point x="530" y="386" type="line"/>
      <point x="396" y="386" type="line"/>
      <point x="508" y="605" type="line" smooth="yes"/>
      <point x="528" y="644"/>
      <point x="529" y="645"/>
      <point x="550" y="648" type="curve" smooth="yes"/>
      <point x="602" y="653" type="line"/>
      <point x="602" y="680" type="line"/>
      <point x="417" y="680" type="line"/>
      <point x="417" y="653" type="line"/>
      <point x="468" y="648" type="line" smooth="yes"/>
      <point x="488" y="645"/>
      <point x="490" y="644"/>
      <point x="470" y="605" type="curve" smooth="yes"/>
      <point x="331" y="332" type="line"/>
      <point x="195" y="605" type="line" smooth="yes"/>
      <point x="176" y="644"/>
      <point x="177" y="645"/>
      <point x="197" y="648" type="curve" smooth="yes"/>
      <point x="248" y="653" type="line"/>
      <point x="248" y="680" type="line"/>
      <point x="6" y="680" type="line"/>
      <point x="6" y="653" type="line"/>
      <point x="57" y="648" type="line" smooth="yes"/>
      <point x="78" y="645"/>
      <point x="79" y="645"/>
      <point x="100" y="605" type="curve" smooth="yes"/>
      <point x="212" y="386" type="line"/>
      <point x="79" y="386" type="line"/>
      <point x="79" y="354" type="line"/>
      <point x="228" y="354" type="line"/>
      <point x="261" y="290" type="line"/>
      <point x="261" y="246" type="line"/>
      <point x="79" y="246" type="line"/>
      <point x="79" y="214" type="line"/>
      <point x="261" y="214" type="line"/>
      <point x="261" y="81" type="line"/>
      <point x="261" y="34"/>
      <point x="260" y="34"/>
      <point x="239" y="32" type="curve" smooth="yes"/>
      <point x="184" y="26" type="line"/>
      <point x="184" y="0" type="line"/>
      <point x="425" y="0" type="line"/>
    </contour>
  </outline>
</glyph>
<glyph name="brokenbar" format="1">
  <advance width="224"/>
  <unicode hex="00A6"/>
  <outline>
    <contour>
      <point x="93" y="740" type="line"/>
      <point x="93" y="357" type="line"/>
      <point x="130" y="357" type="line"/>
      <point x="130" y="740" type="line"/>
    </contour>
    <contour>
      <point x="93" y="170" type="line"/>
      <point x="93" y="-213" type="line"/>
      <point x="130" y="-213" type="line"/>
      <point x="130" y="170" type="line"/>
    </contour>
  </outline>
</glyph>
<glyph name="section" format="1">
  <advance width="539"/>
  <unicode hex="00A7"/>
  <outline>
    <contour>
      <point x="460" y="-51" type="curve" smooth="yes"/>
      <point x="460" y="15"/>
      <point x="432" y="61"/>
      <point x="378" y="91" type="curve"/>
      <point x="448" y="120"/>
      <point x="490" y="176"/>
      <point x="490" y="246" type="curve" smooth="yes"/>
      <point x="490" y="325"/>
      <point x="435" y="380"/>
      <point x="331" y="410" type="curve" smooth="yes"/>
      <point x="256" y="432" type="line" smooth="yes"/>
      <point x="174" y="456"/>
      <point x="149" y="496"/>
      <point x="149" y="554" type="curve" smooth="yes"/>
      <point x="149" y="622"/>
      <point x="190" y="658"/>
      <point x="260" y="658" type="curve" smooth="yes"/>
      <point x="348" y="658"/>
      <point x="378" y="595"/>
      <point x="363" y="483" type="curve"/>
      <point x="447" y="501" type="line"/>
      <point x="464" y="599"/>
      <point x="408" y="690"/>
      <point x="264" y="690" type="curve" smooth="yes"/>
      <point x="134" y="690"/>
      <point x="78" y="612"/>
      <point x="78" y="527" type="curve" smooth="yes"/>
      <point x="78" y="463"/>
      <point x="108" y="409"/>
      <point x="163" y="377" type="curve"/>
      <point x="92" y="349"/>
      <point x="50" y="291"/>
      <point x="50" y="226" type="curve" smooth="yes"/>
      <point x="50" y="152"/>
      <point x="106" y="89"/>
      <point x="200" y="62" type="curve" smooth="yes"/>
      <point x="273" y="40" type="line" smooth="yes"/>
      <point x="359" y="15"/>
      <point x="389" y="-21"/>
      <point x="389" y="-81" type="curve" smooth="yes"/>
      <point x="389" y="-153"/>
      <point x="337" y="-191"/>
      <point x="259" y="-191" type="curve" smooth="yes"/>
      <point x="185" y="-191"/>
      <point x="120" y="-156"/>
      <point x="110" y="-29" type="curve"/>
      <point x="50" y="-49" type="line"/>
      <point x="71" y="-183"/>
      <point x="160" y="-223"/>
      <point x="259" y="-223" type="curve" smooth="yes"/>
      <point x="394" y="-223"/>
      <point x="460" y="-148"/>
    </contour>
    <contour>
      <point x="245" y="137" type="line" smooth="yes"/>
      <point x="153" y="164"/>
      <point x="121" y="202"/>
      <point x="121" y="258" type="curve" smooth="yes"/>
      <point x="121" y="312"/>
      <point x="151" y="346"/>
      <point x="203" y="359" type="curve"/>
      <point x="286" y="335" type="line" smooth="yes"/>
      <point x="385" y="306"/>
      <point x="419" y="271"/>
      <point x="419" y="213" type="curve" smooth="yes"/>
      <point x="419" y="159"/>
      <point x="387" y="125"/>
      <point x="334" y="110" type="curve"/>
    </contour>
  </outline>
</glyph>
<glyph name="dieresis" format="1">
  <advance width="500"/>
  <unicode hex="00A8"/>
  <outline>
    <contour>
      <point x="148" y="611" type="curve" smooth="yes"/>
      <point x="178" y="611"/>
      <point x="199" y="632"/>
      <point x="199" y="663" type="curve" smooth="yes"/>
      <point x="199" y="692"/>
      <point x="178" y="713"/>
      <point x="148" y="713" type="curve" smooth="yes"/>
      <point x="118" y="713"/>
      <point x="97" y="692"/>
      <point x="97" y="663" type="curve" smooth="yes"/>
      <point x="97" y="632"/>
      <point x="118" y="611"/>
    </contour>
    <contour>
      <point x="351" y="611" type="curve" smooth="yes"/>
      <point x="381" y="611"/>
      <point x="403" y="632"/>
      <point x="403" y="663" type="curve" smooth="yes"/>
      <point x="403" y="692"/>
      <point x="381" y="713"/>
      <point x="351" y="713" type="curve" smooth="yes"/>
      <point x="321" y="713"/>
      <point x="300" y="692"/>
      <point x="300" y="663" type="curve" smooth="yes"/>
      <point x="300" y="632"/>
      <point x="321" y="611"/>
    </contour>
  </outline>
</glyph>
<glyph name="copyright" format="1">
  <advance width="852"/>
  <unicode hex="00A9"/>
  <outline>
    <contour>
      <point x="426" y="-37" type="curve" smooth="yes"/>
      <point x="635" y="-37"/>
      <point x="798" y="128"/>
      <point x="798" y="340" type="curve" smooth="yes"/>
      <point x="798" y="553"/>
      <point x="635" y="717"/>
      <point x="426" y="717" type="curve" smooth="yes"/>
      <point x="216" y="717"/>
      <point x="54" y="553"/>
      <point x="54" y="340" type="curve" smooth="yes"/>
      <point x="54" y="128"/>
      <point x="216" y="-37"/>
    </contour>
    <contour>
      <point x="426" y="-5" type="curve" smooth="yes"/>
      <point x="235" y="-5"/>
      <point x="88" y="145"/>
      <point x="88" y="340" type="curve" smooth="yes"/>
      <point x="88" y="534"/>
      <point x="235" y="685"/>
      <point x="426" y="685" type="curve" smooth="yes"/>
      <point x="617" y="685"/>
      <point x="764" y="534"/>
      <point x="764" y="340" type="curve" smooth="yes"/>
      <point x="764" y="145"/>
      <point x="617" y="-5"/>
    </contour>
    <contour>
      <point x="430" y="542" type="curve" smooth="yes"/>
      <point x="508" y="542"/>
      <point x="545" y="487"/>
      <point x="532" y="389" type="curve"/>
      <point x="597" y="398" type="line"/>
      <point x="612" y="496"/>
      <point x="548" y="572"/>
      <point x="430" y="572" type="curve" smooth="yes"/>
      <point x="303" y="572"/>
      <point x="236" y="485"/>
      <point x="236" y="351" type="curve" smooth="yes"/>
      <point x="236" y="330" type="line" smooth="yes"/>
      <point x="236" y="195"/>
      <point x="301" y="108"/>
      <point x="434" y="108" type="curve" smooth="yes"/>
      <point x="509" y="108"/>
      <point x="579" y="139"/>
      <point x="604" y="230" type="curve"/>
      <point x="553" y="243" type="line"/>
      <point x="537" y="164"/>
      <point x="500" y="138"/>
      <point x="439" y="138" type="curve" smooth="yes"/>
      <point x="349" y="138"/>
      <point x="312" y="187"/>
      <point x="312" y="310" type="curve" smooth="yes"/>
      <point x="312" y="371" type="line" smooth="yes"/>
      <point x="312" y="493"/>
      <point x="355" y="542"/>
    </contour>
  </outline>
</glyph>
<glyph name="ordfeminine" format="1">
  <advance width="381"/>
  <unicode hex="00AA"/>
  <outline>
    <contour>
      <point x="310" y="339" type="curve" smooth="yes"/>
      <point x="334" y="339"/>
      <point x="351" y="347"/>
      <point x="364" y="359" type="curve"/>
      <point x="352" y="378" type="line"/>
      <point x="341" y="369"/>
      <point x="331" y="366"/>
      <point x="323" y="366" type="curve" smooth="yes"/>
      <point x="309" y="366"/>
      <point x="296" y="369"/>
      <point x="296" y="416" type="curve" smooth="yes"/>
      <point x="296" y="568" type="line" smooth="yes"/>
      <point x="296" y="630"/>
      <point x="270" y="685"/>
      <point x="177" y="685" type="curve" smooth="yes"/>
      <point x="99" y="685"/>
      <point x="59" y="638"/>
      <point x="65" y="574" type="curve"/>
      <point x="115" y="567" type="line"/>
      <point x="106" y="644"/>
      <point x="136" y="659"/>
      <point x="176" y="659" type="curve" smooth="yes"/>
      <point x="217" y="659"/>
      <point x="244" y="641"/>
      <point x="244" y="568" type="curve" smooth="yes"/>
      <point x="244" y="513" type="line"/>
      <point x="169" y="513" type="line" smooth="yes"/>
      <point x="81" y="513"/>
      <point x="49" y="481"/>
      <point x="49" y="426" type="curve" smooth="yes"/>
      <point x="49" y="377"/>
      <point x="78" y="335"/>
      <point x="142" y="335" type="curve" smooth="yes"/>
      <point x="177" y="335"/>
      <point x="214" y="349"/>
      <point x="247" y="383" type="curve"/>
      <point x="254" y="355"/>
      <point x="277" y="339"/>
    </contour>
    <contour>
      <point x="154" y="363" type="curve" smooth="yes"/>
      <point x="120" y="363"/>
      <point x="103" y="387"/>
      <point x="103" y="430" type="curve" smooth="yes"/>
      <point x="103" y="471"/>
      <point x="124" y="487"/>
      <point x="174" y="487" type="curve" smooth="yes"/>
      <point x="244" y="487" type="line"/>
      <point x="244" y="413" type="line"/>
      <point x="209" y="372"/>
      <point x="178" y="363"/>
    </contour>
  </outline>
</glyph>
<glyph name="guillemotleft" format="1">
  <advance width="645"/>
  <unicode hex="00AB"/>
  <outline>
    <contour>
      <point x="588" y="27" type="line"/>
      <point x="401" y="244" type="line"/>
      <point x="588" y="460" type="line"/>
      <point x="570" y="478" type="line"/>
      <point x="303" y="256" type="line"/>
      <point x="303" y="232" type="line"/>
      <point x="570" y="10" type="line"/>
    </contour>
    <contour>
      <point x="338" y="27" type="line"/>
      <point x="151" y="244" type="line"/>
      <point x="338" y="460" type="line"/>
      <point x="320" y="478" type="line"/>
      <point x="53" y="256" type="line"/>
      <point x="53" y="232" type="line"/>
      <point x="320" y="10" type="line"/>
    </contour>
  </outline>
</glyph>
<glyph name="logicalnot" format="1">
  <advance width="588"/>
  <unicode hex="00AC"/>
  <outline>
    <contour>
      <point x="87" y="428" type="line"/>
      <point x="465" y="428" type="line"/>
      <point x="465" y="237" type="line"/>
      <point x="501" y="237" type="line"/>
      <point x="501" y="461" type="line"/>
      <point x="87" y="461" type="line"/>
    </contour>
  </outline>
</glyph>
<glyph name="registered" format="1">
  <advance width="556"/>
  <unicode hex="00AE"/>
  <note>
    nouvelle rduction 75%
  </note>
  <outline>
    <contour>
      <point x="278" y="241" type="curve" smooth="yes"/>
      <point x="409" y="241"/>
      <point x="512" y="346"/>
      <point x="512" y="479" type="curve" smooth="yes"/>
      <point x="512" y="613"/>
      <point x="409" y="717"/>
      <point x="278" y="717" type="curve" smooth="yes"/>
      <point x="146" y="717"/>
      <point x="44" y="613"/>
      <point x="44" y="479" type="curve" smooth="yes"/>
      <point x="44" y="346"/>
      <point x="146" y="241"/>
    </contour>
    <contour>
      <point x="278" y="271" type="curve" smooth="yes"/>
      <point x="165" y="271"/>
      <point x="76" y="361"/>
      <point x="76" y="479" type="curve" smooth="yes"/>
      <point x="76" y="596"/>
      <point x="165" y="687"/>
      <point x="278" y="687" type="curve" smooth="yes"/>
      <point x="391" y="687"/>
      <point x="479" y="596"/>
      <point x="479" y="479" type="curve" smooth="yes"/>
      <point x="479" y="361"/>
      <point x="391" y="271"/>
    </contour>
    <contour>
      <point x="170" y="588" type="line"/>
      <point x="191" y="586" type="line" smooth="yes"/>
      <point x="199" y="585"/>
      <point x="200" y="585"/>
      <point x="200" y="568" type="curve"/>
      <point x="200" y="396" type="line"/>
      <point x="200" y="378"/>
      <point x="199" y="377"/>
      <point x="191" y="377" type="curve" smooth="yes"/>
      <point x="170" y="376" type="line"/>
      <point x="170" y="354" type="line"/>
      <point x="276" y="354" type="line"/>
      <point x="276" y="376" type="line"/>
      <point x="255" y="377" type="line" smooth="yes"/>
      <point x="247" y="377"/>
      <point x="247" y="378"/>
      <point x="247" y="396" type="curve"/>
      <point x="247" y="459" type="line"/>
      <point x="272" y="459" type="line"/>
      <point x="331" y="354" type="line"/>
      <point x="399" y="354" type="line"/>
      <point x="399" y="376" type="line"/>
      <point x="381" y="377" type="line" smooth="yes"/>
      <point x="373" y="377"/>
      <point x="374" y="378"/>
      <point x="363" y="396" type="curve" smooth="yes"/>
      <point x="320" y="465" type="line"/>
      <point x="348" y="476"/>
      <point x="364" y="498"/>
      <point x="364" y="527" type="curve" smooth="yes"/>
      <point x="364" y="543" type="line" smooth="yes"/>
      <point x="364" y="583"/>
      <point x="334" y="609"/>
      <point x="281" y="609" type="curve" smooth="yes"/>
      <point x="170" y="609" type="line"/>
    </contour>
    <contour>
      <point x="281" y="586" type="line" smooth="yes"/>
      <point x="303" y="586"/>
      <point x="316" y="571"/>
      <point x="316" y="543" type="curve" smooth="yes"/>
      <point x="316" y="527" type="line" smooth="yes"/>
      <point x="316" y="499"/>
      <point x="303" y="483"/>
      <point x="281" y="483" type="curve" smooth="yes"/>
      <point x="247" y="483" type="line"/>
      <point x="247" y="586" type="line"/>
    </contour>
  </outline>
</glyph>
<glyph name="degree" format="1">
  <advance width="387"/>
  <unicode hex="00B0"/>
  <outline>
    <contour>
      <point x="193" y="366" type="curve" smooth="yes"/>
      <point x="283" y="366"/>
      <point x="350" y="435"/>
      <point x="350" y="528" type="curve" smooth="yes"/>
      <point x="350" y="622"/>
      <point x="283" y="690"/>
      <point x="193" y="690" type="curve" smooth="yes"/>
      <point x="102" y="690"/>
      <point x="36" y="622"/>
      <point x="36" y="528" type="curve" smooth="yes"/>
      <point x="36" y="435"/>
      <point x="102" y="366"/>
    </contour>
    <contour>
      <point x="193" y="399" type="curve" smooth="yes"/>
      <point x="123" y="399"/>
      <point x="74" y="452"/>
      <point x="74" y="528" type="curve" smooth="yes"/>
      <point x="74" y="603"/>
      <point x="123" y="656"/>
      <point x="193" y="656" type="curve" smooth="yes"/>
      <point x="263" y="656"/>
      <point x="313" y="603"/>
      <point x="313" y="528" type="curve" smooth="yes"/>
      <point x="313" y="452"/>
      <point x="263" y="399"/>
    </contour>
  </outline>
</glyph>
<glyph name="plusminus" format="1">
  <advance width="588"/>
  <unicode hex="00B1"/>
  <outline>
    <contour>
      <point x="501" y="317" type="line"/>
      <point x="501" y="350" type="line"/>
      <point x="311" y="350" type="line"/>
      <point x="311" y="545" type="line"/>
      <point x="276" y="545" type="line"/>
      <point x="276" y="350" type="line"/>
      <point x="87" y="350" type="line"/>
      <point x="87" y="317" type="line"/>
      <point x="276" y="317" type="line"/>
      <point x="276" y="123" type="line"/>
      <point x="311" y="123" type="line"/>
      <point x="311" y="317" type="line"/>
    </contour>
    <contour>
      <point x="87" y="0" type="line"/>
      <point x="501" y="0" type="line"/>
      <point x="501" y="33" type="line"/>
      <point x="87" y="33" type="line"/>
    </contour>
  </outline>
</glyph>
<glyph name="acute" format="1">
  <advance width="500"/>
  <unicode hex="00B4"/>
  <outline>
    <contour>
      <point x="249" y="579" type="line"/>
      <point x="309" y="631"/>
      <point x="351" y="679"/>
      <point x="391" y="740" type="curve"/>
      <point x="295" y="740" type="line"/>
      <point x="279" y="678"/>
      <point x="260" y="643"/>
      <point x="228" y="598" type="curve"/>
    </contour>
  </outline>
</glyph>
<glyph name="mu" format="1">
  <advance width="610"/>
  <unicode hex="00B5"/>
  <outline>
    <contour>
      <point x="320" y="468" type="line"/>
      <point x="395" y="463" type="line" smooth="yes"/>
      <point x="416" y="461"/>
      <point x="417" y="460"/>
      <point x="417" y="414" type="curve"/>
      <point x="417" y="120" type="line"/>
      <point x="367" y="51"/>
      <point x="316" y="30"/>
      <point x="272" y="30" type="curve" smooth="yes"/>
      <point x="216" y="30"/>
      <point x="186" y="66"/>
      <point x="186" y="165" type="curve" smooth="yes"/>
      <point x="186" y="495" type="line"/>
      <point x="27" y="495" type="line"/>
      <point x="27" y="468" type="line"/>
      <point x="82" y="463" type="line" smooth="yes"/>
      <point x="103" y="460"/>
      <point x="104" y="460"/>
      <point x="104" y="414" type="curve"/>
      <point x="104" y="-213" type="line"/>
      <point x="195" y="-187" type="line"/>
      <point x="163" y="-118"/>
      <point x="147" y="-59"/>
      <point x="144" y="35" type="curve"/>
      <point x="169" y="6"/>
      <point x="206" y="-10"/>
      <point x="254" y="-10" type="curve" smooth="yes"/>
      <point x="311" y="-10"/>
      <point x="370" y="15"/>
      <point x="418" y="72" type="curve"/>
      <point x="425" y="21"/>
      <point x="458" y="-7"/>
      <point x="511" y="-7" type="curve" smooth="yes"/>
      <point x="549" y="-7"/>
      <point x="575" y="6"/>
      <point x="595" y="24" type="curve"/>
      <point x="577" y="49" type="line"/>
      <point x="562" y="35"/>
      <point x="548" y="30"/>
      <point x="536" y="30" type="curve" smooth="yes"/>
      <point x="517" y="30"/>
      <point x="499" y="39"/>
      <point x="499" y="107" type="curve" smooth="yes"/>
      <point x="499" y="495" type="line"/>
      <point x="320" y="495" type="line"/>
    </contour>
  </outline>
</glyph>
<glyph name="paragraph" format="1">
  <advance width="572"/>
  <unicode hex="00B6"/>
  <outline>
    <contour>
      <point x="38" y="499" type="curve" smooth="yes"/>
      <point x="38" y="470" type="line" smooth="yes"/>
      <point x="38" y="360"/>
      <point x="109" y="288"/>
      <point x="242" y="288" type="curve" smooth="yes"/>
      <point x="293" y="288" type="line"/>
      <point x="293" y="648" type="line"/>
      <point x="361" y="648" type="line"/>
      <point x="361" y="-62" type="line"/>
      <point x="361" y="-108"/>
      <point x="360" y="-109"/>
      <point x="339" y="-111" type="curve" smooth="yes"/>
      <point x="264" y="-116" type="line"/>
      <point x="264" y="-143" type="line"/>
      <point x="525" y="-143" type="line"/>
      <point x="525" y="-116" type="line"/>
      <point x="470" y="-111" type="line" smooth="yes"/>
      <point x="449" y="-108"/>
      <point x="448" y="-108"/>
      <point x="448" y="-62" type="curve"/>
      <point x="448" y="599" type="line"/>
      <point x="448" y="645"/>
      <point x="449" y="645"/>
      <point x="470" y="648" type="curve" smooth="yes"/>
      <point x="525" y="653" type="line"/>
      <point x="525" y="680" type="line"/>
      <point x="242" y="680" type="line" smooth="yes"/>
      <point x="109" y="680"/>
      <point x="38" y="608"/>
    </contour>
  </outline>
</glyph>
<glyph name="periodcentered" format="1">
  <advance width="500"/>
  <unicode hex="00B7"/>
  <outline>
    <contour>
      <point x="250" y="329" type="curve" smooth="yes"/>
      <point x="282" y="329"/>
      <point x="305" y="352"/>
      <point x="305" y="385" type="curve" smooth="yes"/>
      <point x="305" y="417"/>
      <point x="282" y="439"/>
      <point x="250" y="439" type="curve" smooth="yes"/>
      <point x="218" y="439"/>
      <point x="195" y="417"/>
      <point x="195" y="385" type="curve" smooth="yes"/>
      <point x="195" y="352"/>
      <point x="218" y="329"/>
    </contour>
  </outline>
</glyph>
<glyph name="cedilla" format="1">
  <advance width="500"/>
  <unicode hex="00B8"/>
  <outline>
    <contour>
      <point x="359" y="-140" type="curve" smooth="yes"/>
      <point x="359" y="-88"/>
      <point x="311" y="-58"/>
      <point x="240" y="-58" type="curve" smooth="yes"/>
      <point x="264" y="0" type="line"/>
      <point x="229" y="0" type="line"/>
      <point x="203" y="-63" type="line"/>
      <point x="213" y="-88" type="line"/>
      <point x="219" y="-87"/>
      <point x="229" y="-86"/>
      <point x="236" y="-86" type="curve" smooth="yes"/>
      <point x="280" y="-86"/>
      <point x="294" y="-109"/>
      <point x="294" y="-140" type="curve" smooth="yes"/>
      <point x="294" y="-172"/>
      <point x="279" y="-195"/>
      <point x="244" y="-195" type="curve" smooth="yes"/>
      <point x="213" y="-195"/>
      <point x="194" y="-178"/>
      <point x="189" y="-131" type="curve"/>
      <point x="141" y="-145" type="line"/>
      <point x="152" y="-203"/>
      <point x="197" y="-223"/>
      <point x="248" y="-223" type="curve" smooth="yes"/>
      <point x="313" y="-223"/>
      <point x="359" y="-192"/>
    </contour>
  </outline>
</glyph>
<glyph name="ordmasculine" format="1">
  <advance width="395"/>
  <unicode hex="00BA"/>
  <outline>
    <contour>
      <point x="343" y="517" type="line" smooth="yes"/>
      <point x="343" y="619"/>
      <point x="291" y="685"/>
      <point x="197" y="685" type="curve" smooth="yes"/>
      <point x="104" y="685"/>
      <point x="51" y="619"/>
      <point x="51" y="517" type="curve" smooth="yes"/>
      <point x="51" y="504" type="line" smooth="yes"/>
      <point x="51" y="401"/>
      <point x="104" y="335"/>
      <point x="197" y="335" type="curve" smooth="yes"/>
      <point x="290" y="335"/>
      <point x="343" y="401"/>
      <point x="343" y="504" type="curve" smooth="yes"/>
    </contour>
    <contour>
      <point x="284" y="531" type="curve" smooth="yes"/>
      <point x="284" y="490" type="line" smooth="yes"/>
      <point x="284" y="395"/>
      <point x="257" y="360"/>
      <point x="197" y="360" type="curve" smooth="yes"/>
      <point x="138" y="360"/>
      <point x="110" y="395"/>
      <point x="110" y="490" type="curve" smooth="yes"/>
      <point x="110" y="531" type="line" smooth="yes"/>
      <point x="110" y="625"/>
      <point x="138" y="659"/>
      <point x="197" y="659" type="curve" smooth="yes"/>
      <point x="257" y="659"/>
      <point x="284" y="625"/>
    </contour>
  </outline>
</glyph>
<glyph name="guillemotright" format="1">
  <advance width="645"/>
  <unicode hex="00BB"/>
  <outline>
    <contour>
      <point x="57" y="461" type="line"/>
      <point x="243" y="244" type="line"/>
      <point x="57" y="28" type="line"/>
      <point x="74" y="10" type="line"/>
      <point x="342" y="232" type="line"/>
      <point x="342" y="256" type="line"/>
      <point x="74" y="478" type="line"/>
    </contour>
    <contour>
      <point x="307" y="461" type="line"/>
      <point x="493" y="244" type="line"/>
      <point x="307" y="28" type="line"/>
      <point x="324" y="10" type="line"/>
      <point x="592" y="232" type="line"/>
      <point x="592" y="256" type="line"/>
      <point x="324" y="478" type="line"/>
    </contour>
  </outline>
</glyph>
<glyph name="questiondown" format="1">
  <advance width="479"/>
  <unicode hex="00BF"/>
  <outline>
    <contour>
      <point x="249" y="505" type="curve" smooth="yes"/>
      <point x="216" y="505"/>
      <point x="192" y="481"/>
      <point x="192" y="447" type="curve" smooth="yes"/>
      <point x="192" y="414"/>
      <point x="216" y="391"/>
      <point x="249" y="391" type="curve" smooth="yes"/>
      <point x="282" y="391"/>
      <point x="306" y="414"/>
      <point x="306" y="447" type="curve" smooth="yes"/>
      <point x="306" y="481"/>
      <point x="282" y="505"/>
    </contour>
    <contour>
      <point x="225" y="311" type="line"/>
      <point x="227" y="288" type="line" smooth="yes"/>
      <point x="244" y="136"/>
      <point x="45" y="162"/>
      <point x="45" y="-21" type="curve" smooth="yes"/>
      <point x="45" y="-110"/>
      <point x="103" y="-195"/>
      <point x="244" y="-195" type="curve" smooth="yes"/>
      <point x="392" y="-195"/>
      <point x="454" y="-95"/>
      <point x="435" y="12" type="curve"/>
      <point x="353" y="28" type="line"/>
      <point x="366" y="-94"/>
      <point x="333" y="-163"/>
      <point x="245" y="-163" type="curve" smooth="yes"/>
      <point x="176" y="-163"/>
      <point x="137" y="-112"/>
      <point x="137" y="-10" type="curve" smooth="yes"/>
      <point x="137" y="161"/>
      <point x="271" y="138"/>
      <point x="271" y="289" type="curve" smooth="yes"/>
      <point x="271" y="311" type="line"/>
    </contour>
  </outline>
</glyph>
<glyph name="Aring" format="1">
  <advance width="628"/>
  <unicode hex="00C5"/>
  <outline>
    <contour>
      <point x="188" y="26" type="line"/>
      <point x="133" y="32" type="line" smooth="yes"/>
      <point x="111" y="34"/>
      <point x="110" y="35"/>
      <point x="125" y="81" type="curve" smooth="yes"/>
      <point x="166" y="209" type="line"/>
      <point x="410" y="209" type="line"/>
      <point x="451" y="81" type="line" smooth="yes"/>
      <point x="465" y="36"/>
      <point x="464" y="34"/>
      <point x="443" y="32" type="curve" smooth="yes"/>
      <point x="388" y="26" type="line"/>
      <point x="388" y="0" type="line"/>
      <point x="631" y="0" type="line"/>
      <point x="631" y="26" type="line"/>
      <point x="576" y="32" type="line" smooth="yes"/>
      <point x="556" y="34"/>
      <point x="554" y="34"/>
      <point x="540" y="81" type="curve" smooth="yes"/>
      <point x="352" y="660" type="line"/>
      <point x="402" y="676"/>
      <point x="431" y="720"/>
      <point x="431" y="763" type="curve" smooth="yes"/>
      <point x="431" y="774" type="line" smooth="yes"/>
      <point x="431" y="828"/>
      <point x="386" y="882"/>
      <point x="311" y="882" type="curve" smooth="yes"/>
      <point x="234" y="882"/>
      <point x="191" y="828"/>
      <point x="191" y="774" type="curve" smooth="yes"/>
      <point x="191" y="763" type="line" smooth="yes"/>
      <point x="191" y="718"/>
      <point x="221" y="672"/>
      <point x="275" y="658" type="curve"/>
      <point x="89" y="81" type="line" smooth="yes"/>
      <point x="74" y="34"/>
      <point x="74" y="34"/>
      <point x="52" y="32" type="curve" smooth="yes"/>
      <point x="-2" y="26" type="line"/>
      <point x="-2" y="0" type="line"/>
      <point x="188" y="0" type="line"/>
    </contour>
    <contour>
      <point x="371" y="781" type="curve" smooth="yes"/>
      <point x="371" y="756" type="line" smooth="yes"/>
      <point x="371" y="707"/>
      <point x="349" y="680"/>
      <point x="311" y="680" type="curve" smooth="yes"/>
      <point x="272" y="680"/>
      <point x="251" y="707"/>
      <point x="251" y="756" type="curve" smooth="yes"/>
      <point x="251" y="781" type="line" smooth="yes"/>
      <point x="251" y="830"/>
      <point x="273" y="857"/>
      <point x="311" y="857" type="curve" smooth="yes"/>
      <point x="349" y="857"/>
      <point x="371" y="830"/>
    </contour>
    <contour>
      <point x="176" y="241" type="line"/>
      <point x="288" y="589" type="line"/>
      <point x="400" y="241" type="line"/>
    </contour>
  </outline>
</glyph>
<glyph name="AE" format="1">
  <advance width="888"/>
  <unicode hex="00C6"/>
  <outline>
    <contour>
      <point x="833" y="163" type="line"/>
      <point x="807" y="163" type="line"/>
      <point x="778" y="58" type="line" smooth="yes"/>
      <point x="772" y="34"/>
      <point x="771" y="32"/>
      <point x="724" y="32" type="curve"/>
      <point x="520" y="32" type="line"/>
      <point x="520" y="327" type="line"/>
      <point x="654" y="327" type="line"/>
      <point x="701" y="327"/>
      <point x="702" y="325"/>
      <point x="708" y="301" type="curve" smooth="yes"/>
      <point x="727" y="226" type="line"/>
      <point x="753" y="226" type="line"/>
      <point x="753" y="460" type="line"/>
      <point x="727" y="460" type="line"/>
      <point x="708" y="385" type="line" smooth="yes"/>
      <point x="702" y="361"/>
      <point x="701" y="359"/>
      <point x="654" y="359" type="curve"/>
      <point x="520" y="359" type="line"/>
      <point x="520" y="648" type="line"/>
      <point x="714" y="648" type="line"/>
      <point x="761" y="648"/>
      <point x="762" y="645"/>
      <point x="768" y="622" type="curve" smooth="yes"/>
      <point x="797" y="517" type="line"/>
      <point x="823" y="517" type="line"/>
      <point x="823" y="680" type="line"/>
      <point x="327" y="680" type="line"/>
      <point x="327" y="653" type="line"/>
      <point x="382" y="648" type="line" smooth="yes"/>
      <point x="403" y="645"/>
      <point x="404" y="644"/>
      <point x="379" y="599" type="curve" smooth="yes"/>
      <point x="100" y="81" type="line" smooth="yes"/>
      <point x="75" y="35"/>
      <point x="74" y="34"/>
      <point x="52" y="32" type="curve" smooth="yes"/>
      <point x="-2" y="26" type="line"/>
      <point x="-2" y="0" type="line"/>
      <point x="191" y="0" type="line"/>
      <point x="191" y="26" type="line"/>
      <point x="136" y="32" type="line" smooth="yes"/>
      <point x="115" y="34"/>
      <point x="115" y="36"/>
      <point x="139" y="81" type="curve" smooth="yes"/>
      <point x="208" y="209" type="line"/>
      <point x="433" y="209" type="line"/>
      <point x="433" y="81" type="line"/>
      <point x="433" y="34"/>
      <point x="432" y="34"/>
      <point x="411" y="32" type="curve" smooth="yes"/>
      <point x="356" y="26" type="line"/>
      <point x="356" y="0" type="line"/>
      <point x="833" y="0" type="line"/>
    </contour>
    <contour>
      <point x="225" y="241" type="line"/>
      <point x="433" y="626" type="line"/>
      <point x="433" y="241" type="line"/>
    </contour>
  </outline>
</glyph>
<glyph name="Ccedilla" format="1">
  <advance width="586"/>
  <unicode hex="00C7"/>
  <outline>
    <contour>
      <point x="443" y="-140" type="curve" smooth="yes"/>
      <point x="443" y="-88"/>
      <point x="395" y="-58"/>
      <point x="324" y="-58" type="curve" smooth="yes"/>
      <point x="344" y="-10" type="line"/>
      <point x="434" y="-7"/>
      <point x="510" y="32"/>
      <point x="538" y="135" type="curve"/>
      <point x="476" y="151" type="line"/>
      <point x="465" y="51"/>
      <point x="402" y="22"/>
      <point x="336" y="22" type="curve" smooth="yes"/>
      <point x="225" y="22"/>
      <point x="169" y="89"/>
      <point x="169" y="253" type="curve" smooth="yes"/>
      <point x="169" y="428" type="line" smooth="yes"/>
      <point x="169" y="591"/>
      <point x="223" y="658"/>
      <point x="324" y="658" type="curve" smooth="yes"/>
      <point x="414" y="658"/>
      <point x="461" y="587"/>
      <point x="447" y="459" type="curve"/>
      <point x="533" y="480" type="line"/>
      <point x="548" y="591"/>
      <point x="474" y="690"/>
      <point x="324" y="690" type="curve" smooth="yes"/>
      <point x="161" y="690"/>
      <point x="74" y="566"/>
      <point x="74" y="378" type="curve" smooth="yes"/>
      <point x="74" y="303" type="line" smooth="yes"/>
      <point x="74" y="121"/>
      <point x="155" y="2"/>
      <point x="309" y="-9" type="curve"/>
      <point x="287" y="-63" type="line"/>
      <point x="297" y="-88" type="line"/>
      <point x="303" y="-87"/>
      <point x="313" y="-86"/>
      <point x="320" y="-86" type="curve" smooth="yes"/>
      <point x="364" y="-86"/>
      <point x="378" y="-109"/>
      <point x="378" y="-140" type="curve" smooth="yes"/>
      <point x="378" y="-172"/>
      <point x="363" y="-195"/>
      <point x="328" y="-195" type="curve" smooth="yes"/>
      <point x="297" y="-195"/>
      <point x="278" y="-178"/>
      <point x="273" y="-131" type="curve"/>
      <point x="225" y="-145" type="line"/>
      <point x="236" y="-203"/>
      <point x="281" y="-223"/>
      <point x="332" y="-223" type="curve" smooth="yes"/>
      <point x="397" y="-223"/>
      <point x="443" y="-192"/>
    </contour>
  </outline>
</glyph>
<glyph name="Eth" format="1">
  <advance width="662"/>
  <unicode hex="00D0"/>
  <outline>
    <contour>
      <point x="52" y="653" type="line"/>
      <point x="107" y="648" type="line" smooth="yes"/>
      <point x="128" y="645"/>
      <point x="129" y="645"/>
      <point x="129" y="599" type="curve"/>
      <point x="129" y="370" type="line"/>
      <point x="52" y="370" type="line"/>
      <point x="52" y="338" type="line"/>
      <point x="129" y="338" type="line"/>
      <point x="129" y="81" type="line"/>
      <point x="129" y="34"/>
      <point x="128" y="34"/>
      <point x="107" y="32" type="curve" smooth="yes"/>
      <point x="52" y="26" type="line"/>
      <point x="52" y="0" type="line"/>
      <point x="336" y="0" type="line" smooth="yes"/>
      <point x="497" y="0"/>
      <point x="588" y="110"/>
      <point x="588" y="303" type="curve" smooth="yes"/>
      <point x="588" y="378" type="line" smooth="yes"/>
      <point x="588" y="570"/>
      <point x="497" y="680"/>
      <point x="336" y="680" type="curve" smooth="yes"/>
      <point x="52" y="680" type="line"/>
    </contour>
    <contour>
      <point x="369" y="338" type="line"/>
      <point x="369" y="370" type="line"/>
      <point x="216" y="370" type="line"/>
      <point x="216" y="648" type="line"/>
      <point x="334" y="648" type="line" smooth="yes"/>
      <point x="441" y="648"/>
      <point x="493" y="594"/>
      <point x="493" y="428" type="curve" smooth="yes"/>
      <point x="493" y="253" type="line" smooth="yes"/>
      <point x="493" y="85"/>
      <point x="441" y="32"/>
      <point x="334" y="32" type="curve" smooth="yes"/>
      <point x="216" y="32" type="line"/>
      <point x="216" y="338" type="line"/>
    </contour>
  </outline>
</glyph>
<glyph name="multiply" format="1">
  <advance width="588"/>
  <unicode hex="00D7"/>
  <outline>
    <contour>
      <point x="482" y="171" type="line"/>
      <point x="319" y="334" type="line"/>
      <point x="482" y="497" type="line"/>
      <point x="457" y="522" type="line"/>
      <point x="294" y="359" type="line"/>
      <point x="131" y="522" type="line"/>
      <point x="105" y="497" type="line"/>
      <point x="268" y="334" type="line"/>
      <point x="105" y="171" type="line"/>
      <point x="131" y="146" type="line"/>
      <point x="294" y="309" type="line"/>
      <point x="457" y="146" type="line"/>
    </contour>
  </outline>
</glyph>
<glyph name="Oslash" format="1">
  <advance width="666"/>
  <unicode hex="00D8"/>
  <outline>
    <contour>
      <point x="592" y="303" type="curve" smooth="yes"/>
      <point x="592" y="378" type="line" smooth="yes"/>
      <point x="592" y="468"/>
      <point x="572" y="542"/>
      <point x="533" y="596" type="curve"/>
      <point x="592" y="680" type="line"/>
      <point x="547" y="680" type="line"/>
      <point x="508" y="625" type="line"/>
      <point x="465" y="667"/>
      <point x="407" y="690"/>
      <point x="333" y="690" type="curve" smooth="yes"/>
      <point x="165" y="690"/>
      <point x="74" y="571"/>
      <point x="74" y="378" type="curve" smooth="yes"/>
      <point x="74" y="303" type="line" smooth="yes"/>
      <point x="74" y="212"/>
      <point x="94" y="137"/>
      <point x="132" y="84" type="curve"/>
      <point x="74" y="0" type="line"/>
      <point x="119" y="0" type="line"/>
      <point x="157" y="55" type="line"/>
      <point x="200" y="13"/>
      <point x="259" y="-10"/>
      <point x="333" y="-10" type="curve" smooth="yes"/>
      <point x="500" y="-10"/>
      <point x="592" y="108"/>
    </contour>
    <contour>
      <point x="169" y="253" type="curve" smooth="yes"/>
      <point x="169" y="428" type="line" smooth="yes"/>
      <point x="169" y="595"/>
      <point x="225" y="658"/>
      <point x="333" y="658" type="curve" smooth="yes"/>
      <point x="400" y="658"/>
      <point x="448" y="633"/>
      <point x="474" y="574" type="curve"/>
      <point x="179" y="150" type="line"/>
      <point x="172" y="179"/>
      <point x="169" y="213"/>
    </contour>
    <contour>
      <point x="497" y="428" type="curve" smooth="yes"/>
      <point x="497" y="253" type="line" smooth="yes"/>
      <point x="497" y="86"/>
      <point x="441" y="22"/>
      <point x="333" y="22" type="curve" smooth="yes"/>
      <point x="266" y="22"/>
      <point x="219" y="47"/>
      <point x="193" y="106" type="curve"/>
      <point x="488" y="530" type="line"/>
      <point x="494" y="501"/>
      <point x="497" y="468"/>
    </contour>
  </outline>
</glyph>
<glyph name="Thorn" format="1">
  <advance width="574"/>
  <unicode hex="00DE"/>
  <outline>
    <contour>
      <point x="48" y="653" type="line"/>
      <point x="103" y="648" type="line" smooth="yes"/>
      <point x="124" y="646"/>
      <point x="125" y="645"/>
      <point x="125" y="599" type="curve"/>
      <point x="125" y="81" type="line"/>
      <point x="125" y="34"/>
      <point x="124" y="34"/>
      <point x="103" y="32" type="curve" smooth="yes"/>
      <point x="48" y="26" type="line"/>
      <point x="48" y="0" type="line"/>
      <point x="309" y="0" type="line"/>
      <point x="309" y="26" type="line"/>
      <point x="234" y="32" type="line" smooth="yes"/>
      <point x="213" y="33"/>
      <point x="212" y="34"/>
      <point x="212" y="81" type="curve"/>
      <point x="212" y="146" type="line"/>
      <point x="332" y="146" type="line" smooth="yes"/>
      <point x="464" y="146"/>
      <point x="535" y="218"/>
      <point x="535" y="328" type="curve" smooth="yes"/>
      <point x="535" y="357" type="line" smooth="yes"/>
      <point x="535" y="466"/>
      <point x="464" y="538"/>
      <point x="332" y="538" type="curve" smooth="yes"/>
      <point x="212" y="538" type="line"/>
      <point x="212" y="599" type="line"/>
      <point x="212" y="645"/>
      <point x="213" y="646"/>
      <point x="234" y="648" type="curve" smooth="yes"/>
      <point x="309" y="653" type="line"/>
      <point x="309" y="680" type="line"/>
      <point x="48" y="680" type="line"/>
    </contour>
    <contour>
      <point x="332" y="506" type="line" smooth="yes"/>
      <point x="404" y="506"/>
      <point x="443" y="461"/>
      <point x="443" y="371" type="curve" smooth="yes"/>
      <point x="443" y="314" type="line" smooth="yes"/>
      <point x="443" y="223"/>
      <point x="404" y="178"/>
      <point x="332" y="178" type="curve" smooth="yes"/>
      <point x="212" y="178" type="line"/>
      <point x="212" y="506" type="line"/>
    </contour>
  </outline>
</glyph>
<glyph name="germandbls" format="1">
  <advance width="621"/>
  <unicode hex="00DF"/>
  <outline>
    <contour>
      <point x="194" y="581" type="line" smooth="yes"/>
      <point x="194" y="689"/>
      <point x="234" y="718"/>
      <point x="302" y="718" type="curve" smooth="yes"/>
      <point x="376" y="718"/>
      <point x="404" y="679"/>
      <point x="404" y="614" type="curve" smooth="yes"/>
      <point x="404" y="499"/>
      <point x="321" y="458"/>
      <point x="321" y="366" type="curve" smooth="yes"/>
      <point x="321" y="301"/>
      <point x="360" y="271"/>
      <point x="412" y="233" type="curve" smooth="yes"/>
      <point x="453" y="202" type="line" smooth="yes"/>
      <point x="503" y="165"/>
      <point x="520" y="138"/>
      <point x="520" y="104" type="curve" smooth="yes"/>
      <point x="520" y="48"/>
      <point x="480" y="21"/>
      <point x="433" y="21" type="curve" smooth="yes"/>
      <point x="378" y="21"/>
      <point x="337" y="47"/>
      <point x="323" y="134" type="curve"/>
      <point x="267" y="114" type="line"/>
      <point x="291" y="24"/>
      <point x="355" y="-10"/>
      <point x="434" y="-10" type="curve" smooth="yes"/>
      <point x="530" y="-10"/>
      <point x="584" y="49"/>
      <point x="584" y="127" type="curve" smooth="yes"/>
      <point x="584" y="190"/>
      <point x="551" y="238"/>
      <point x="498" y="277" type="curve" smooth="yes"/>
      <point x="457" y="308" type="line" smooth="yes"/>
      <point x="406" y="344"/>
      <point x="381" y="364"/>
      <point x="381" y="410" type="curve" smooth="yes"/>
      <point x="381" y="496"/>
      <point x="473" y="539"/>
      <point x="473" y="625" type="curve" smooth="yes"/>
      <point x="473" y="686"/>
      <point x="424" y="750"/>
      <point x="302" y="750" type="curve" smooth="yes"/>
      <point x="155" y="750"/>
      <point x="112" y="661"/>
      <point x="112" y="567" type="curve" smooth="yes"/>
      <point x="112" y="495" type="line"/>
      <point x="35" y="495" type="line"/>
      <point x="35" y="468" type="line"/>
      <point x="90" y="463" type="line" smooth="yes"/>
      <point x="111" y="460"/>
      <point x="112" y="460"/>
      <point x="112" y="414" type="curve"/>
      <point x="112" y="81" type="line"/>
      <point x="112" y="34"/>
      <point x="111" y="34"/>
      <point x="90" y="32" type="curve" smooth="yes"/>
      <point x="35" y="26" type="line"/>
      <point x="35" y="0" type="line"/>
      <point x="194" y="0" type="line"/>
    </contour>
  </outline>
</glyph>
<glyph name="ae" format="1">
  <advance width="814"/>
  <unicode hex="00E6"/>
  <outline>
    <contour>
      <point x="750" y="114" type="curve"/>
      <point x="697" y="129" type="line"/>
      <point x="685" y="50"/>
      <point x="642" y="22"/>
      <point x="580" y="22" type="curve" smooth="yes"/>
      <point x="482" y="22"/>
      <point x="443" y="78"/>
      <point x="443" y="218" type="curve" smooth="yes"/>
      <point x="443" y="248" type="line"/>
      <point x="749" y="248" type="line"/>
      <point x="753" y="270"/>
      <point x="755" y="291"/>
      <point x="755" y="311" type="curve" smooth="yes"/>
      <point x="755" y="439"/>
      <point x="668" y="505"/>
      <point x="560" y="505" type="curve" smooth="yes"/>
      <point x="489" y="505"/>
      <point x="437" y="475"/>
      <point x="405" y="422" type="curve"/>
      <point x="384" y="471"/>
      <point x="339" y="505"/>
      <point x="253" y="505" type="curve" smooth="yes"/>
      <point x="130" y="505"/>
      <point x="70" y="431"/>
      <point x="81" y="338" type="curve"/>
      <point x="160" y="326" type="line"/>
      <point x="143" y="445"/>
      <point x="190" y="473"/>
      <point x="251" y="473" type="curve" smooth="yes"/>
      <point x="314" y="473"/>
      <point x="353" y="439"/>
      <point x="353" y="332" type="curve" smooth="yes"/>
      <point x="353" y="251" type="line"/>
      <point x="240" y="251" type="line" smooth="yes"/>
      <point x="107" y="251"/>
      <point x="59" y="202"/>
      <point x="59" y="123" type="curve" smooth="yes"/>
      <point x="59" y="49"/>
      <point x="102" y="-10"/>
      <point x="195" y="-10" type="curve" smooth="yes"/>
      <point x="261" y="-10"/>
      <point x="329" y="21"/>
      <point x="382" y="97" type="curve"/>
      <point x="416" y="29"/>
      <point x="479" y="-10"/>
      <point x="573" y="-10" type="curve" smooth="yes"/>
      <point x="654" y="-10"/>
      <point x="726" y="23"/>
    </contour>
    <contour>
      <point x="560" y="473" type="curve" smooth="yes"/>
      <point x="627" y="473"/>
      <point x="672" y="431"/>
      <point x="672" y="331" type="curve" smooth="yes"/>
      <point x="672" y="317"/>
      <point x="670" y="300"/>
      <point x="668" y="283" type="curve" smooth="yes"/>
      <point x="668" y="280" type="line"/>
      <point x="443" y="280" type="line"/>
      <point x="443" y="417"/>
      <point x="481" y="473"/>
    </contour>
    <contour>
      <point x="223" y="32" type="curve" smooth="yes"/>
      <point x="170" y="32"/>
      <point x="144" y="67"/>
      <point x="144" y="127" type="curve" smooth="yes"/>
      <point x="144" y="190"/>
      <point x="176" y="219"/>
      <point x="251" y="219" type="curve" smooth="yes"/>
      <point x="353" y="219" type="line"/>
      <point x="355" y="187"/>
      <point x="360" y="157"/>
      <point x="368" y="130" type="curve"/>
      <point x="311" y="50"/>
      <point x="263" y="32"/>
    </contour>
  </outline>
</glyph>
<glyph name="ccedilla" format="1">
  <advance width="502"/>
  <unicode hex="00E7"/>
  <outline>
    <contour>
      <point x="390" y="-140" type="curve" smooth="yes"/>
      <point x="390" y="-88"/>
      <point x="342" y="-58"/>
      <point x="271" y="-58" type="curve" smooth="yes"/>
      <point x="291" y="-10" type="line"/>
      <point x="364" y="-6"/>
      <point x="428" y="28"/>
      <point x="451" y="114" type="curve"/>
      <point x="398" y="129" type="line"/>
      <point x="385" y="50"/>
      <point x="346" y="22"/>
      <point x="283" y="22" type="curve" smooth="yes"/>
      <point x="191" y="22"/>
      <point x="153" y="78"/>
      <point x="153" y="218" type="curve" smooth="yes"/>
      <point x="153" y="278" type="line" smooth="yes"/>
      <point x="153" y="417"/>
      <point x="195" y="473"/>
      <point x="269" y="473" type="curve" smooth="yes"/>
      <point x="346" y="473"/>
      <point x="381" y="413"/>
      <point x="367" y="307" type="curve"/>
      <point x="446" y="319" type="line"/>
      <point x="462" y="421"/>
      <point x="397" y="505"/>
      <point x="269" y="505" type="curve" smooth="yes"/>
      <point x="136" y="505"/>
      <point x="63" y="407"/>
      <point x="63" y="258" type="curve" smooth="yes"/>
      <point x="63" y="238" type="line" smooth="yes"/>
      <point x="63" y="95"/>
      <point x="127" y="0"/>
      <point x="256" y="-9" type="curve"/>
      <point x="234" y="-63" type="line"/>
      <point x="244" y="-88" type="line"/>
      <point x="250" y="-87"/>
      <point x="260" y="-86"/>
      <point x="267" y="-86" type="curve" smooth="yes"/>
      <point x="311" y="-86"/>
      <point x="325" y="-109"/>
      <point x="325" y="-140" type="curve" smooth="yes"/>
      <point x="325" y="-172"/>
      <point x="310" y="-195"/>
      <point x="275" y="-195" type="curve" smooth="yes"/>
      <point x="244" y="-195"/>
      <point x="225" y="-178"/>
      <point x="220" y="-131" type="curve"/>
      <point x="172" y="-145" type="line"/>
      <point x="183" y="-203"/>
      <point x="228" y="-223"/>
      <point x="279" y="-223" type="curve" smooth="yes"/>
      <point x="344" y="-223"/>
      <point x="390" y="-192"/>
    </contour>
  </outline>
</glyph>
<glyph name="eth" format="1">
  <advance width="559"/>
  <unicode hex="00F0"/>
  <outline>
    <contour>
      <point x="493" y="259" type="curve" smooth="yes"/>
      <point x="493" y="287" type="line" smooth="yes"/>
      <point x="493" y="427"/>
      <point x="434" y="550"/>
      <point x="332" y="643" type="curve"/>
      <point x="441" y="723" type="line"/>
      <point x="422" y="750" type="line"/>
      <point x="307" y="665" type="line"/>
      <point x="266" y="698"/>
      <point x="220" y="726"/>
      <point x="169" y="750" type="curve"/>
      <point x="158" y="723" type="line"/>
      <point x="200" y="700"/>
      <point x="239" y="673"/>
      <point x="273" y="641" type="curve"/>
      <point x="162" y="559" type="line"/>
      <point x="181" y="532" type="line"/>
      <point x="296" y="617" type="line"/>
      <point x="344" y="562"/>
      <point x="379" y="494"/>
      <point x="395" y="408" type="curve"/>
      <point x="358" y="437"/>
      <point x="315" y="451"/>
      <point x="269" y="451" type="curve" smooth="yes"/>
      <point x="140" y="451"/>
      <point x="61" y="364"/>
      <point x="61" y="231" type="curve" smooth="yes"/>
      <point x="61" y="211" type="line" smooth="yes"/>
      <point x="61" y="76"/>
      <point x="138" y="-10"/>
      <point x="275" y="-10" type="curve" smooth="yes"/>
      <point x="418" y="-10"/>
      <point x="493" y="92"/>
    </contour>
    <contour>
      <point x="151" y="191" type="curve" smooth="yes"/>
      <point x="151" y="251" type="line" smooth="yes"/>
      <point x="151" y="372"/>
      <point x="196" y="419"/>
      <point x="272" y="419" type="curve" smooth="yes"/>
      <point x="312" y="419"/>
      <point x="358" y="407"/>
      <point x="401" y="359" type="curve"/>
      <point x="402" y="342"/>
      <point x="403" y="325"/>
      <point x="403" y="307" type="curve" smooth="yes"/>
      <point x="403" y="239" type="line" smooth="yes"/>
      <point x="403" y="81"/>
      <point x="362" y="22"/>
      <point x="275" y="22" type="curve" smooth="yes"/>
      <point x="196" y="22"/>
      <point x="151" y="70"/>
    </contour>
  </outline>
</glyph>
<glyph name="divide" format="1">
  <advance width="588"/>
  <unicode hex="00F7"/>
  <outline>
    <contour>
      <point x="294" y="478" type="curve" smooth="yes"/>
      <point x="327" y="478"/>
      <point x="351" y="501"/>
      <point x="351" y="535" type="curve" smooth="yes"/>
      <point x="351" y="568"/>
      <point x="327" y="592"/>
      <point x="294" y="592" type="curve" smooth="yes"/>
      <point x="261" y="592"/>
      <point x="237" y="568"/>
      <point x="237" y="535" type="curve" smooth="yes"/>
      <point x="237" y="501"/>
      <point x="261" y="478"/>
    </contour>
    <contour>
      <point x="87" y="317" type="line"/>
      <point x="501" y="317" type="line"/>
      <point x="501" y="350" type="line"/>
      <point x="87" y="350" type="line"/>
    </contour>
    <contour>
      <point x="294" y="76" type="curve" smooth="yes"/>
      <point x="327" y="76"/>
      <point x="351" y="99"/>
      <point x="351" y="133" type="curve" smooth="yes"/>
      <point x="351" y="166"/>
      <point x="327" y="189"/>
      <point x="294" y="189" type="curve" smooth="yes"/>
      <point x="261" y="189"/>
      <point x="237" y="166"/>
      <point x="237" y="133" type="curve" smooth="yes"/>
      <point x="237" y="99"/>
      <point x="261" y="76"/>
    </contour>
  </outline>
</glyph>
<glyph name="oslash" format="1">
  <advance width="557"/>
  <unicode hex="00F8"/>
  <outline>
    <contour>
      <point x="495" y="238" type="curve" smooth="yes"/>
      <point x="495" y="258" type="line" smooth="yes"/>
      <point x="495" y="328"/>
      <point x="477" y="387"/>
      <point x="444" y="430" type="curve"/>
      <point x="495" y="495" type="line"/>
      <point x="449" y="495" type="line"/>
      <point x="419" y="457" type="line"/>
      <point x="383" y="488"/>
      <point x="336" y="505"/>
      <point x="278" y="505" type="curve" smooth="yes"/>
      <point x="139" y="505"/>
      <point x="62" y="407"/>
      <point x="62" y="258" type="curve" smooth="yes"/>
      <point x="62" y="238" type="line" smooth="yes"/>
      <point x="62" y="167"/>
      <point x="79" y="107"/>
      <point x="112" y="65" type="curve"/>
      <point x="62" y="0" type="line"/>
      <point x="107" y="0" type="line"/>
      <point x="137" y="38" type="line"/>
      <point x="173" y="7"/>
      <point x="220" y="-10"/>
      <point x="278" y="-10" type="curve" smooth="yes"/>
      <point x="416" y="-10"/>
      <point x="495" y="87"/>
    </contour>
    <contour>
      <point x="152" y="218" type="curve" smooth="yes"/>
      <point x="152" y="278" type="line" smooth="yes"/>
      <point x="152" y="417"/>
      <point x="197" y="473"/>
      <point x="278" y="473" type="curve" smooth="yes"/>
      <point x="326" y="473"/>
      <point x="361" y="454"/>
      <point x="382" y="410" type="curve"/>
      <point x="161" y="126" type="line"/>
      <point x="155" y="152"/>
      <point x="152" y="182"/>
    </contour>
    <contour>
      <point x="405" y="278" type="curve" smooth="yes"/>
      <point x="405" y="218" type="line" smooth="yes"/>
      <point x="405" y="78"/>
      <point x="360" y="22"/>
      <point x="278" y="22" type="curve" smooth="yes"/>
      <point x="230" y="22"/>
      <point x="195" y="41"/>
      <point x="174" y="86" type="curve"/>
      <point x="396" y="369" type="line"/>
      <point x="402" y="344"/>
      <point x="405" y="314"/>
    </contour>
  </outline>
</glyph>
<glyph name="thorn" format="1">
  <advance width="577"/>
  <unicode hex="00FE"/>
  <outline>
    <contour>
      <point x="25" y="714" type="line"/>
      <point x="80" y="708" type="line" smooth="yes"/>
      <point x="101" y="705"/>
      <point x="102" y="705"/>
      <point x="102" y="659" type="curve"/>
      <point x="102" y="-132" type="line"/>
      <point x="102" y="-178"/>
      <point x="101" y="-178"/>
      <point x="80" y="-181" type="curve" smooth="yes"/>
      <point x="25" y="-186" type="line"/>
      <point x="25" y="-213" type="line"/>
      <point x="281" y="-213" type="line"/>
      <point x="281" y="-186" type="line"/>
      <point x="206" y="-181" type="line" smooth="yes"/>
      <point x="185" y="-179"/>
      <point x="184" y="-178"/>
      <point x="184" y="-132" type="curve"/>
      <point x="184" y="34" type="line"/>
      <point x="216" y="5"/>
      <point x="258" y="-10"/>
      <point x="304" y="-10" type="curve" smooth="yes"/>
      <point x="434" y="-10"/>
      <point x="512" y="86"/>
      <point x="512" y="238" type="curve" smooth="yes"/>
      <point x="512" y="258" type="line" smooth="yes"/>
      <point x="512" y="414"/>
      <point x="446" y="505"/>
      <point x="331" y="505" type="curve" smooth="yes"/>
      <point x="273" y="505"/>
      <point x="225" y="480"/>
      <point x="184" y="422" type="curve"/>
      <point x="184" y="740" type="line"/>
      <point x="25" y="740" type="line"/>
    </contour>
    <contour>
      <point x="318" y="469" type="curve" smooth="yes"/>
      <point x="383" y="469"/>
      <point x="422" y="413"/>
      <point x="422" y="288" type="curve" smooth="yes"/>
      <point x="422" y="208" type="line" smooth="yes"/>
      <point x="422" y="93"/>
      <point x="385" y="23"/>
      <point x="299" y="23" type="curve" smooth="yes"/>
      <point x="252" y="23"/>
      <point x="214" y="42"/>
      <point x="184" y="82" type="curve"/>
      <point x="184" y="368" type="line"/>
      <point x="230" y="449"/>
      <point x="276" y="469"/>
    </contour>
  </outline>
</glyph>
<glyph name="Aogonek" format="1">
  <advance width="628"/>
  <unicode hex="0104"/>
  <outline>
    <contour>
      <point x="614" y="-125" type="curve"/>
      <point x="562" y="-112" type="line"/>
      <point x="551" y="-173"/>
      <point x="526" y="-193"/>
      <point x="494" y="-193" type="curve" smooth="yes"/>
      <point x="459" y="-193"/>
      <point x="442" y="-168"/>
      <point x="442" y="-127" type="curve" smooth="yes"/>
      <point x="442" y="-54"/>
      <point x="487" y="0"/>
      <point x="567" y="0" type="curve"/>
      <point x="631" y="0" type="line"/>
      <point x="631" y="26" type="line"/>
      <point x="576" y="32" type="line" smooth="yes"/>
      <point x="556" y="34"/>
      <point x="554" y="34"/>
      <point x="540" y="81" type="curve" smooth="yes"/>
      <point x="345" y="680" type="line"/>
      <point x="282" y="680" type="line"/>
      <point x="89" y="81" type="line" smooth="yes"/>
      <point x="74" y="34"/>
      <point x="74" y="34"/>
      <point x="52" y="32" type="curve" smooth="yes"/>
      <point x="-2" y="26" type="line"/>
      <point x="-2" y="0" type="line"/>
      <point x="188" y="0" type="line"/>
      <point x="188" y="26" type="line"/>
      <point x="133" y="32" type="line" smooth="yes"/>
      <point x="111" y="34"/>
      <point x="110" y="35"/>
      <point x="125" y="81" type="curve" smooth="yes"/>
      <point x="166" y="209" type="line"/>
      <point x="410" y="209" type="line"/>
      <point x="475" y="7" type="line"/>
      <point x="421" y="-18"/>
      <point x="378" y="-66"/>
      <point x="378" y="-128" type="curve" smooth="yes"/>
      <point x="378" y="-188"/>
      <point x="425" y="-223"/>
      <point x="489" y="-223" type="curve" smooth="yes"/>
      <point x="542" y="-223"/>
      <point x="594" y="-197"/>
    </contour>
    <contour>
      <point x="176" y="241" type="line"/>
      <point x="288" y="589" type="line"/>
      <point x="400" y="241" type="line"/>
    </contour>
  </outline>
</glyph>
<glyph name="aogonek" format="1">
  <advance width="540"/>
  <unicode hex="0105"/>
  <outline>
    <contour>
      <point x="531" y="-125" type="curve"/>
      <point x="479" y="-112" type="line"/>
      <point x="468" y="-172"/>
      <point x="442" y="-193"/>
      <point x="411" y="-193" type="curve" smooth="yes"/>
      <point x="375" y="-193"/>
      <point x="359" y="-168"/>
      <point x="359" y="-128" type="curve" smooth="yes"/>
      <point x="359" y="-39"/>
      <point x="464" y="-32"/>
      <point x="531" y="24" type="curve"/>
      <point x="513" y="49" type="line"/>
      <point x="497" y="35"/>
      <point x="484" y="30"/>
      <point x="472" y="30" type="curve" smooth="yes"/>
      <point x="453" y="30"/>
      <point x="435" y="39"/>
      <point x="435" y="107" type="curve" smooth="yes"/>
      <point x="435" y="332" type="line" smooth="yes"/>
      <point x="435" y="423"/>
      <point x="398" y="505"/>
      <point x="253" y="505" type="curve" smooth="yes"/>
      <point x="130" y="505"/>
      <point x="70" y="431"/>
      <point x="81" y="338" type="curve"/>
      <point x="160" y="326" type="line"/>
      <point x="143" y="445"/>
      <point x="190" y="473"/>
      <point x="251" y="473" type="curve" smooth="yes"/>
      <point x="314" y="473"/>
      <point x="353" y="439"/>
      <point x="353" y="332" type="curve" smooth="yes"/>
      <point x="353" y="251" type="line"/>
      <point x="240" y="251" type="line" smooth="yes"/>
      <point x="107" y="251"/>
      <point x="59" y="202"/>
      <point x="59" y="123" type="curve" smooth="yes"/>
      <point x="59" y="49"/>
      <point x="102" y="-10"/>
      <point x="195" y="-10" type="curve" smooth="yes"/>
      <point x="250" y="-10"/>
      <point x="308" y="12"/>
      <point x="355" y="65" type="curve"/>
      <point x="362" y="26"/>
      <point x="386" y="2"/>
      <point x="423" y="-5" type="curve"/>
      <point x="360" y="-31"/>
      <point x="295" y="-67"/>
      <point x="295" y="-132" type="curve" smooth="yes"/>
      <point x="295" y="-188"/>
      <point x="341" y="-223"/>
      <point x="405" y="-223" type="curve" smooth="yes"/>
      <point x="459" y="-223"/>
      <point x="511" y="-197"/>
    </contour>
    <contour>
      <point x="223" y="32" type="curve" smooth="yes"/>
      <point x="170" y="32"/>
      <point x="144" y="67"/>
      <point x="144" y="127" type="curve" smooth="yes"/>
      <point x="144" y="190"/>
      <point x="176" y="219"/>
      <point x="251" y="219" type="curve" smooth="yes"/>
      <point x="353" y="219" type="line"/>
      <point x="353" y="110" type="line"/>
      <point x="304" y="47"/>
      <point x="260" y="32"/>
    </contour>
  </outline>
</glyph>
<glyph name="Eogonek" format="1">
  <advance width="580"/>
  <unicode hex="0118"/>
  <outline>
    <contour>
      <point x="527" y="-125" type="curve"/>
      <point x="475" y="-112" type="line"/>
      <point x="464" y="-172"/>
      <point x="438" y="-193"/>
      <point x="407" y="-193" type="curve" smooth="yes"/>
      <point x="371" y="-193"/>
      <point x="355" y="-168"/>
      <point x="355" y="-127" type="curve" smooth="yes"/>
      <point x="355" y="-54"/>
      <point x="399" y="0"/>
      <point x="480" y="0" type="curve"/>
      <point x="527" y="0" type="line"/>
      <point x="527" y="163" type="line"/>
      <point x="501" y="163" type="line"/>
      <point x="472" y="58" type="line" smooth="yes"/>
      <point x="466" y="34"/>
      <point x="465" y="32"/>
      <point x="418" y="32" type="curve"/>
      <point x="212" y="32" type="line"/>
      <point x="212" y="327" type="line"/>
      <point x="346" y="327" type="line"/>
      <point x="393" y="327"/>
      <point x="394" y="325"/>
      <point x="400" y="301" type="curve" smooth="yes"/>
      <point x="419" y="226" type="line"/>
      <point x="445" y="226" type="line"/>
      <point x="445" y="460" type="line"/>
      <point x="419" y="460" type="line"/>
      <point x="400" y="385" type="line" smooth="yes"/>
      <point x="394" y="361"/>
      <point x="393" y="359"/>
      <point x="346" y="359" type="curve"/>
      <point x="212" y="359" type="line"/>
      <point x="212" y="648" type="line"/>
      <point x="406" y="648" type="line"/>
      <point x="452" y="648"/>
      <point x="453" y="645"/>
      <point x="460" y="622" type="curve" smooth="yes"/>
      <point x="489" y="517" type="line"/>
      <point x="514" y="517" type="line"/>
      <point x="514" y="680" type="line"/>
      <point x="48" y="680" type="line"/>
      <point x="48" y="653" type="line"/>
      <point x="103" y="648" type="line" smooth="yes"/>
      <point x="124" y="645"/>
      <point x="125" y="645"/>
      <point x="125" y="599" type="curve"/>
      <point x="125" y="81" type="line"/>
      <point x="125" y="34"/>
      <point x="124" y="34"/>
      <point x="103" y="32" type="curve" smooth="yes"/>
      <point x="48" y="26" type="line"/>
      <point x="48" y="0" type="line"/>
      <point x="389" y="0" type="line"/>
      <point x="335" y="-23"/>
      <point x="291" y="-69"/>
      <point x="291" y="-128" type="curve" smooth="yes"/>
      <point x="291" y="-188"/>
      <point x="337" y="-223"/>
      <point x="401" y="-223" type="curve" smooth="yes"/>
      <point x="455" y="-223"/>
      <point x="507" y="-197"/>
    </contour>
  </outline>
</glyph>
